<ttFont>
          <CharString index="0">
            2 -106 callgsubr
            return
          </CharString>
          <CharString index="1">
            -86 callsubr
            66 -72 callgsubr
            return
          </CharString>
          <CharString index="2">
            -107 callgsubr
            endchar
          </CharString>
          <CharString index="3">
            5 3 -90 callgsubr
            return
          </CharString>
          <CharString index="4">
            hlineto
            -103 callgsubr
            return
          </CharString>
          <CharString index="5">
            vhcurveto
            -10 165 callsubr
            119 4 -93 callgsubr
            return
          </CharString>
          <CharString index="6">
            -45 -42 -20 -32 -31 hvcurveto
            37 -41 -53 160 callgsubr
            17 33 20 34 hhcurveto
            return
          </CharString>
          <CharString index="7">
            35 -2 -83 callgsubr
            return
          </CharString>
          <CharString index="8">
            3 5 3 -87 callgsubr
            return
          </CharString>
          <CharString index="9">
            662 -104 callgsubr
            return
          </CharString>
          <CharString index="10">
            -70 callgsubr
            55 47 225 callsubr
            41 58 -16 49 hhcurveto
            return
          </CharString>
          <CharString index="11">
            117 -90 callsubr
            return
          </CharString>
          <CharString index="12">
            -74 callgsubr
            164 -85 callsubr
          </CharString>
          <CharString index="13">
            -77 -15 callgsubr
            -24 16 -17 252 callgsubr
            18 38 46 43 22 -41 -41 -115 -106 -91 -132 -86 -83 42 76 -38 vhcurveto
            97 6 55 65 82 vvcurveto
            65 -30 252 callsubr
            return
          </CharString>
          <CharString index="14">
            -5 -2 -79 callsubr
            return
          </CharString>
          <CharString index="15">
            rmoveto
            -97 callsubr
            return
          </CharString>
          <CharString index="16">
            -88 callsubr
            51 39 43 60 7 hvcurveto
            return
          </CharString>
          <CharString index="17">
            vvcurveto
            -100 callsubr
            return
          </CharString>
          <CharString index="18">
            98 -77 225 callgsubr
            -40 -55 -63 -85 72 -63 50 14 13 6 11 7 vhcurveto
            -34 19 -25 43 36 vvcurveto
            35 18 28 32 73 callgsubr
            37 -12 -29 56 -50 hhcurveto
            -34 -21 -26 -29 -56 49 -44 59 -21 hvcurveto
            122 callsubr
            return
          </CharString>
          <CharString index="19">
            -24 callsubr
            -65 -1 -52 -1 -45 vhcurveto
            -52 -31 -44 -38 -52 hhcurveto
            -42 -37 31 45 return
          </CharString>
          <CharString index="20">
            -75 callsubr
            -64 104 -235 166 66 51 42 73 65 return
          </CharString>
          <CharString index="21">
            -93 callsubr
            -67 return
          </CharString>
          <CharString index="22">
            -84 callgsubr
            endchar
          </CharString>
          <CharString index="23">
            122 -96 callsubr
            return
          </CharString>
          <CharString index="24">
            rmoveto
            -33 -27 -32 -17 -36 hhcurveto
            -38 -27 16 41 49 41 43 119 7 hvcurveto
            129 123 rmoveto
            121 -85 51 -113 -109 -98 -42 -78 -36 28 -30 53 29 26 10 18 19 vhcurveto
            -10 11 -5 14 16 vvcurveto
            35 28 22 39 40 29 -25 -53 vhcurveto
            -101 vlineto
            -196 -3 -104 -68 -98 vvcurveto
            -83 62 -46 86 69 52 31 40 34 vhcurveto
            -48 9 27 -23 48 hhcurveto
            41 35 23 28 18 hvcurveto
            -32 8 -20 22 42 vvcurveto
            endchar
          </CharString>
          <CharString index="25">
            -102 callgsubr
            63 2 return
          </CharString>
          <CharString index="26">
            -67 callgsubr
            -38 43 -19 hvcurveto
            -144 49 136 -79 118 hhcurveto
            return
          </CharString>
          <CharString index="27">
            hlineto
            37 -32 35 -59 -66 vvcurveto
            -21 -4 -24 -10 -15 vhcurveto
            28 -15 -25 13 190 callsubr
            62 47 44 88 76 -32 86 -53 55 hvcurveto
            return
          </CharString>
          <CharString index="28">
            -11 -7 vvcurveto
            return
          </CharString>
          <CharString index="29">
            rmoveto
            395 callgsubr
            157 156 vlineto
            45 35 -1 -12 30 hvcurveto
            17 12 12 19 26 vvcurveto
            45 -35 16 354 callsubr
            186 242 hlineto
            46 35 -6 -15 29 hvcurveto
            19 12 12 370 callsubr
            -35 26 -94 vhcurveto
            -327 hlineto
            -40 -27 -16 -25 -20 hvcurveto
            21 -10 10 -18 -30 vvcurveto
            -469 vlineto
            -114 57 -47 120 vhcurveto
            214 hlineto
            86 35 37 47 24 -12 25 -19 13 hvcurveto
            -27 -29 -35 372 callsubr
          </CharString>
          <CharString index="30">
            rmoveto
            102 315 105 -315 rlineto
            -18 403 rmoveto
            66 -25 -18 35 -58 hhcurveto
            -35 -28 -16 -23 -16 hvcurveto
            16 -12 11 -15 8 -23 -215 -553 rcurveline
            -15 -37 -10 -17 -21 -8 rrcurveto
            -26 9 36 -18 35 hhcurveto
            37 30 22 63 19 hvcurveto
            25 76 rlineto
            261 hlineto
            26 -77 rlineto
            -65 21 27 -19 46 hhcurveto
            40 33 20 28 14 hvcurveto
            -26 12 -18 24 -14 39 rrcurveto
            endchar
          </CharString>
          <CharString index="31">
            rmoveto
            26 20 21 2 22 -8 23 51 -25 50 -52 1 -42 1 -28 -21 -37 -56 -72 -104 rcurveline
            13 -26 32 -3 29 23 rrcurveto
            return
          </CharString>
          <CharString index="32">
            -67 callsubr
            -17 -1 -21 -8 -33 vvcurveto
            return
          </CharString>
          <CharString index="33">
            188 callsubr
            -34 30 -31 34 28 18 21 26 34 -32 30 -32 hvcurveto
            return
          </CharString>
          <CharString index="34">
            -6 282 callsubr
            -42 37 -35 49 84 55 68 73 112 -101 102 -103 -47 -32 -19 -22 -22 vhcurveto
            2 16 1 18 23 vvcurveto
            30 -7 117 callgsubr
            410 -105 callsubr
          </CharString>
          <CharString index="35">
            rmoveto
            -70 callgsubr
            return
          </CharString>
          <CharString index="36">
            -1 rrcurveto
            1 5 1 -19 callgsubr
            -83 -54 -68 -72 return
          </CharString>
          <CharString index="37">
            rmoveto
            -37 callsubr
            -263 vlineto
            -120 70 -57 110 66 52 32 52 33 vhcurveto
            -56 3 27 -28 51 hhcurveto
            35 24 135 callsubr
          </CharString>
          <CharString index="38">
            -57 -98 callsubr
            return
          </CharString>
          <CharString index="39">
            -73 callgsubr
            48 hlineto
            2 -26 2 return
          </CharString>
          <CharString index="40">
            -2 -64 callgsubr
            return
          </CharString>
          <CharString index="41">
            rmoveto
            -81 callsubr
            return
          </CharString>
          <CharString index="42">
            -60 callsubr
            -51 29 -60 return
          </CharString>
          <CharString index="43">
            46 36 119 5 -84 callsubr
            return
          </CharString>
          <CharString index="44">
            7 -14 2 -14 -13 vvcurveto
            -37 -28 -24 -38 -5 vhcurveto
            -40 6 34 -25 34 hhcurveto
            53 27 37 47 39 -18 39 -28 32 hvcurveto
            27 19 17 28 39 vvcurveto
            47 -37 49 304 callgsubr
            -15 5 -15 7 -13 vhcurveto
            -9 -20 -22 -4 -24 hhcurveto
            -59 361 callgsubr
            -15 25 -18 18 vhcurveto
            147 -105 callsubr
          </CharString>
          <CharString index="45">
            11 -24 8 -59 -53 vvcurveto
            -108 -23 -60 -56 -50 -18 43 54 -4 vhcurveto
            -2 32 0 100 callsubr
            -193 97 rmoveto
            -32 callgsubr
            return
          </CharString>
          <CharString index="46">
            1 -22 hhcurveto
            -87 -51 -41 -70 -90 89 -80 91 hvcurveto
            32 32 6 20 hhcurveto
            31 19 -18 -27 -45 -70 -28 229 callsubr
            40 -42 59 -26 hvcurveto
            -106 35 62 -105 96 hhcurveto
            46 34 27 39 22 -11 21 -18 13 hvcurveto
            -16 -18 -23 -5 -17 hhcurveto
            -53 -41 42 48 -27 hvcurveto
            -6 27 29 -3 29 hhcurveto
            98 74 54 86 return
          </CharString>
          <CharString index="47">
            224 callsubr
            -47 -42 vvcurveto
            -65 -29 -54 -43 -65 -40 callsubr
            return
          </CharString>
          <CharString index="48">
            -4 -27 -2 -28 -28 -56 callgsubr
            return
          </CharString>
          <CharString index="49">
            rmoveto
            97 12 43 48 50 hhcurveto
            40 28 -39 -48 -33 -14 -9 -24 -3 hvcurveto
            55 -71 rmoveto
            81 2 32 29 69 vvcurveto
            87 -73 89 -113 -139 -111 -123 -170 -154 96 -90 149 101 79 62 54 15 331 callsubr
            vhcurveto
            -34 -32 -44 -25 -62 hhcurveto
            -78 -57 44 118 -3 hvcurveto
            endchar
          </CharString>
          <CharString index="50">
            hvcurveto
            3 21 2 21 22 -82 callsubr
            return
          </CharString>
          <CharString index="51">
            rmoveto
            -54 callgsubr
            return
          </CharString>
          <CharString index="52">
            rmoveto
            -125 -72 114 168 -12 hvcurveto
            169 -11 57 126 125 hhcurveto
            127 72 -114 -169 10 hvcurveto
            -168 12 -57 -126 -126 hhcurveto
            305 289 rmoveto
            216 -102 157 -221 -217 -108 -159 -214 -216 108 -159 217 220 103 160 215 vhcurveto
            return
          </CharString>
          <CharString index="53" raw="1">
            3d1dc2ba f7750ab4 c57bbc1b 0b
          </CharString>
          <CharString index="54">
            -101 27 54 -148 102 29 callgsubr
            14 return
          </CharString>
          <CharString index="55">
            212 callsubr
            -20 10 -10 18 30 vvcurveto
            return
          </CharString>
          <CharString index="56">
            -6 callgsubr
            -340 vlineto
            -52 callsubr
            return
          </CharString>
          <CharString index="57">
            8 14 105 callgsubr
            return
          </CharString>
          <CharString index="58">
            rmoveto
            -163 87 -108 200 201 86 108 163 vhcurveto
            378 vlineto
            67 382 callsubr
            -26 -16 -23 -18 vhcurveto
            21 -9 10 -19 -29 vvcurveto
            -399 vlineto
            -104 -60 -49 -98 -99 -59 51 102 vhcurveto
            396 vlineto
            67 -27 32 -57 -33 -25 -16 -23 -18 vhcurveto
            21 -9 10 -19 -29 vvcurveto
            return
          </CharString>
          <CharString index="59">
            rmoveto
            -48 -28 -30 -36 -12 3 -12 7 -11 hvcurveto
            8 20 20 4 19 hhcurveto
            79 69 -60 -68 54 hvcurveto
            16 5 3 11 9 vvcurveto
            48 -115 144 -99 vhcurveto
            return
          </CharString>
          <CharString index="60">
            -76 callgsubr
            178 -20 callsubr
          </CharString>
          <CharString index="61">
            -44 -22 -52 -20 -51 -11 rrcurveto
            -43 4 34 -31 50 hhcurveto
            42 103 52 94 78 hvcurveto
            -5 -26 -3 -27 -28 50 callgsubr
            44 158 callgsubr
            -48 -35 -42 -56 -9 hvcurveto
            -12 -3 -14 -1 -15 1 rrcurveto
            -1 -5 -1 -4 -3 vvcurveto
            -40 34 -35 50 83 54 67 72 111 -103 101 -100 -43 -32 -19 -21 -21 vhcurveto
            3 18 1 18 18 vvcurveto
            30 -7 117 callgsubr
            403 -105 callsubr
          </CharString>
          <CharString index="62">
            20 rrcurveto
            106 315 callsubr
            18 vhcurveto
            73 -63 84 -80 46 -45 rrcurveto
            -37 -34 -45 -20 -41 203 callgsubr
            return
          </CharString>
          <CharString index="63">
            vhcurveto
            -11 16 -3 46 36 119 5 -99 callgsubr
          </CharString>
          <CharString index="64">
            vvcurveto
            -130 146 -86 109 20 20 2 5 18 vhcurveto
            6 -13 2 -13 -13 vvcurveto
            -36 -28 -25 -39 -5 vhcurveto
            -39 7 34 -25 33 hhcurveto
            53 28 37 47 38 -18 38 -28 33 hvcurveto
            25 18 16 27 36 vvcurveto
            46 -35 40 -41 -38 -29 -29 -40 -11 2 -11 5 -11 vhcurveto
            -9 -18 -22 -4 -27 hhcurveto
            -59 -44 39 52 return
          </CharString>
          <CharString index="65">
            -4 -36 callsubr
            4 9 callgsubr
            return
          </CharString>
          <CharString index="66">
            662 109 callgsubr
            27 -23 8 -9 -79 vvcurveto
            -69 348 callsubr
            -59 -35 -69 -42 -71 77 callsubr
            return
          </CharString>
          <CharString index="67">
            hhcurveto
            -49 -43 33 -43 callgsubr
            return
          </CharString>
          <CharString index="68">
            vvcurveto
            -42 2 -89 86 -50 callsubr
            return
          </CharString>
          <CharString index="69">
            -10 -13 16 vhcurveto
            -12 -22 -14 -28 -42 vvcurveto
            -49 28 -49 return
          </CharString>
          <CharString index="70">
            68 -26 96 callgsubr
            -252 vlineto
            -58 -22 -40 -29 -51 hhcurveto
            -63 -25 34 54 hvcurveto
            248 59 callgsubr
            return
          </CharString>
          <CharString index="71">
            96 callsubr
            12 vhcurveto
            -10 165 callsubr
            119 return
          </CharString>
          <CharString index="72">
            -33 callgsubr
            64 2 return
          </CharString>
          <CharString index="73">
            -29 -28 -18 -40 -48 vvcurveto
            -134 132 -106 144 369 callgsubr
            -3 10 -3 7 vhcurveto
            -3 -15 -16 -2 -16 hhcurveto
            -96 -96 314 callgsubr
            209 callgsubr
            hvcurveto
            -44 5 37 -21 37 hhcurveto
            51 38 40 53 76 -84 94 -117 -32 -31 -7 -12 -26 hvcurveto
            -9 14 -6 15 16 vvcurveto
            30 20 29 53 vhcurveto
            29 26 -1 31 hhcurveto
            68 259 callsubr
            -28 27 86 callsubr
          </CharString>
          <CharString index="74">
            rmoveto
            -45 -37 42 100 -6 hvcurveto
            100 -7 35 42 45 hhcurveto
            45 36 -42 -100 6 hvcurveto
            -100 6 -34 -42 -44 hhcurveto
            111 -245 rmoveto
            33 14 -13 -20 -40 -54 -30 -111 -119 -45 38 69 -3 hvcurveto
            -42 -2 -40 -26 -49 vvcurveto
            -59 60 -67 168 165 113 80 110 78 -46 51 -102 vhcurveto
            -128 hlineto
            -59 -27 8 33 18 12 11 19 7 hvcurveto
            -8 23 25 -4 26 hhcurveto
            111 101 75 127 54 -19 45 -30 33 hvcurveto
            29 8 22 18 26 hhcurveto
            17 18 -6 -11 14 hvcurveto
            17 10 11 24 25 vvcurveto
            36 -27 35 -49 -50 -45 -44 -79 -6 vhcurveto
            21 -35 -41 11 -43 hhcurveto
            -112 -101 -75 -126 -73 33 -55 49 -35 hvcurveto
            -45 -22 -31 -31 -50 vvcurveto
            -87 88 -34 90 vhcurveto
            endchar
          </CharString>
          <CharString index="75">
            -75 callgsubr
            165 hlineto
            return
          </CharString>
          <CharString index="76">
            rmoveto
            88 -81 rlineto
            -12 13 14 -5 12 hhcurveto
            17 13 8 14 6 hvcurveto
            -71 105 rlineto
            40 -27 -21 25 -44 hhcurveto
            -45 -21 -25 -40 -27 hvcurveto
            -71 -105 rlineto
            -14 6 14 -8 15 hhcurveto
            13 14 5 12 13 hvcurveto
            return
          </CharString>
          <CharString index="77">
            rmoveto
            192 callgsubr
            return
          </CharString>
          <CharString index="78">
            -70 callgsubr
            54 48 22 return
          </CharString>
          <CharString index="79">
            46 36 119 5 -93 callgsubr
            endchar
          </CharString>
          <CharString index="80">
            rmoveto
            -65 -65 -60 -82 -54 -58 32 67 77 67 35 64 34 vhcurveto
            76 -10 52 -48 -62 vvcurveto
            -435 409 328 callgsubr
            -10 7 -13 -13 -81 -238 -2 -179 vvcurveto
            -117 132 -104 116 112 95 68 114 81 -59 87 -110 13 vhcurveto
            30 21 20 24 36 vvcurveto
            32 -18 25 -21 18 111 callgsubr
          </CharString>
          <CharString index="81">
            -56 -4 callsubr
            return
          </CharString>
          <CharString index="82">
            -27 -38 -21 -33 hhcurveto
            -58 -18 39 54 -34 callgsubr
            return
          </CharString>
          <CharString index="83">
            -23 callgsubr
            vvcurveto
            return
          </CharString>
          <CharString index="84">
            103 callsubr
            -66 -51 -47 -66 29 callsubr
            vhcurveto
            -115 -218 -17 -77 vvcurveto
            return
          </CharString>
          <CharString index="85">
            -26 32 27 callsubr
            150 callsubr
            return
          </CharString>
          <CharString index="86">
            9 13 1 5 13 vhcurveto
            -10 16 -4 46 36 119 5 159 callgsubr
            -35 20 callgsubr
          </CharString>
          <CharString index="87">
            hlineto
            2 5 4 89 callgsubr
          </CharString>
          <CharString index="88">
            -93 callsubr
            -59 49 -13 38 -2 vhcurveto
            return
          </CharString>
          <CharString index="89">
            32 -12 17 -25 -33 vvcurveto
            -37 -13 -30 -27 -22 vhcurveto
            -12 5 12 -8 18 hhcurveto
            56 63 66 71 return
          </CharString>
          <CharString index="90">
            vhcurveto
            -10 16 -4 46 36 vvcurveto
            return
          </CharString>
          <CharString index="91">
            162 callsubr
            -40 -3 -47 -10 -52 vvcurveto
            return
          </CharString>
          <CharString index="92">
            hvcurveto
            64 2 -11 61 vvcurveto
            35 -1 -83 callgsubr
            return
          </CharString>
          <CharString index="93">
            166 -105 callsubr
          </CharString>
          <CharString index="94">
            49 44 33 57 hvcurveto
            37 hlineto
            -7 callsubr
            return
          </CharString>
          <CharString index="95">
            rmoveto
            13 -20 1 157 callgsubr
            -46 22 callgsubr
            return
          </CharString>
          <CharString index="96">
            rmoveto
            28 -24 32 3 13 26 -67 107 rcurveline
            57 -34 -27 23 -43 hhcurveto
            -52 -27 -50 -51 22 hvcurveto
            23 7 20 -3 26 -21 rrcurveto
            return
          </CharString>
          <CharString index="97">
            24 vhcurveto
            -14 callsubr
          </CharString>
          <CharString index="98">
            -55 callgsubr
            59 -80 callsubr
            return
          </CharString>
          <CharString index="99">
            -124 109 -151 51 16 11 10 10 5 return
          </CharString>
          <CharString index="100">
            3 405 callsubr
            -253 hlineto
            -2 -5 -2 -10 -7 vvcurveto
            -58 49 -17 43 17 21 4 5 19 vhcurveto
            -10 -17 -5 -19 -20 vvcurveto
            return
          </CharString>
          <CharString index="101">
            173 callgsubr
            32 92 callgsubr
            18 -52 return
          </CharString>
          <CharString index="102">
            -27 -6 7 -10 22 hhcurveto
            16 hlineto
            41 22 -17 -26 -29 -27 -17 -47 -49 -49 19 39 -28 hvcurveto
            -11 -7 -8 -13 -14 vvcurveto
            -43 65 -43 92 104 70 48 60 59 -51 28 -69 vhcurveto
            return
          </CharString>
          <CharString index="103">
            hhcurveto
            -55 -40 128 callgsubr
            139 return
          </CharString>
          <CharString index="104">
            -99 callsubr
            -221 hlineto
            -3 -5 -1 136 callsubr
            15 1 1 18 vhcurveto
            47 callsubr
            return
          </CharString>
          <CharString index="105">
            -18 3 -21 -58 vvcurveto
            return
          </CharString>
          <CharString index="106">
            rmoveto
            17 8 10 12 16 167 callsubr
            -58 -132 -90 -58 -27 16 -25 33 -11 vhcurveto
            231 callsubr
            -110 -7 7 hvcurveto
            -174 45 -48 callsubr
            return
          </CharString>
          <CharString index="107">
            hhcurveto
            -58 -18 39 54 -15 callsubr
            return
          </CharString>
          <CharString index="108">
            3 -106 callgsubr
            return
          </CharString>
          <CharString index="109">
            338 callsubr
            -57 -1 -50 -1 -45 vhcurveto
            -56 -38 -76 -24 -57 hhcurveto
            -54 1 callgsubr
            return
          </CharString>
          <CharString index="110">
            17 4 callsubr
            return
          </CharString>
          <CharString index="111">
            vvcurveto
            24 callgsubr
            return
          </CharString>
          <CharString index="112">
            rmoveto
            69 -25 29 -105 -121 -40 -13 -42 -11 5 -22 10 -15 vhcurveto
            2 36 36 1 33 hhcurveto
            42 -86 hlineto
            -75 -18 -48 -37 -84 hhcurveto
            -130 -77 101 168 1 hvcurveto
            184 2 85 114 136 hhcurveto
            79 45 -47 -71 -8 hvcurveto
            -12 20 21 -4 19 hhcurveto
            49 42 30 42 76 -101 65 -139 -246 -143 -170 -234 -230 161 -114 150 84 63 35 47 36 hvcurveto
            -76 300 callgsubr
          </CharString>
          <CharString index="113">
            rmoveto
            43 40 40 44 34 -24 26 -36 -42 -42 -40 -43 -34 25 -27 36 hvcurveto
            -185 hmoveto
            44 40 40 44 34 -25 26 -36 -41 -42 -40 -43 -34 24 -27 36 hvcurveto
            return
          </CharString>
          <CharString index="114">
            hhcurveto
            -63 -33 -48 -53 -56 33 -58 50 9 326 callsubr
            hvcurveto
            35 callsubr
            return
          </CharString>
          <CharString index="115">
            0 17 3 callsubr
            return
          </CharString>
          <CharString index="116">
            hhcurveto
            -51 -33 -34 -38 -39 31 -27 24 -7 hvcurveto
            27 13 26 20 30 hhcurveto
            39 23 -30 -34 -44 -37 -48 -70 -117 -65 133 90 -33 hvcurveto
            -17 -1 -21 -10 -31 vvcurveto
            -61 105 -220 180 return
          </CharString>
          <CharString index="117">
            rmoveto
            -52 callsubr
            237 vlineto
            75 16 39 26 32 hhcurveto
            29 21 -19 -33 -8 -1 -7 -2 -10 hvcurveto
            -1 9 8 -1 8 hhcurveto
            53 28 34 52 57 -42 38 -63 -63 -45 -34 -65 -27 hvcurveto
            67 -22 callsubr
            endchar
          </CharString>
          <CharString index="118">
            vvcurveto
            -49 18 62 callsubr
            return
          </CharString>
          <CharString index="119">
            97 rmoveto
            -63 callgsubr
            return
          </CharString>
          <CharString index="120">
            3 -104 callsubr
            return
          </CharString>
          <CharString index="121">
            hhcurveto
            -20 25 callgsubr
            return
          </CharString>
          <CharString index="122">
            238 callgsubr
            -70 -1 vhcurveto
            return
          </CharString>
          <CharString index="123">
            565 -56 callsubr
            return
          </CharString>
          <CharString index="124">
            -93 callsubr
            -27 12 -17 19 -16 vhcurveto
            return
          </CharString>
          <CharString index="125">
            rmoveto
            -65 callgsubr
            171 -85 callsubr
          </CharString>
          <CharString index="126">
            97 84 callsubr
            return
          </CharString>
          <CharString index="127">
            -67 25 -33 57 60 callgsubr
            return
          </CharString>
          <CharString index="128">
            72 610 594 rmoveto
            82 -101 64 -154 -140 -125 -75 -124 vhcurveto
            -208 411 -5 -146 vvcurveto
            -65 -63 -43 -89 -91 -52 39 44 22 10 19 14 14 vhcurveto
            16 -17 -24 12 -31 hhcurveto
            -42 -42 -31 -53 -98 121 -68 154 151 130 87 128 hvcurveto
            212 -411 16 134 vvcurveto
            77 callgsubr
            hvcurveto
            return
          </CharString>
          <CharString index="129">
            rmoveto
            -5 -17 -17 -2 -16 hhcurveto
            -60 -50 32 59 48 callsubr
            return
          </CharString>
          <CharString index="130">
            vvcurveto
            -62 60 -42 87 84 57 41 38 9 -3 8 -5 7 vhcurveto
            -20 -30 -30 -7 -28 hhcurveto
            -29 -29 11 33 return
          </CharString>
          <CharString index="131">
            334 callgsubr
            -80 return
          </CharString>
          <CharString index="132">
            rmoveto
            34 -24 26 -36 -42 -42 -40 -43 -34 25 -27 36 43 40 40 44 vhcurveto
            -184 hmoveto
            34 -25 26 -36 -41 -42 -40 -43 -34 24 -27 36 44 40 40 44 vhcurveto
            return
          </CharString>
          <CharString index="133">
            -107 callgsubr
            -75 hlineto
            -6 19 -4 return
          </CharString>
          <CharString index="134">
            -57 80 callgsubr
            return
          </CharString>
          <CharString index="135">
            10 -11 5 -16 -16 return
          </CharString>
          <CharString index="136">
            26 callgsubr
            26 38 40 34 17 -27 -26 return
          </CharString>
          <CharString index="137">
            rmoveto
            1 callsubr
            -565 103 callgsubr
            277 105 callsubr
            45 30 39 51 12 hvcurveto
            15 4 17 3 19 -71 callsubr
            -91 65 -79 76 -17 vhcurveto
            -44 -22 -52 -20 -51 -11 rrcurveto
            -43 4 34 -31 50 hhcurveto
            42 103 52 94 78 hvcurveto
            -5 -26 -3 -27 -28 143 callgsubr
          </CharString>
          <CharString index="138">
            380 777 87 callsubr
            39 19 36 398 callgsubr
            242 callgsubr
            -221 hlineto
            -3 -5 -1 136 callsubr
            15 1 1 18 vhcurveto
            -15 -23 -5 -25 -23 49 callgsubr
            -28 -34 vvcurveto
            return
          </CharString>
          <CharString index="139">
            rmoveto
            12 -23 callgsubr
            -57 -1 -48 -43 vvcurveto
            -37 -31 -39 -19 -33 hhcurveto
            -43 -28 31 61 -34 callgsubr
            490 hmoveto
            -99 callsubr
            -582 hlineto
            121 callsubr
            64 1 65 2 64 vhcurveto
            52 31 45 41 54 hhcurveto
            35 31 -20 -42 6 hvcurveto
            24 326 callgsubr
            47 -59 67 -83 -46 -38 -17 -28 -28 vhcurveto
            3 18 1 19 24 300 callsubr
          </CharString>
          <CharString index="140">
            3 -59 45 callsubr
            return
          </CharString>
          <CharString index="141">
            7 callgsubr
            vhcurveto
            return
          </CharString>
          <CharString index="142">
            -10 15 -4 31 callgsubr
            return
          </CharString>
          <CharString index="143">
            87 callgsubr
            0 -41 -36 return
          </CharString>
          <CharString index="144">
            190 callgsubr
            -50 callsubr
            167 -105 callsubr
          </CharString>
          <CharString index="145">
            -55 callgsubr
            263 hlineto
            17 -11 8 -17 -14 vvcurveto
            -19 -19 -12 -33 vhcurveto
            -27 -19 1 -20 hhcurveto
            -87 -51 -41 -70 -93 89 -81 91 hvcurveto
            32 32 5 20 hhcurveto
            31 19 -16 -24 -46 -70 -27 229 callsubr
            41 -41 58 -26 hvcurveto
            -106 35 61 -106 97 hhcurveto
            46 34 27 39 22 -11 21 -18 13 hvcurveto
            -16 -18 -23 -5 -17 hhcurveto
            -53 -41 42 48 -27 hvcurveto
            -6 27 29 -3 29 hhcurveto
            98 74 54 86 99 -89 70 -87 hvcurveto
            -26 -32 -7 -24 hhcurveto
            -32 -25 16 26 43 64 5 32 hvcurveto
            19 24 -1 21 hhcurveto
            74 33 38 46 29 -13 31 -26 26 hvcurveto
            174 -107 callgsubr
            return
          </CharString>
          <CharString index="146">
            rmoveto
            19 26 10 27 22 vvcurveto
            38 -31 27 -50 -29 -22 -8 -11 -23 vhcurveto
            24 -25 3 -35 -30 -38 -131 -184 rcurveline
            -130 221 rlineto
            47 -28 -29 33 -46 hhcurveto
            -39 -32 -20 -48 -15 hvcurveto
            25 -2 19 -13 17 -26 184 -311 rcurveline
            -1 -223 rlineto
            -69 30 -33 47 30 19 6 10 20 vhcurveto
            -11 17 -7 30 26 vvcurveto
            1 238 rlineto
            endchar
          </CharString>
          <CharString index="147">
            248 callsubr
            -452 97 rmoveto
            69 callgsubr
            return
          </CharString>
          <CharString index="148">
            hhcurveto
            36 39 19 36 398 callgsubr
            -28 -27 -7 -14 -25 hvcurveto
            -6 14 -3 16 16 vvcurveto
            53 39 47 62 42 callsubr
            return
          </CharString>
          <CharString index="149">
            vhcurveto
            13 hlineto
            -3 callsubr
            return
          </CharString>
          <CharString index="150">
            59 callsubr
            -598 hlineto
            32 callgsubr
            -44 33 -38 44 -18 hvcurveto
            44 -126 279 callgsubr
            -75 6 rrcurveto
            -66 -12 47 -31 64 hhcurveto
            132 356 95 247 99 -60 104 -113 -94 callsubr
            endchar
          </CharString>
          <CharString index="151">
            rmoveto
            13 51 callsubr
            return
          </CharString>
          <CharString index="152">
            2 rrcurveto
            15 8 callsubr
            return
          </CharString>
          <CharString index="153">
            rmoveto
            111 73 108 112 98 -57 91 -99 -112 -66 -112 -107 -101 54 -89 96 hvcurveto
            16 324 rmoveto
            39 23 -62 -61 -73 -29 -44 -35 -39 -24 61 61 69 26 49 39 hvcurveto
            -35 -582 rmoveto
            -12 -18 -22 -25 -11 -6 rrcurveto
            -31 17 22 -2 12 hhcurveto
            34 23 34 20 14 hvcurveto
            437 615 13 18 16 25 16 6 rlinecurve
            26 -16 -23 5 -13 hhcurveto
            -34 -26 -35 -16 -12 hvcurveto
            24 -697 rmoveto
            111 73 109 112 97 -57 92 -99 -112 -66 -113 -107 -101 54 -89 96 hvcurveto
            16 323 rmoveto
            39 23 -61 -61 -73 -29 -43 -35 -39 -24 60 62 68 26 48 39 hvcurveto
            endchar
          </CharString>
          <CharString index="154">
            -15 -23 -5 -25 -23 49 callgsubr
            -28 -34 vvcurveto
            return
          </CharString>
          <CharString index="155">
            154 callgsubr
            -214 297 rmoveto
            -63 callgsubr
            return
          </CharString>
          <CharString index="156">
            -33 -31 -46 -26 -62 hhcurveto
            -74 -62 55 116 121 60 74 60 37 18 -25 -33 -7 -1 -11 -2 -8 hvcurveto
            -10 14 19 -7 22 hhcurveto
            39 31 24 44 return
          </CharString>
          <CharString index="157">
            37 1 26 20 28 41 44 -56 64 hhcurveto
            59 52 43 56 30 -15 19 -23 3 hvcurveto
            -38 -2 -25 -19 -27 return
          </CharString>
          <CharString index="158">
            -20 1 15 callgsubr
            return
          </CharString>
          <CharString index="159">
            54 callsubr
            53 return
          </CharString>
          <CharString index="160">
            -49 callsubr
            endchar
          </CharString>
          <CharString index="161">
            -5 callgsubr
            -690 -77 callgsubr
            510 231 callgsubr
            99 -31 -68 7 -210 hhcurveto
            -107 -60 -42 -77 -92 callgsubr
            hvcurveto
            123 hlineto
            15 12 1 2 10 hvcurveto
            325 callgsubr
            -19 rrcurveto
            72 callsubr
            return
          </CharString>
          <CharString index="162">
            hhcurveto
            -16 -20 52 callgsubr
            return
          </CharString>
          <CharString index="163">
            -85 86 -85 -50 -41 -27 -41 -17 vhcurveto
            57 -6 -61 5 -37 hhcurveto
            -342 -55 callgsubr
            336 hlineto
            201 callgsubr
            27 38 39 34 17 -27 -26 -101 -158 -22 -37 return
          </CharString>
          <CharString index="164">
            rmoveto
            -41 -26 -19 -29 -10 4 -8 3 -4 hvcurveto
            300 hlineto
            40 27 19 29 10 -3 8 -4 4 hvcurveto
            return
          </CharString>
          <CharString index="165">
            -64 callsubr
            166 hlineto
            2 5 return
          </CharString>
          <CharString index="166">
            rmoveto
            -99 callsubr
            return
          </CharString>
          <CharString index="167">
            208 callgsubr
            50 17 13 1 1 12 vhcurveto
            -11 -23 -5 -23 -22 49 callgsubr
            -29 -34 vvcurveto
            return
          </CharString>
          <CharString index="168">
            112 callgsubr
            -20 0 return
          </CharString>
          <CharString index="169">
            -50 63 9 13 1 5 13 -17 callsubr
            return
          </CharString>
          <CharString index="170">
            565 rmoveto
            -65 callsubr
            return
          </CharString>
          <CharString index="171">
            -12 callgsubr
            25 22 vhcurveto
            -5 -26 -3 -27 -27 11 callsubr
            return
          </CharString>
          <CharString index="172">
            rmoveto
            -43 -27 3 13 -28 hvcurveto
            -12 -13 -10 -20 -17 vvcurveto
            -36 17 -28 64 vhcurveto
            140 -541 hlineto
            20 callsubr
            544 101 vlineto
            44 28 -4 -13 27 hvcurveto
            279 callsubr
            -17 29 -64 vhcurveto
            endchar
          </CharString>
          <CharString index="173">
            rmoveto
            21 callgsubr
            return
          </CharString>
          <CharString index="174">
            262 callgsubr
            -34 -26 179 callsubr
            -9 10 -19 -29 vvcurveto
            return
          </CharString>
          <CharString index="175">
            129 callgsubr
            -58 0 -2 -81 vvcurveto
            return
          </CharString>
          <CharString index="176">
            565 rmoveto
            11 -24 8 -59 -53 vvcurveto
            -108 -23 -60 -56 -50 -18 43 54 -4 vhcurveto
            -2 32 0 100 callsubr
            return
          </CharString>
          <CharString index="177">
            -3 hlineto
            -56 33 -58 50 9 326 callsubr
            vhcurveto
            35 callsubr
            return
          </CharString>
          <CharString index="178">
            289 callgsubr
            54 31 21 -10 407 callsubr
            269 callsubr
            return
          </CharString>
          <CharString index="179">
            -53 callsubr
            -4 15 -5 368 callgsubr
            -86 -35 64 72 -21 hvcurveto
            1 hlineto
            return
          </CharString>
          <CharString index="180">
            -137 114 29 callgsubr
            15 return
          </CharString>
          <CharString index="181">
            267 callsubr
            21 -51 63 184 callgsubr
            10 vhcurveto
            -10 16 -3 46 36 119 5 -99 callgsubr
          </CharString>
          <CharString index="182">
            -30 callgsubr
            91 callsubr
            return
          </CharString>
          <CharString index="183">
            -104 callgsubr
            33 hlineto
            8 -11 3 -23 2 -33 rrcurveto
            1 -14 -1 return
          </CharString>
          <CharString index="184">
            66 callgsubr
            13 -84 callgsubr
            return
          </CharString>
          <CharString index="185">
            4 callsubr
            -585 -77 callgsubr
            396 hlineto
            162 callsubr
            -29 -2 -33 -6 -16 -23 rrcurveto
            58 -54 -74 36 -74 hhcurveto
            -94 -55 -47 -73 -92 callgsubr
            hvcurveto
            156 46 -160 84 hhcurveto
            37 19 30 65 8 hvcurveto
            return
          </CharString>
          <CharString index="186">
            97 rmoveto
            -3 -93 callsubr
            return
          </CharString>
          <CharString index="187">
            23 -49 164 callsubr
            return
          </CharString>
          <CharString index="188">
            -74 callgsubr
            163 -85 callsubr
          </CharString>
          <CharString index="189">
            74 hhcurveto
            106 68 63 74 8 hvcurveto
            -23 23 29 -15 35 hhcurveto
            49 299 callgsubr
            -20 hvcurveto
            30 20 18 29 40 vvcurveto
            44 -31 43 -43 -38 -30 -29 -40 -14 3 -13 5 -12 vhcurveto
            -11 -26 -30 -4 -32 hhcurveto
            -58 -76 20 63 hvcurveto
            126 318 212 callgsubr
            207 -85 callsubr
          </CharString>
          <CharString index="190">
            -104 callgsubr
            76 hlineto
            30 -27 25 -41 -46 vvcurveto
            -20 -4 -23 -10 -14 vhcurveto
            27 -15 -25 14 190 callsubr
            60 49 42 83 66 -30 66 -45 46 hvcurveto
            return
          </CharString>
          <CharString index="191">
            -104 callgsubr
            59 -80 callsubr
            return
          </CharString>
          <CharString index="192">
            rmoveto
            225 219 43 43 32 12 31 4 rlinecurve
            51 -3 -34 38 -51 hhcurveto
            -59 -38 -32 -103 -74 hvcurveto
            -177 -224 rlineto
            260 vlineto
            -38 callgsubr
            249 vlineto
            200 -242 rlineto
            -77 64 33 -27 52 hhcurveto
            47 42 41 59 hvcurveto
            -37 -4 -27 16 -42 41 rrcurveto
            endchar
          </CharString>
          <CharString index="193">
            hvcurveto
            177 -105 callsubr
          </CharString>
          <CharString index="194">
            -101 callgsubr
            -13 34 -19 27 vhcurveto
            -285 97 rmoveto
            -2 356 callgsubr
            28 callsubr
            vvcurveto
            -54 -52 -33 -46 -30 vhcurveto
            -63 -96 9 -150 -148 hhcurveto
            -45 -37 29 42 29 13 19 175 callgsubr
            return
          </CharString>
          <CharString index="195">
            hlineto
            15 -11 8 -14 -13 vvcurveto
            -21 -16 -12 return
          </CharString>
          <CharString index="196">
            -43 -38 -75 -48 -86 hhcurveto
            -129 -90 74 193 188 97 98 98 76 34 -47 -70 -11 hvcurveto
            -11 19 22 -4 19 hhcurveto
            49 42 21 53 return
          </CharString>
          <CharString index="197">
            108 callsubr
            -42 -52 23 -49 hhcurveto
            return
          </CharString>
          <CharString index="198">
            -73 -49 49 73 -32 hvcurveto
            113 1 return
          </CharString>
          <CharString index="199">
            -24 15 -30 -29 vvcurveto
            -36 return
          </CharString>
          <CharString index="200">
            hhcurveto
            -56 -43 35 119 callgsubr
            return
          </CharString>
          <CharString index="201" raw="1">
            f50a981e 0b  
          </CharString>
          <CharString index="202">
            662 rmoveto
            -63 callgsubr
            return
          </CharString>
          <CharString index="203">
            275 callgsubr
            3 -89 85 9 13 1 5 return
          </CharString>
          <CharString index="204">
            -2 -93 callsubr
            -68 66 350 callsubr
            -56 -7 -7 1 1 -7 vhcurveto
            46 -14 -20 26 -35 hhcurveto
            -31 -20 -27 -28 -49 39 -33 46 -19 hvcurveto
            -80 28 56 -120 105 hhcurveto
            49 20 34 29 15 -4 16 -7 12 hvcurveto
            -5 -15 -16 -1 -15 hhcurveto
            -59 -47 31 53 -29 hvcurveto
            -1 6 6 0 6 hhcurveto
            84 73 53 89 47 -22 46 -34 36 hvcurveto
            return
          </CharString>
          <CharString index="205">
            -21 callgsubr
            188 hlineto
            13 -20 1 -41 -36 -156 118 callsubr
            35 -2 50 -33 24 vhcurveto
            164 -107 callgsubr
            endchar
          </CharString>
          <CharString index="206">
            rmoveto
            40 27 19 29 10 -3 8 -4 4 hvcurveto
            -300 hlineto
            -41 -26 -19 -29 -10 4 -8 3 -4 hvcurveto
            return
          </CharString>
          <CharString index="207">
            33 33 -90 callsubr
            return
          </CharString>
          <CharString index="208">
            238 callgsubr
            -71 -1 vhcurveto
            -1 hlineto
            101 -33 -69 6 -142 -42 callgsubr
            32 63 vhcurveto
            73 hlineto
            325 callgsubr
            -18 rrcurveto
            72 callgsubr
            return
          </CharString>
          <CharString index="209">
            526 565 rmoveto
            -107 callsubr
            -480 377 callsubr
            return
          </CharString>
          <CharString index="210">
            hvcurveto
            44 193 23 144 vvcurveto
            103 -85 86 -85 return
          </CharString>
          <CharString index="211">
            hlineto
            111 callsubr
            return
          </CharString>
          <CharString index="212">
            hlineto
            115 callgsubr
            return
          </CharString>
          <CharString index="213">
            333 callsubr
            18 146 callsubr
            13 1 5 return
          </CharString>
          <CharString index="214">
            hlineto
            16 -11 9 -16 -14 vvcurveto
            -23 -23 -9 -30 vhcurveto
            -29 return
          </CharString>
          <CharString index="215">
            17 -25 -29 9 -32 hhcurveto
            -46 -41 270 callgsubr
            return
          </CharString>
          <CharString index="216">
            87 callgsubr
            1 -41 -36 return
          </CharString>
          <CharString index="217">
            662 rmoveto
            -3 -5 return
          </CharString>
          <CharString index="218">
            118 callgsubr
            -50 29 -60 return
          </CharString>
          <CharString index="219">
            16 331 callsubr
            vhcurveto
            49 callsubr
            return
          </CharString>
          <CharString index="220">
            16 23 18 hvcurveto
            -20 10 -10 18 30 vvcurveto
            return
          </CharString>
          <CharString index="221">
            -118 -69 callsubr
            246 100 callgsubr
            -29 hhcurveto
            -100 -39 -52 -61 -43 return
          </CharString>
          <CharString index="222">
            8 14 1 5 12 vhcurveto
            -10 16 -3 46 36 119 4 122 265 callsubr
          </CharString>
          <CharString index="223">
            28 callsubr
            vvcurveto
            return
          </CharString>
          <CharString index="224">
            -55 callsubr
            endchar
          </CharString>
          <CharString index="225">
            -5 -36 callsubr
            5 9 callgsubr
            return
          </CharString>
          <CharString index="226">
            -55 -25 55 -77 hhcurveto
            -53 -51 -44 -55 -37 21 -13 17 -1 hvcurveto
            return
          </CharString>
          <CharString index="227">
            -5 -28 325 callsubr
            return
          </CharString>
          <CharString index="228">
            62 callgsubr
            -12 3 -20 1 -31 rrcurveto
            1 -56 -1 2 -69 vvcurveto
            -62 53 -76 76 -36 vhcurveto
            -53 -28 -58 -23 -47 -10 rrcurveto
            -44 303 callsubr
            33 100 41 98 93 hvcurveto
            -6 -31 -2 -32 -32 -56 callgsubr
            return
          </CharString>
          <CharString index="229">
            90 callgsubr
            100 291 callgsubr
            return
          </CharString>
          <CharString index="230">
            hhcurveto
            52 24 -34 -54 hvcurveto
            -244 vlineto
            -67 26 -33 56 return
          </CharString>
          <CharString index="231">
            398 callgsubr
            -28 183 callsubr
            13 -3 return
          </CharString>
          <CharString index="232">
            -48 -69 hhcurveto
            -60 -47 151 callgsubr
          </CharString>
          <CharString index="233">
            254 callsubr
            8 -7 6 -8 -10 -70 -319 40 -179 return
          </CharString>
          <CharString index="234">
            -21 150 callgsubr
            return
          </CharString>
          <CharString index="235">
            hhcurveto
            -38 -35 -16 -27 -27 -95 callgsubr
            20 -6 18 vhcurveto
            27 12 22 17 27 return
          </CharString>
          <CharString index="236">
            -58 44 -42 51 -21 return
          </CharString>
          <CharString index="237">
            449 rmoveto
            25 -28 -34 17 -43 hhcurveto
            -94 callsubr
            346 hlineto
            16 349 callgsubr
            return
          </CharString>
          <CharString index="238">
            hvcurveto
            44 194 23 144 vvcurveto
            103 -86 86 -84 -44 -37 -20 -33 -20 vhcurveto
            43 -14 -53 4 -34 hhcurveto
            -518 -55 callgsubr
            501 hlineto
            -3 282 callsubr
            -55 35 -52 302 callsubr
            -11 13 -5 18 20 vvcurveto
            39 26 38 39 34 17 -27 -26 return
          </CharString>
          <CharString index="239">
            -5 -29 -4 138 callgsubr
            return
          </CharString>
          <CharString index="240">
            rmoveto
            260 callsubr
            -23 -25 -10 vhcurveto
            32 -12 17 -25 -33 vvcurveto
            -38 -13 -29 253 callgsubr
          </CharString>
          <CharString index="241">
            -67 26 -33 56 60 callgsubr
            return
          </CharString>
          <CharString index="242">
            113 callsubr
            endchar
          </CharString>
          <CharString index="243">
            149 callsubr
            49 14 return
          </CharString>
          <CharString index="244">
            -2 -5 -2 -71 callgsubr
            136 callgsubr
            return
          </CharString>
          <CharString index="245">
            hhcurveto
            -32 -25 13 26 41 64 5 32 hvcurveto
            21 return
          </CharString>
          <CharString index="246">
            vvcurveto
            -51 -36 -34 -55 -7 -7 1 1 -7 vhcurveto
            45 -15 -19 27 -36 hhcurveto
            -31 -20 -27 -28 -49 40 -34 46 -18 hvcurveto
            -81 27 56 -119 106 hhcurveto
            49 19 34 29 15 -4 16 -6 12 211 callgsubr
            -15 hhcurveto
            -60 -46 31 53 -29 hvcurveto
            -1 6 6 0 6 hhcurveto
            83 73 53 89 return
          </CharString>
          <CharString index="247">
            175 callgsubr
            39 19 return
          </CharString>
          <CharString index="248">
            565 rmoveto
            13 return
          </CharString>
          <CharString index="249">
            -28 -1 -22 -26 vvcurveto
            -36 2 -74 70 8 10 1 4 11 vhcurveto
            -9 14 -3 39 30 19 1 18 19 vvcurveto
            130 -137 110 -128 -51 -47 -12 -22 -39 vhcurveto
            -12 16 -8 17 19 vvcurveto
            30 20 28 53 vhcurveto
            63 58 -1 65 hhcurveto
            68 35 38 45 32 -17 34 -28 26 hvcurveto
            return
          </CharString>
          <CharString index="250">
            -108 63 -51 172 211 173 125 248 250 -173 125 -211 -96 -78 -16 -29 -83 vhcurveto
            16 -24 7 -31 -35 vvcurveto
            return
          </CharString>
          <CharString index="251">
            -44 callgsubr
            endchar
          </CharString>
          <CharString index="252">
            156 callgsubr
            -69 33 callsubr
            return
          </CharString>
          <CharString index="253">
            388 callgsubr
            3 -89 85 9 return
          </CharString>
          <CharString index="254">
            109 callsubr
            vvcurveto
            return
          </CharString>
          <CharString index="255">
            -2 callsubr
            -57 -1 return
          </CharString>
          <CharString index="256">
            408 callgsubr
            43 -19 return
          </CharString>
          <CharString index="257">
            -10 10 -19 -30 vvcurveto
            return
          </CharString>
          <CharString index="258">
            rrcurveto
            15 8 callsubr
            -87 hmoveto
            15 224 callgsubr
            -18 -1 -17 vhcurveto
            -7 -58 -20 -36 -86 hhcurveto
            return
          </CharString>
          <CharString index="259">
            -104 callgsubr
            581 230 callsubr
            -51 -31 -46 -38 -51 93 callgsubr
            -34 36 -50 return
          </CharString>
          <CharString index="260">
            -1 -7 -3 -8 -8 -9 rrcurveto
            -18 -8 -22 -15 -27 hhcurveto
            -33 -22 24 27 36 33 31 57 hvcurveto
            return
          </CharString>
          <CharString index="261">
            247 callgsubr
            -65 -72 -31 -56 -32 vhcurveto
            -30 -53 -41 -35 -77 55 callsubr
            return
          </CharString>
          <CharString index="262">
            rmoveto
            13 -20 0 15 callgsubr
            return
          </CharString>
          <CharString index="263">
            vlineto
            67 callsubr
            return
          </CharString>
          <CharString index="264">
            vhcurveto
            127 callsubr
            return
          </CharString>
          <CharString index="265">
            419 rmoveto
            17 -25 -30 10 -32 hhcurveto
            -45 -42 -20 -32 -30 hvcurveto
            37 -42 -53 23 -49 hhcurveto
            -54 -45 -21 -44 -30 hvcurveto
            -48 -33 -22 -92 -77 hhcurveto
            -56 -19 48 45 -15 callsubr
            702 301 callsubr
            return
          </CharString>
          <CharString index="266">
            41 42 30 -14 30 -24 25 hvcurveto
            return
          </CharString>
          <CharString index="267">
            387 callsubr
            -36 -1 -33 vhcurveto
            -124 122 -61 64 -55 21 rrcurveto
            105 315 callsubr
            17 vhcurveto
            73 -62 83 -80 46 -47 rrcurveto
            -34 -32 -45 -21 -42 hhcurveto
            return
          </CharString>
          <CharString index="268">
            46 36 119 5 197 callgsubr
            return
          </CharString>
          <CharString index="269">
            15 -22 1 232 callgsubr
            return
          </CharString>
          <CharString index="270">
            34 -26 19 -46 -47 15 callsubr
            return
          </CharString>
          <CharString index="271">
            hhcurveto
            -92 -65 -62 -104 return
          </CharString>
          <CharString index="272">
            16 -3 46 36 return
          </CharString>
          <CharString index="273">
            -26 hvcurveto
            39 -42 -54 24 -50 164 callsubr
            -140 211 callsubr
            60 -88 callgsubr
            return
          </CharString>
          <CharString index="274">
            vvcurveto
            48 -148 126 -66 return
          </CharString>
          <CharString index="275">
            -7 -20 vvcurveto
            -59 140 -104 return
          </CharString>
          <CharString index="276">
            hhcurveto
            -107 -60 -42 -77 return
          </CharString>
          <CharString index="277">
            -67 hhcurveto
            -94 callsubr
            return
          </CharString>
          <CharString index="278">
            rmoveto
            11 -18 3 -29 -54 vvcurveto
            -19 -5 -17 -10 -14 vhcurveto
            -97 72 -88 59 -70 20 rrcurveto
            return
          </CharString>
          <CharString index="279">
            193 callsubr
            1 65 2 64 vhcurveto
            return
          </CharString>
          <CharString index="280">
            195 callsubr
            9 return
          </CharString>
          <CharString index="281">
            rmoveto
            40 25 32 40 38 18 -31 -28 -47 -28 -35 -40 -26 vhcurveto
            -32 26 -21 31 38 vvcurveto
            259 138 rmoveto
            -2 319 callsubr
            -55 -1 -45 -1 -40 vhcurveto
            -47 10 return
          </CharString>
          <CharString index="282">
            233 callsubr
            64 vhcurveto
            return
          </CharString>
          <CharString index="283">
            55 -26 -57 32 -62 hhcurveto
            -98 -60 -75 -82 -99 89 -111 107 66 38 39 49 27 hvcurveto
            -57 25 57 -31 63 hhcurveto
            return
          </CharString>
          <CharString index="284">
            -17 -24 -53 -47 vvcurveto
            -74 48 -63 36 9 7 5 5 3 vhcurveto
            return
          </CharString>
          <CharString index="285">
            23 14 24 33 14 hvcurveto
            -231 546 242 callsubr
            55 -38 vhcurveto
            -46 -17 -34 -35 -53 vvcurveto
            return
          </CharString>
          <CharString index="286">
            -16 -23 -17 vhcurveto
            20 return
          </CharString>
          <CharString index="287">
            237 callsubr
            -39 -2 -49 -11 346 callsubr
            251 callsubr
            vhcurveto
            return
          </CharString>
          <CharString index="288">
            -57 hhcurveto
            -29 -30 12 23 hvcurveto
            44 120 20 80 vvcurveto
            61 -57 87 -110 return
          </CharString>
          <CharString index="289">
            rmoveto
            120 -61 57 -89 -77 -68 -41 -70 -35 vhcurveto
            return
          </CharString>
          <CharString index="290">
            -28 -7 -14 -24 hvcurveto
            -6 return
          </CharString>
          <CharString index="291">
            565 340 callsubr
            -49 -1 -45 vhcurveto
            -57 -38 -77 -24 -56 hhcurveto
            -55 1 callgsubr
            -71 hmoveto
            116 callsubr
            return
          </CharString>
          <CharString index="292">
            -63 rmoveto
            67 -37 71 -48 56 -39 rrcurveto
            -34 -49 -68 -9 -13 hhcurveto
            -42 -12 33 71 20 -3 20 -3 11 hvcurveto
            return
          </CharString>
          <CharString index="293">
            hvcurveto
            -4 15 16 -2 return
          </CharString>
          <CharString index="294">
            -249 409 565 rmoveto
            -107 callsubr
            -350 hlineto
            137 callsubr
            -92 -154 -27 -59 vvcurveto
            return
          </CharString>
          <CharString index="295">
            -28 -18 -20 -26 return
          </CharString>
          <CharString index="296">
            -72 -19 -32 -78 vhcurveto
            -41 14 29 -35 61 hhcurveto
            67 55 46 111 hvcurveto
            return
          </CharString>
          <CharString index="297">
            -22 hhcurveto
            -30 -24 -20 -37 -67 64 -49 58 return
          </CharString>
          <CharString index="298">
            -13 3 -20 1 return
          </CharString>
          <CharString index="299">
            565 112 callgsubr
            return
          </CharString>
          <CharString index="300">
            -59 callsubr
            64 return
          </CharString>
          <CharString index="301">
            -74 callgsubr
            166 hlineto
            return
          </CharString>
          <CharString index="302">
            37 18 33 62 return
          </CharString>
          <CharString index="303">
            -104 callgsubr
            77 hlineto
            141 callgsubr
            -13 0 -13 -1 -13 vhcurveto
            -39 -2 -48 -11 -52 vvcurveto
            -47 60 -71 57 41 21 29 55 9 vhcurveto
            return
          </CharString>
          <CharString index="304">
            hlineto
            12 -24 callsubr
            -56 0 371 callsubr
            -77 -31 -64 -34 -54 hhcurveto
            -50 -43 301 callgsubr
            37 hlineto
            2 405 callsubr
            return
          </CharString>
          <CharString index="305">
            hhcurveto
            -52 -33 -35 -38 -34 28 -25 19 -6 hvcurveto
            27 13 27 20 30 hhcurveto
            28 17 -21 -24 -38 -40 -42 -69 -105 -59 104 77 -31 hvcurveto
            -17 -21 -10 -32 -50 97 -184 167 return
          </CharString>
          <CharString index="306">
            9 13 1 5 12 vhcurveto
            -10 16 -3 -64 callsubr
            163 -20 callsubr
          </CharString>
          <CharString index="307">
            -2 -60 callgsubr
            return
          </CharString>
          <CharString index="308">
            -22 228 callsubr
            43 114 -109 -7 7 hvcurveto
            17 163 callgsubr
            return
          </CharString>
          <CharString index="309">
            rmoveto
            -58 -132 -90 -58 -27 16 -25 33 -11 hvcurveto
            263 callsubr
            vhcurveto
            return
          </CharString>
          <CharString index="310">
            23 callsubr
            hvcurveto
            69 93 19 23 vvcurveto
            5 -6 5 -13 5 vhcurveto
            endchar
          </CharString>
          <CharString index="311">
            207 callsubr
            -47 -41 -29 -51 -28 vhcurveto
            -23 21 -16 28 32 vvcurveto
            return
          </CharString>
          <CharString index="312">
            hhcurveto
            -11 -11 1 2 -11 hvcurveto
            38 29 28 37 56 208 callsubr
            return
          </CharString>
          <CharString index="313">
            hlineto
            268 callsubr
            return
          </CharString>
          <CharString index="314">
            rmoveto
            52 35 32 38 33 25 -24 -37 return
          </CharString>
          <CharString index="315">
            vvcurveto
            97 -104 81 -85 -68 -68 -42 -86 return
          </CharString>
          <CharString index="316">
            280 callsubr
            8 hvcurveto
            return
          </CharString>
          <CharString index="317">
            -11 3 -19 2 -25 return
          </CharString>
          <CharString index="318">
            130 -140 return
          </CharString>
          <CharString index="319">
            233 callgsubr
            18 vhcurveto
            return
          </CharString>
          <CharString index="320">
            hlineto
            217 callsubr
            return
          </CharString>
          <CharString index="321">
            -85 -140 64 -87 hhcurveto
            -70 -52 -46 -61 -31 14 -21 22 -6 hvcurveto
            34 3 23 21 38 77 137 -64 97 hhcurveto
            70 52 46 60 29 -14 20 -22 10 hvcurveto
            return
          </CharString>
          <CharString index="322">
            127 callgsubr
            -54 407 callgsubr
            -63 359 callgsubr
            30 8 callgsubr
            return
          </CharString>
          <CharString index="323">
            hlineto
            13 -20 1 270 callsubr
            -5 96 callsubr
            return
          </CharString>
          <CharString index="324">
            13 171 callgsubr
            40 36 54 31 217 callgsubr
            hvcurveto
            7 269 callsubr
            return
          </CharString>
          <CharString index="325">
            hhcurveto
            -60 -47 396 callgsubr
            238 168 callgsubr
            -22 19 vhcurveto
            197 -85 callsubr
          </CharString>
          <CharString index="326">
            -17 -2 -16 223 callgsubr
            return
          </CharString>
          <CharString index="327">
            -26 -36 -40 -47 23 callsubr
            hvcurveto
            69 93 19 23 vvcurveto
            return
          </CharString>
          <CharString index="328">
            hhcurveto
            -56 -46 29 46 hvcurveto
            105 231 -18 111 vvcurveto
            30 -16 24 -21 17 vhcurveto
            202 -105 callsubr
          </CharString>
          <CharString index="329">
            196 634 -196 hlineto
            236 -185 rmoveto
            196 185 -196 hlineto
            return
          </CharString>
          <CharString index="330">
            -54 175 callsubr
            return
          </CharString>
          <CharString index="331">
            12 -23 callgsubr
            -53 -1 return
          </CharString>
          <CharString index="332">
            235 callgsubr
            -25 return
          </CharString>
          <CharString index="333">
            -110 100 -101 103 49 30 17 24 22 vhcurveto
            -5 -25 -3 -27 -27 vvcurveto
            -49 18 356 callsubr
            vvcurveto
            return
          </CharString>
          <CharString index="334">
            50 15 12 207 callgsubr
            return
          </CharString>
          <CharString index="335">
            232 callsubr
            288 callsubr
            return
          </CharString>
          <CharString index="336">
            -63 -28 -34 6 12 -20 hvcurveto
            42 -11 -28 44 -41 hhcurveto
            -29 -19 -23 -26 -54 return
          </CharString>
          <CharString index="337">
            301 callsubr
            -66 -1 -52 -1 -45 vhcurveto
            return
          </CharString>
          <CharString index="338">
            259 callgsubr
            43 114 return
          </CharString>
          <CharString index="339">
            rmoveto
            -58 -132 -89 -59 -27 16 -24 return
          </CharString>
          <CharString index="340">
            63 -33 273 callsubr
            return
          </CharString>
          <CharString index="341">
            hlineto
            13 -21 1 -45 -37 return
          </CharString>
          <CharString index="342">
            296 565 rmoveto
            11 -22 8 -56 -51 vvcurveto
            -75 -23 -56 -54 -68 -8 66 50 27 0 30 -5 27 vhcurveto
            -4 23 -9 23 -18 14 rrcurveto
            return
          </CharString>
          <CharString index="343">
            310 634 rmoveto
            7 -3 -12 14 -17 hhcurveto
            -59 -167 -175 -76 -74 167 -176 59 17 12 14 7 3 hvcurveto
            -92 115 return
          </CharString>
          <CharString index="344">
            70 callsubr
            -37 -1 -29 -1 -23 vhcurveto
            return
          </CharString>
          <CharString index="345">
            hhcurveto
            -109 -91 -50 -119 -123 109 -149 51 16 11 9 11 5 hvcurveto
            -54 62 -33 78 73 vvcurveto
            74 43 35 90 vhcurveto
            return
          </CharString>
          <CharString index="346">
            rmoveto
            -5 -17 219 callsubr
            return
          </CharString>
          <CharString index="347">
            -26 vvcurveto
            -54 17 -52 63 9 13 1 5 return
          </CharString>
          <CharString index="348">
            8 191 callsubr
            return
          </CharString>
          <CharString index="349">
            126 callsubr
            vvcurveto
            -52 38 -53 return
          </CharString>
          <CharString index="350">
            -1 -51 vhcurveto
            -55 12 -61 20 -54 26 rrcurveto
            37 37 27 44 49 vvcurveto
            102 -92 88 -91 -78 -61 -54 -80 -66 40 -56 60 -46 vhcurveto
            return
          </CharString>
          <CharString index="351">
            hvcurveto
            178 -105 callsubr
          </CharString>
          <CharString index="352">
            67 -72 43 -85 -154 -111 -131 -159 return
          </CharString>
          <CharString index="353">
            -11 5 -16 -16 vvcurveto
            -57 -61 -33 -42 -29 vhcurveto
            -61 return
          </CharString>
          <CharString index="354">
            -68 -41 -55 -63 -85 72 -63 51 14 12 6 11 8 vhcurveto
            -34 19 -25 43 36 vvcurveto
            35 17 28 33 42 23 -51 -50 -103 return
          </CharString>
          <CharString index="355">
            -45 -26 -6 -28 138 callsubr
            33 124 callgsubr
            return
          </CharString>
          <CharString index="356">
            -67 26 220 callgsubr
            return
          </CharString>
          <CharString index="357">
            -44 -36 -17 -27 -27 return
          </CharString>
          <CharString index="358">
            39 17 42 53 7 return
          </CharString>
          <CharString index="359">
            60 -38 43 vhcurveto
            return
          </CharString>
          <CharString index="360">
            -10 -13 hvcurveto
            -39 -140 -37 -61 vvcurveto
            -66 104 -97 108 56 44 20 26 32 vhcurveto
            -2 -13 -1 -12 -12 vvcurveto
            -47 return
          </CharString>
          <CharString index="361">
            rmoveto
            -89 callgsubr
            297 hlineto
            return
          </CharString>
          <CharString index="362">
            vvcurveto
            -49 19 -50 63 9 13 1 5 13 vhcurveto
            return
          </CharString>
          <CharString index="363">
            hlineto
            310 callsubr
            return
          </CharString>
          <CharString index="364">
            vvcurveto
            -17 0 -17 -1 -17 vhcurveto
            return
          </CharString>
          <CharString index="365">
            127 callgsubr
            vvcurveto
            return
          </CharString>
          <CharString index="366">
            34 37 45 33 -17 35 return
          </CharString>
          <CharString index="367">
            291 callsubr
            -37 -29 return
          </CharString>
          <CharString index="368">
            6 -53 -49 4 -45 hhcurveto
            return
          </CharString>
          <CharString index="369">
            97 264 callsubr
            return
          </CharString>
          <CharString index="370">
            231 callsubr
            -110 -7 7 hvcurveto
            17 8 10 12 16 167 callsubr
            return
          </CharString>
          <CharString index="371">
            rmoveto
            -2 24 callsubr
            -155 -4 275 callgsubr
            return
          </CharString>
          <CharString index="372">
            117 vvcurveto
            36 -2 49 -34 24 vhcurveto
            165 12 callgsubr
          </CharString>
          <CharString index="373">
            565 rmoveto
            1 callsubr
            return
          </CharString>
          <CharString index="374">
            183 callgsubr
            -25 -4 -27 -27 vvcurveto
            -50 return
          </CharString>
          <CharString index="375">
            136 callgsubr
            -92 -154 -27 -59 vvcurveto
            return
          </CharString>
          <CharString index="376">
            10 4 17 12 vvcurveto
            return
          </CharString>
          <CharString index="377">
            -41 -36 -156 return
          </CharString>
          <CharString index="378">
            24 379 285 callsubr
            return
          </CharString>
          <CharString index="379">
            565 rmoveto
            10 -13 4 -23 2 -25 rrcurveto
            return
          </CharString>
          <CharString index="380">
            80 74 400 callgsubr
            return
          </CharString>
          <CharString index="381">
            66 1 66 vhcurveto
            return
          </CharString>
          <CharString index="382">
            167 callgsubr
            210 callgsubr
            -10 -4 -13 168 callsubr
            return
          </CharString>
          <CharString index="383">
            27 -5 28 20 vvcurveto
            41 22 24 31 37 15 -33 -29 3 vhcurveto
            28 12 23 25 43 -39 56 -62 return
          </CharString>
          <CharString index="384">
            hhcurveto
            323 callgsubr
            hvcurveto
            -69 return
          </CharString>
          <CharString index="385">
            662 rmoveto
            2 9 0 10 11 return
          </CharString>
          <CharString index="386">
            11 13 10 20 17 vvcurveto
            36 return
          </CharString>
          <CharString index="387">
            hhcurveto
            195 callsubr
            return
          </CharString>
          <CharString index="388">
            -2 -49 -11 -52 vvcurveto
            return
          </CharString>
          <CharString index="389">
            0 -4 -3 vvcurveto
            return
          </CharString>
          <CharString index="390">
            hvcurveto
            -9 -4 -14 168 callsubr
            164 333 callgsubr
            88 -76 82 -96 vhcurveto
            return
          </CharString>
          <CharString index="391">
            -13 5 -23 1 -25 rrcurveto
            -46 177 callsubr
            return
          </CharString>
          <CharString index="392">
            6 callgsubr
            -27 12 -17 19 -16 vhcurveto
            27 -23 8 -9 -80 vvcurveto
            return
          </CharString>
          <CharString index="393">
            323 callsubr
            29 -55 return
          </CharString>
          <CharString index="394">
            17 -3 46 36 144 5 134 160 vvcurveto
            return
          </CharString>
          <CharString index="395">
            33 -12 391 callgsubr
            return
          </CharString>
          <CharString index="396">
            hlineto
            290 callsubr
            return
          </CharString>
          <CharString index="397">
            11 -9 7 -14 -15 return
          </CharString>
          <CharString index="398">
            56 -36 34 -51 return
          </CharString>
          <CharString index="399">
            -38 -13 -29 318 callsubr
            return
          </CharString>
          <CharString index="400">
            306 callsubr
            20 -4 return
          </CharString>
          <CharString index="401">
            hhcurveto
            -16 -19 52 callgsubr
            return
          </CharString>
          <CharString index="402">
            vvcurveto
            -6 2 -6 6 -4 vhcurveto
            2 9 14 1 10 hhcurveto
            79 38 -35 -41 -32 -29 return
          </CharString>
          <CharString index="403">
            rmoveto
            -43 -27 3 13 -29 hvcurveto
            -11 -13 -10 -20 -17 vvcurveto
            -36 17 -28 63 vhcurveto
            7 return
          </CharString>
          <CharString index="404">
            301 callsubr
            -62 -1 -52 -1 -48 vhcurveto
            -14 -28 -20 -23 -24 -17 return
          </CharString>
          <CharString index="405">
            28 33 vvcurveto
            285 151 rmoveto
            -89 callgsubr
            return
          </CharString>
          <CharString index="406">
            -28 26 244 callsubr
          </CharString>
          <CharString index="407">
            vvcurveto
            30 -7 117 callgsubr
            endchar
          </CharString>
          <CharString index="408">
            hlineto
            13 -24 callsubr
            return
          </CharString>
          <CharString index="409">
            51 8 7 2 2 4 vhcurveto
            return
          </CharString>
          <CharString index="410">
            3 35 -34 51 hhcurveto
            return
          </CharString>
          <CharString index="411">
            -46 -38 -17 -27 -28 return
          </CharString>
          <CharString index="412">
            9 191 callsubr
            return
          </CharString>
          <CharString index="413">
            vhcurveto
            142 -107 callgsubr
            -75 hlineto
            -6 return
          </CharString>
          <CharString index="414">
            -23 6 -22 hhcurveto
            -38 -37 -21 -37 -49 51 -26 54 25 24 5 9 23 hvcurveto
            return
          </CharString>
          <CharString index="415">
            387 callgsubr
            21 25 34 -33 31 -32 hvcurveto
            return
          </CharString>
          <CharString index="416">
            7 129 callgsubr
            return
          </CharString>
          <CharString index="417">
            16 224 callgsubr
            return
          </CharString>
          <CharString index="418">
            -29 -55 -12 rrcurveto
            -45 3 return
          </CharString>
          <CharString index="419">
            38 19 38 40 -42 25 return
          </CharString>
          <CharString index="420">
            hlineto
            9 -10 7 -13 -13 return
          </CharString>
          <CharString index="421">
            97 rmoveto
            -3 -5 return
          </CharString>
          <CharString index="422">
            -316 rmoveto
            -58 -18 39 54 hvcurveto
            62 1 -21 60 vvcurveto
            16 -2 17 -6 return
          </CharString>
          <CharString index="423">
            -87 -56 -44 -67 -84 95 -92 80 53 27 36 37 30 -18 28 -32 9 return
          </CharString>
          <CharString index="424">
            -10 rlinecurve
            -23 12 10 -16 34 hhcurveto
            56 36 33 67 20 hvcurveto
            26 87 rlineto
            return
          </CharString>
          <CharString index="425">
            -27 -22 vhcurveto
            -12 5 12 -8 18 hhcurveto
            56 63 66 71 291 callsubr
            return
          </CharString>
          <CharString index="426">
            24 callsubr
            vvcurveto
            return
          </CharString>
          <CharString index="427">
            338 callsubr
            -81 -1 -67 -1 -62 vhcurveto
            -63 -38 return
          </CharString>
          <CharString index="428">
            hlineto
            260 callgsubr
            -58 -35 -53 -71 -1 vhcurveto
            -1 hlineto
            101 -33 return
          </CharString>
          <CharString index="429">
            -80 -36 -80 -40 -63 405 callgsubr
            endchar
          </CharString>
          <CharString index="430">
            208 callsubr
            -53 return
          </CharString>
          <CharString index="431">
            19 19 2 4 18 return
          </CharString>
          <CharString index="432">
            -4 -32 -26 vvcurveto
            -54 return
          </CharString>
          <CharString index="433">
            7 2 2 3 return
          </CharString>
          <CharString index="434">
            -30 21 -46 41 61 vvcurveto
            41 25 42 57 37 27 -16 -22 21 vhcurveto
            return
          </CharString>
          <CharString index="435">
            -67 -62 -40 -67 -29 -27 6 11 -21 vhcurveto
            78 36 22 88 72 hhcurveto
            return
          </CharString>
          <CharString index="436">
            -37 30 -43 44 55 vvcurveto
            37 24 21 27 40 15 -37 -34 3 vhcurveto
            return
          </CharString>
          <CharString index="437">
            hvcurveto
            42 139 18 callgsubr
            -14 34 -18 27 vhcurveto
            endchar
          </CharString>
          <CharString index="438">
            -7 15 -12 6 return
          </CharString>
          <CharString index="439">
            6 38 hvcurveto
            30 return
          </CharString>
          <CharString index="440">
            -14 54 hhcurveto
            21 return
          </CharString>
          <CharString index="441">
            169 callsubr
            -89 105 -101 90 54 25 34 36 35 -21 return
          </CharString>
          <CharString index="442">
            -46 -47 238 callgsubr
            -71 -1 vhcurveto
            49 -13 -19 43 -46 hhcurveto
            return
          </CharString>
          <CharString index="443">
            10 6 6 13 15 vvcurveto
            39 -41 53 -83 -78 -61 -58 -80 vhcurveto
            return
          </CharString>
          <CharString index="444">
            -2 -63 -66 vvcurveto
            -42 3 -89 85 9 return
          </CharString>
          <CharString index="445">
            141 callsubr
            -2 callsubr
            return
          </CharString>
          <CharString index="446">
            -5 282 callsubr
            -40 34 -35 50 return
          </CharString>
          <CharString index="447">
            rmoveto
            14 148 callsubr
            return
          </CharString>
          <CharString index="448">
            565 rmoveto
            251 callgsubr
            vvcurveto
            return
          </CharString>
          <CharString index="449">
            280 callgsubr
            128 return
          </CharString>
          <CharString index="450">
            vvcurveto
            27 -15 25 -18 18 vhcurveto
            return
          </CharString>
          <CharString index="451">
            67 -26 33 -57 -33 -26 -16 return
          </CharString>
          <CharString index="452">
            121 hvcurveto
            -5 -28 -3 return
          </CharString>
          <CharString index="453">
            -52 349 callsubr
            return
          </CharString>
          <CharString index="454">
            50 49 16 31 33 return
          </CharString>
          <CharString index="455">
            -1 -57 -1 -51 vhcurveto
            return
          </CharString>
          <CharString index="456">
            vvcurveto
            -53 64 -78 61 return
          </CharString>
          <CharString index="457">
            -6 39 vhcurveto
            8 hlineto
            27 -22 14 -32 -33 vvcurveto
            -51 -36 -34 return
          </CharString>
          <CharString index="458">
            194 -104 callgsubr
            return
          </CharString>
          <CharString index="459">
            533 rmoveto
            -89 callgsubr
            return
          </CharString>
          <CharString index="460">
            hlineto
            -80 2 121 -119 126 173 callgsubr
            return
          </CharString>
          <CharString index="461">
            -94 vhcurveto
            -166 return
          </CharString>
          <CharString index="462">
            -5 -28 -3 -31 return
          </CharString>
          <CharString index="463">
            -50 64 9 13 1 5 12 vhcurveto
            -10 165 callsubr
            return
          </CharString>
          <CharString index="464">
            -13 8 -13 hhcurveto
            -53 -90 -84 -114 -63 40 -47 58 return
          </CharString>
          <CharString index="465">
            -48 49 73 -32 hvcurveto
            112 1 100 291 callgsubr
            return
          </CharString>
          <CharString index="466">
            -41 -37 -26 -46 -41 36 -40 52 33 25 17 28 7 return
          </CharString>
          <CharString index="467">
            rlineto
            -3 4 12 -2 8 hhcurveto
            69 14 63 47 hvcurveto
            -1 return
          </CharString>
          <CharString index="468">
            45 48 7 30 hhcurveto
            32 167 callgsubr
            return
          </CharString>
          <CharString index="469">
            hhcurveto
            -31 -24 -12 -18 -16 hvcurveto
            26 -21 -42 3 -28 hhcurveto
            return
          </CharString>
          <CharString index="470">
            -2 49 hhcurveto
            68 34 36 44 32 -17 33 -28 25 hvcurveto
            return
          </CharString>
          <CharString index="471">
            344 callsubr
            -22 return
          </CharString>
          <CharString index="472">
            17 12 vvcurveto
            48 -48 29 -57 -56 return
          </CharString>
          <CharString index="473">
            167 119 108 166 return
          </CharString>
          <CharString index="474" raw="1">
            f7ec1da2 0b  
          </CharString>
          <CharString index="475">
            19 43 313 callgsubr
            return
          </CharString>
          <CharString index="476">
            hlineto
            34 84 0 84 return
          </CharString>
          <CharString index="477">
            19 25 vvcurveto
            45 return
          </CharString>
          <CharString index="478">
            -48 -1 -44 vhcurveto
            return
          </CharString>
          <CharString index="479">
            -14 -46 hhcurveto
            endchar
          </CharString>
          <CharString index="480">
            59 -51 45 -62 13 vhcurveto
            51 13 40 35 41 vvcurveto
            return
          </CharString>
          <CharString index="481">
            -616 rmoveto
            -7 -12 -10 -15 -6 -5 rrcurveto
            -18 11 return
          </CharString>
          <CharString index="482">
            hlineto
            17 -11 11 -18 -16 vvcurveto
            -17 -12 -15 -30 vhcurveto
            return
          </CharString>
          <CharString index="483">
            337 callsubr
            13 1 5 return
          </CharString>
          <CharString index="484">
            hlineto
            -89 callgsubr
            return
          </CharString>
          <CharString index="485">
            -45 384 callgsubr
            return
          </CharString>
          <CharString index="486">
            -329 173 278 callsubr
            return
          </CharString>
          <CharString index="487">
            -4 0 -4 1 -4 vhcurveto
            return
          </CharString>
          <CharString index="488">
            -30 vvcurveto
            -55 20 -57 67 return
          </CharString>
          <CharString index="489">
            -26 32 -57 -33 return
          </CharString>
          <CharString index="490">
            32 13 15 23 return
          </CharString>
          <CharString index="491">
            11 -3 vhcurveto
            16 24 24 9 30 hhcurveto
            34 32 return
          </CharString>
          <CharString index="492">
            hhcurveto
            19 8 16 19 12 hvcurveto
            404 659 return
          </CharString>
          <CharString index="493">
            vvcurveto
            -51 69 -42 48 36 28 21 35 17 -6 return
          </CharString>
          <CharString index="494">
            147 callsubr
            -41 0 return
          </CharString>
          <CharString index="495">
            rmoveto
            68 15 31 25 13 -3 11 -3 6 hvcurveto
            return
          </CharString>
          <CharString index="496">
            -7 -12 4 -11 hhcurveto
            -72 -8 -67 -38 hvcurveto
            1 return
          </CharString>
          <CharString index="497">
            -14 -15 vvcurveto
            -56 -111 -15 -74 -66 vhcurveto
            -38 return
          </CharString>
          <CharString index="498">
            129 rmoveto
            23 22 3 4 return
          </CharString>
          <CharString index="499">
            vhcurveto
            -20 10 -10 18 31 vvcurveto
            return
          </CharString>
          <CharString index="500">
            hvcurveto
            45 -16 22 -44 -45 vvcurveto
            return
          </CharString>
          <CharString index="501">
            65 -41 50 -17 18 return
          </CharString>
          <CharString index="502">
            3 32 -32 44 hhcurveto
            return
          </CharString>
          <CharString index="503">
            hhcurveto
            42 38 -30 -48 return
          </CharString>
          <CharString index="504">
            hvcurveto
            355 callsubr
            return
          </CharString>
          <CharString index="505">
            -17 -2 -16 hhcurveto
            return
          </CharString>
          <CharString index="506">
            45 39 51 hhcurveto
            return
          </CharString>
          <CharString index="507">
            28 9 27 23 33 hhcurveto
            24 16 -16 -21 return
          </CharString>
          <CharString index="508">
            380 callsubr
            -15 -35 -39 -8 return
          </CharString>
          <CharString index="509">
            55 -53 35 -75 -74 -56 -31 -31 -12 7 return
          </CharString>
          <CharString index="510">
            16 36 46 vvcurveto
            43 -17 39 -24 32 vhcurveto
            return
          </CharString>
          <CharString index="511">
            -2 -17 -10 -23 vvcurveto
            -56 145 -131 return
          </CharString>
          <CharString index="512">
            5 3 10 10 vvcurveto
            71 -74 0 -30 vhcurveto
            return
          </CharString>
          <CharString index="513">
            13 -30 11 -44 vhcurveto
            endchar
          </CharString>
          <CharString index="514">
            -6 12 hvcurveto
            7 return
          </CharString>
        <CharString name=".notdef">
          146 166 hmoveto
          422 701 -422 hlineto
          73 -68 rmoveto
          277 -565 -277 hlineto
          endchar
        </CharString>
        <CharString name="A">
          101 248 234 -77 callsubr
        </CharString>
        <CharString name="AE">
          423 288 272 rmoveto
          169 346 rlineto
          -346 vlineto
          185 -167 rmoveto
          -39 -16 16 36 hvcurveto
          175 156 vlineto
          46 34 -1 -12 30 hvcurveto
          17 12 12 19 26 vvcurveto
          45 -35 16 354 callsubr
          186 242 hlineto
          46 35 -6 -15 29 hvcurveto
          19 12 13 370 callsubr
          -36 26 -94 vhcurveto
          -364 hlineto
          -69 -34 -27 -57 -29 hvcurveto
          -276 -542 -19 -38 -13 -16 -22 -9 rlinecurve
          -26 15 34 -20 37 hhcurveto
          35 26 18 52 25 hvcurveto
          50 102 rlineto
          220 -28 hlineto
          -91 54 -47 118 vhcurveto
          220 hlineto
          86 36 37 47 24 -13 25 -19 13 hvcurveto
          -27 -29 -35 372 callsubr
        </CharString>
        <CharString name="Aacute">
          101 451 867 -76 callsubr
          -113 -563 -77 callsubr
        </CharString>
        <CharString name="Abreve">
          101 355 801 71 callgsubr
          -107 -567 -77 callsubr
        </CharString>
        <CharString name="Acircumflex">
          101 356 879 -31 callsubr
          -19 -564 -77 callsubr
        </CharString>
        <CharString name="Adieresis">
          101 436 798 6 callsubr
          -3 -564 -77 callsubr
        </CharString>
        <CharString name="Agrave">
          101 346 798 -11 callsubr
          -12 -638 -77 callsubr
        </CharString>
        <CharString name="Amacron">
          101 476 823 99 callsubr
          72 -589 -77 callsubr
        </CharString>
        <CharString name="Aogonek">
          101 248 234 rmoveto
          102 315 105 -315 rlineto
          235 -196 rmoveto
          -26 12 -18 24 -14 39 -195 524 rcurveline
          66 -25 -18 35 -58 hhcurveto
          -35 -28 -16 -23 -16 hvcurveto
          16 -12 11 -15 8 -23 -215 -553 rcurveline
          -15 -37 -10 -17 -21 -8 rrcurveto
          -26 9 36 -18 35 hhcurveto
          37 30 22 63 19 hvcurveto
          25 76 rlineto
          261 hlineto
          26 -77 11 -34 12 -21 16 -13 rlinecurve
          -47 -26 -32 -38 -44 23 callsubr
          hvcurveto
          69 93 19 23 vvcurveto
          3 -2 3 -6 4 vhcurveto
          endchar
        </CharString>
        <CharString name="Aring">
          101 350 939 86 callgsubr
          -150 rmoveto
          59 51 30 62 62 -51 31 -59 -59 -51 -31 -62 -62 51 -30 59 hvcurveto
          -107 -555 -77 callsubr
        </CharString>
        <CharString name="Atilde">
          101 226 808 rmoveto
          50 callsubr
          119 callsubr
          22 -574 -77 callsubr
        </CharString>
        <CharString name="B">
          144 416 325 rmoveto
          96 53 -43 -74 -71 -53 -46 -96 hvcurveto
          -118 hlineto
          -51 -16 16 47 hvcurveto
          1 171 rlineto
          145 314 rmoveto
          98 43 -51 -61 -67 -43 -46 -98 1 hvcurveto
          -145 224 hlineto
          -73 90 rmoveto
          -41 -27 -16 -25 -20 hvcurveto
          21 -10 10 -18 -30 vvcurveto
          -1 -476 rlineto
          -115 45 -39 136 vhcurveto
          134 hlineto
          191 93 97 105 90 -76 75 -110 16 hvcurveto
          83 20 55 53 82 vvcurveto
          101 -83 90 -189 vhcurveto
          endchar
        </CharString>
        <CharString name="C">
          107 645 601 rmoveto
          230 callgsubr
          -228 126 -136 196 152 110 94 62 36 -22 13 -7 2 vhcurveto
          89 callsubr
          hvcurveto
          endchar
        </CharString>
        <CharString name="CR">
          -331 endchar
        </CharString>
        <CharString name="Cacute">
          107 645 601 rmoveto
          230 callgsubr
          -228 126 -136 196 152 110 94 62 36 -22 13 -7 2 vhcurveto
          89 callsubr
          hvcurveto
          -190 266 -76 callsubr
          endchar
        </CharString>
        <CharString name="Ccaron">
          107 522 952 -69 callgsubr
          167 -649 rmoveto
          89 callsubr
          230 callgsubr
          -228 126 -136 196 152 110 94 62 36 -22 13 -7 2 hvcurveto
          endchar
        </CharString>
        <CharString name="Ccedilla">
          107 297 57 callgsubr
          12 54 rlineto
          148 3 106 92 61 vvcurveto
          36 -22 13 -7 2 vhcurveto
          89 callsubr
          230 callgsubr
          -198 95 -129 154 -30 hvcurveto
          endchar
        </CharString>
        <CharString name="D">
          164 101 149 rmoveto
          143 callsubr
          130 28 rmoveto
          195 callgsubr
          endchar
        </CharString>
        <CharString name="Dcaron">
          164 550 944 -69 callgsubr
          -247 -207 rmoveto
          195 callgsubr
          -130 7 rmoveto
          143 callsubr
          endchar
        </CharString>
        <CharString name="E">
          79 309 105 -78 callsubr
        </CharString>
        <CharString name="Eacute">
          79 456 867 -76 callsubr
          -57 -692 -78 callsubr
        </CharString>
        <CharString name="Ecaron">
          79 524 952 -69 callgsubr
          -144 -741 -78 callsubr
        </CharString>
        <CharString name="Ecircumflex">
          79 361 879 -31 callsubr
          37 -693 -78 callsubr
        </CharString>
        <CharString name="Edieresis">
          79 441 798 6 callsubr
          53 -693 -78 callsubr
        </CharString>
        <CharString name="Edotaccent">
          79 349 811 rmoveto
          43 40 40 43 182 callgsubr
          hvcurveto
          -40 -706 -78 callsubr
        </CharString>
        <CharString name="Egrave">
          79 351 798 -11 callsubr
          44 -767 -78 callsubr
        </CharString>
        <CharString name="Emacron">
          79 481 823 99 callsubr
          128 -718 -78 callsubr
        </CharString>
        <CharString name="Eogonek">
          79 309 105 rmoveto
          395 callgsubr
          157 156 vlineto
          45 35 -1 -12 30 hvcurveto
          17 12 12 19 26 vvcurveto
          45 -35 16 354 callsubr
          186 242 hlineto
          46 35 -6 -15 29 hvcurveto
          19 12 12 370 callsubr
          -35 26 -94 vhcurveto
          -327 hlineto
          -40 -27 -16 -25 -20 hvcurveto
          21 -10 10 -18 -30 vvcurveto
          -469 vlineto
          -114 57 -47 120 vhcurveto
          141 hlineto
          -40 -26 -26 -35 -39 23 callsubr
          60 71 22 18 20 hvcurveto
          26 16 11 23 27 vvcurveto
          24 -12 25 -19 13 vhcurveto
          -27 -29 -35 372 callsubr
        </CharString>
        <CharString name="Eth">
          198 231 329 rmoveto
          111 hlineto
          30 54 4 53 5 -1 9 -3 3 hvcurveto
          -190 228 hlineto
          195 callgsubr
          -129 261 rmoveto
          -13 hlineto
          -30 -54 -3 -52 -7 2 -9 2 -3 hvcurveto
          92 -180 hlineto
          143 callsubr
          endchar
        </CharString>
        <CharString name="Euro">
          138 430 252 rmoveto
          404 callgsubr
          -240 hlineto
          -1 14 -1 14 15 vvcurveto
          11 0 11 1 11 vhcurveto
          161 hlineto
          404 callgsubr
          -230 hlineto
          118 28 74 63 78 hhcurveto
          76 30 -47 -54 -8 hvcurveto
          -11 19 22 -4 19 hhcurveto
          48 43 21 49 73 -105 52 -130 -166 -119 -98 -162 -39 hvcurveto
          -22 hlineto
          -29 -55 -4 -51 -8 2 -8 3 -4 hvcurveto
          89 hlineto
          -1 -16 -1 -16 -17 vvcurveto
          -9 0 -9 1 -9 vhcurveto
          -9 hlineto
          -29 -55 -3 -51 -9 2 -8 3 -4 hvcurveto
          96 hlineto
          -166 31 111 -96 158 hhcurveto
          153 109 94 62 36 -22 13 -7 2 hvcurveto
          -43 -38 -79 -52 -86 hhcurveto
          -92 -72 43 107 -29 hvcurveto
          endchar
        </CharString>
        <CharString name="F">
          38 171 729 rmoveto
          -40 -27 -16 -25 -20 hvcurveto
          21 -10 10 -18 -30 vvcurveto
          -539 vlineto
          -67 26 -34 56 34 25 17 22 17 vhcurveto
          -21 10 -8 18 31 vvcurveto
          247 156 vlineto
          45 35 -1 -10 30 hvcurveto
          17 11 12 17 22 vvcurveto
          39 -35 14 354 callsubr
          204 242 hlineto
          46 35 -6 -15 29 hvcurveto
          19 12 12 19 25 vvcurveto
          37 -27 26 -94 vhcurveto
          endchar
        </CharString>
        <CharString name="G">
          154 687 292 5 callsubr
        </CharString>
        <CharString name="Gbreve">
          154 433 801 71 callgsubr
          254 -509 5 callsubr
        </CharString>
        <CharString name="H">
          204 707 639 rmoveto
          67 382 callsubr
          -26 179 callsubr
          -9 10 -19 -29 vvcurveto
          -230 -344 227 vlineto
          -38 callgsubr
          238 344 -235 vlineto
          -67 25 220 callgsubr
          endchar
        </CharString>
        <CharString name="I">
          -268 234 639 rmoveto
          -38 callgsubr
          endchar
        </CharString>
        <CharString name="Iacute">
          -268 265 867 -76 callsubr
          59 -158 rmoveto
          -38 callgsubr
          endchar
        </CharString>
        <CharString name="Icircumflex">
          -268 234 639 rmoveto
          -38 callgsubr
          28 821 98 callgsubr
        </CharString>
        <CharString name="Idieresis">
          -268 333 882 25 callsubr
          85 -243 rmoveto
          -38 callgsubr
          endchar
        </CharString>
        <CharString name="Idotaccent">
          -268 241 894 rmoveto
          182 callgsubr
          43 40 40 43 vhcurveto
          -7 -255 rmoveto
          -38 callgsubr
          endchar
        </CharString>
        <CharString name="Igrave">
          -268 160 798 -11 callsubr
          160 -233 rmoveto
          -38 callgsubr
          endchar
        </CharString>
        <CharString name="Imacron">
          -268 50 893 57 callsubr
          -116 -254 rmoveto
          -38 callgsubr
          endchar
        </CharString>
        <CharString name="Iogonek">
          -268 264 29 rmoveto
          127 callsubr
          552 vlineto
          262 callgsubr
          -33 -26 179 callsubr
          -9 10 -19 -29 vvcurveto
          -552 vlineto
          -47 12 -30 27 -14 vhcurveto
          -52 -26 -36 -40 -47 203 callsubr
        </CharString>
        <CharString name="J">
          -167 369 639 rmoveto
          67 -26 32 -56 -33 -26 -16 -23 -18 vhcurveto
          21 -9 9 -19 -29 vvcurveto
          -469 vlineto
          -54 -34 -25 -50 -45 -35 15 28 -34 vhcurveto
          -12 -12 -8 -18 -21 vvcurveto
          -51 60 -45 96 112 79 62 126 vhcurveto
          endchar
        </CharString>
        <CharString name="K">
          113 339 371 85 callsubr
        </CharString>
        <CharString name="L">
          34 callgsubr
          endchar
        </CharString>
        <CharString name="Lacute">
          34 callgsubr
          158 225 -76 callsubr
          endchar
        </CharString>
        <CharString name="Lcaron">
          34 callgsubr
          346 30 133 callsubr
        </CharString>
        <CharString name="Lslash">
          -20 306 97 rmoveto
          395 callgsubr
          243 vlineto
          83 40 27 13 42 24 -22 49 rlinecurve
          -3 5 -4 7 -5 1 -118 -57 rcurveline
          147 156 callsubr
          -213 vlineto
          -42 -20 -27 -13 -48 -25 22 -47 rlinecurve
          4 -6 11 -7 3 -2 77 37 rcurveline
          -193 vlineto
          -114 49 -39 121 vhcurveto
          157 hlineto
          82 36 42 47 19 -8 20 -18 9 hvcurveto
          -26 -21 -30 372 callsubr
        </CharString>
        <CharString name="M">
          357 846 639 rmoveto
          -2 31 4 27 14 21 rrcurveto
          11 -23 -31 9 -35 hhcurveto
          -82 -48 -26 -115 -33 hvcurveto
          -125 -363 -124 367 rlineto
          91 -26 -31 46 -80 hhcurveto
          -51 -45 -15 -17 -30 hvcurveto
          14 -18 6 -28 -2 -29 -41 -539 rcurveline
          -2 -30 -8 -24 -17 -16 rrcurveto
          -19 19 25 -13 30 hhcurveto
          47 19 31 64 4 hvcurveto
          32 520 197 -562 rlineto
          -24 7 9 -15 33 hhcurveto
          33 13 15 23 8 hvcurveto
          194 562 32 -522 rlineto
          -70 5 31 -19 47 hhcurveto
          29 17 6 10 20 hvcurveto
          -11 17 -6 40 -1 29 rrcurveto
          endchar
        </CharString>
        <CharString name="N">
          215 109 90 -16 callgsubr
          endchar
        </CharString>
        <CharString name="NULL">
          -608 endchar
        </CharString>
        <CharString name="Nacute">
          215 109 90 -16 callgsubr
          398 225 -76 callsubr
          endchar
        </CharString>
        <CharString name="Ncaron">
          215 575 952 -69 callgsubr
          219 -207 rmoveto
          67 callsubr
          -474 vlineto
          -301 490 rlineto
          56 -35 -37 24 -53 hhcurveto
          -45 -25 -16 -23 -18 hvcurveto
          21 -9 9 -19 -29 vvcurveto
          -552 vlineto
          -67 26 -33 57 34 24 16 23 18 258 callgsubr
          456 vlineto
          263 -425 rlineto
          -91 57 46 -37 59 hhcurveto
          37 27 12 17 15 hvcurveto
          -15 17 -5 21 30 vvcurveto
          endchar
        </CharString>
        <CharString name="Ntilde">
          215 505 903 rmoveto
          119 callsubr
          50 callsubr
          hhcurveto
          -396 -813 -16 callgsubr
          endchar
        </CharString>
        <CharString name="O">
          176 411 76 117 callsubr
        </CharString>
        <CharString name="OE">
          505 539 108 rmoveto
          -16 -35 -41 -9 -52 hhcurveto
          -126 -64 107 155 -11 hvcurveto
          183 -12 85 116 137 hhcurveto
          48 36 -7 -14 35 hvcurveto
          196 -518 rmoveto
          -45 -21 21 49 hvcurveto
          157 156 vlineto
          46 34 -1 -12 30 hvcurveto
          18 12 12 19 26 vvcurveto
          45 -36 16 354 callsubr
          186 242 hlineto
          47 35 -6 -15 28 hvcurveto
          20 12 12 370 callsubr
          -36 26 -94 vhcurveto
          -498 hlineto
          -231 -126 -150 -214 -216 101 -149 260 hvcurveto
          502 hlineto
          86 36 37 47 24 -12 25 -20 13 hvcurveto
          -27 -29 -34 -14 -47 hhcurveto
          endchar
        </CharString>
        <CharString name="Oacute">
          176 411 76 -55 callsubr
          -228 502 -76 callsubr
          endchar
        </CharString>
        <CharString name="Ocircumflex">
          176 393 879 -31 callsubr
          107 -722 rmoveto
          -125 -72 114 168 -12 hvcurveto
          169 -11 57 126 125 hhcurveto
          127 72 -114 -169 10 hvcurveto
          -168 12 -57 -126 -126 hhcurveto
          -18 662 rmoveto
          -217 -108 -159 -214 -216 108 -159 217 220 103 160 215 216 -102 157 -221 hvcurveto
          endchar
        </CharString>
        <CharString name="Odieresis">
          176 411 76 -55 callsubr
          -159 517 25 callsubr
          endchar
        </CharString>
        <CharString name="Ograve">
          176 384 798 -11 callsubr
          113 -796 117 callsubr
        </CharString>
        <CharString name="Ohungarumlaut">
          176 411 76 -55 callsubr
          -289 438 46 callgsubr
          endchar
        </CharString>
        <CharString name="Omacron">
          176 411 76 -55 callsubr
          -443 528 57 callsubr
          endchar
        </CharString>
        <CharString name="Oslash">
          202 561 492 rmoveto
          11 -36 7 -41 3 -44 rrcurveto
          -168 12 -57 -126 -126 hhcurveto
          -63 -49 29 50 -35 hvcurveto
          -31 56 rmoveto
          -16 42 -11 49 -4 56 rrcurveto
          169 -11 57 126 125 hhcurveto
          73 55 -38 -64 35 hvcurveto
          164 96 rmoveto
          17 18 26 27 27 14 rrcurveto
          22 -4 -17 9 -16 hhcurveto
          -21 -21 -11 -28 -24 hvcurveto
          -44 -49 rlineto
          56 -53 -76 33 -101 hhcurveto
          -217 -108 -159 -214 -102 24 -90 49 -66 hvcurveto
          -24 -27 -16 -18 -26 -27 -27 -14 rlinecurve
          -22 5 16 -10 16 hhcurveto
          21 20 11 28 25 hvcurveto
          31 35 rlineto
          -46 52 70 -27 89 hhcurveto
          220 103 160 215 92 -18 81 -39 63 hvcurveto
          endchar
        </CharString>
        <CharString name="Otilde">
          176 486 903 rmoveto
          119 callsubr
          50 callsubr
          hhcurveto
          -75 -827 117 callsubr
        </CharString>
        <CharString name="P">
          19 302 647 rmoveto
          101 53 -61 -89 -88 -53 -62 -101 hvcurveto
          -85 300 hlineto
          -72 82 rmoveto
          -41 -27 -16 -25 -20 hvcurveto
          21 -10 10 -18 -30 vvcurveto
          -540 vlineto
          134 callsubr
          179 105 vlineto
          150 131 77 155 154 -131 78 -150 -1 hvcurveto
          endchar
        </CharString>
        <CharString name="Q">
          210 738 411 rmoveto
          203 -135 124 -182 -203 -142 -161 -218 -165 100 -86 101 63 31 40 41 7 0 6 -2 6 vhcurveto
          -5 -5 -1 -5 hhcurveto
          -86 -60 72 130 145 70 97 114 120 90 -109 -150 -167 -89 -114 -147 -59 hvcurveto
          -57 -23 -12 -11 -19 vvcurveto
          -73 149 -138 159 143 30 115 51 -48 vhcurveto
          -24 -32 -39 -12 -42 hhcurveto
          -78 -81 24 49 -59 hvcurveto
          211 56 128 155 209 vvcurveto
          endchar
        </CharString>
        <CharString name="R">
          51 217 634 -24 callgsubr
        </CharString>
        <CharString name="Racute">
          51 418 863 -76 callsubr
          -111 -159 -24 callgsubr
        </CharString>
        <CharString name="Rcaron">
          51 486 948 -69 callgsubr
          -198 -208 -24 callgsubr
        </CharString>
        <CharString name="S">
          21 callsubr
          endchar
        </CharString>
        <CharString name="Sacute">
          21 callsubr
          -173 273 -76 callsubr
          endchar
        </CharString>
        <CharString name="Scaron">
          72 504 952 -69 callgsubr
          -214 -279 rmoveto
          77 callgsubr
          82 -101 64 -154 -140 -125 -75 -124 hvcurveto
          -208 411 -5 -146 vvcurveto
          -65 -63 -43 -89 -91 -52 39 44 22 10 19 14 14 vhcurveto
          16 -17 -24 12 -31 hhcurveto
          -42 -42 -31 -53 -98 121 -68 154 151 130 87 128 hvcurveto
          212 -411 16 134 vvcurveto
          endchar
        </CharString>
        <CharString name="T">
          3 140 729 65 callsubr
        </CharString>
        <CharString name="Tcaron">
          3 470 923 -69 callgsubr
          -259 -88 65 callsubr
        </CharString>
        <CharString name="Thorn">
          52 234 507 rmoveto
          15 40 37 7 41 hhcurveto
          90 61 -52 -83 -84 -61 -52 -90 -41 -37 7 14 -40 hvcurveto
          360 vmoveto
          -38 callgsubr
          112 vlineto
          -17 42 50 -11 54 hhcurveto
          138 118 86 137 135 -118 87 -138 -54 -50 -11 -17 -42 hvcurveto
          endchar
        </CharString>
        <CharString name="U">
          129 97 261 53 callsubr
        </CharString>
        <CharString name="Uacute">
          129 97 261 -49 callsubr
          382 225 -76 callsubr
          endchar
        </CharString>
        <CharString name="Ucircumflex">
          129 384 879 -31 callsubr
          247 -555 rmoveto
          -104 -60 -49 -98 -99 -59 51 102 vhcurveto
          396 vlineto
          67 -27 32 -57 -33 -25 -16 -23 -18 vhcurveto
          21 -9 10 -19 -29 vvcurveto
          -381 vlineto
          -163 87 -108 200 201 86 108 163 vhcurveto
          378 vlineto
          67 382 callsubr
          -26 -16 -23 -18 vhcurveto
          21 -9 10 -19 -29 vvcurveto
          endchar
        </CharString>
        <CharString name="Udieresis">
          129 97 261 -49 callsubr
          451 240 25 callsubr
          endchar
        </CharString>
        <CharString name="Ugrave">
          129 375 798 -11 callsubr
          -192 -611 53 callsubr
        </CharString>
        <CharString name="Uhungarumlaut">
          129 418 803 46 callgsubr
          -216 -648 53 callsubr
        </CharString>
        <CharString name="Umacron">
          129 264 893 57 callsubr
          -467 -632 53 callsubr
        </CharString>
        <CharString name="Uogonek">
          129 542 243 rmoveto
          -104 -60 -49 -98 -99 -59 51 102 vhcurveto
          396 vlineto
          67 -27 32 -57 -33 -25 -16 -23 -18 vhcurveto
          21 -9 10 -19 -29 vvcurveto
          -381 vlineto
          -149 73 -104 166 -16 vhcurveto
          -50 -26 -35 -39 -46 23 callsubr
          59 69 23 19 19 hvcurveto
          138 29 60 97 137 vvcurveto
          378 vlineto
          67 382 callsubr
          -26 -16 -23 -18 vhcurveto
          21 -9 10 -19 -29 vvcurveto
          endchar
        </CharString>
        <CharString name="Uring">
          129 97 261 -49 callsubr
          281 297 86 callgsubr
          35 rmoveto
          -59 -51 -31 -62 -62 51 -30 59 59 51 30 62 62 -51 31 -59 hvcurveto
          endchar
        </CharString>
        <CharString name="V">
          116 187 636 rmoveto
          81 -24 -34 21 402 callgsubr
          8 -24 13 -38 175 -529 rcurveline
          -76 25 27 -28 57 hhcurveto
          128 231 356 235 101 -40 57 -64 -28 -35 -14 -16 -20 hvcurveto
          29 -48 8 -43 -73 vvcurveto
          -144 -76 -195 -112 -120 vhcurveto
          endchar
        </CharString>
        <CharString name="W">
          401 567 653 rmoveto
          63 -16 -29 22 -45 hhcurveto
          -34 -27 -13 -27 -22 hvcurveto
          24 -13 10 -24 11 -38 25 -92 rcurveline
          -32 -168 -38 -140 -66 -113 -120 526 rcurveline
          80 -18 -40 22 402 callgsubr
          11 -24 10 -38 142 -529 rcurveline
          -79 20 28 -25 57 hhcurveto
          70 85 160 179 52 hvcurveto
          65 -235 rlineto
          -75 20 30 -29 41 hhcurveto
          116 186 372 205 114 -54 57 -64 -26 -41 -15 -14 -16 hvcurveto
          36 -29 22 -65 -82 vvcurveto
          -113 -43 -169 -86 -146 vhcurveto
          endchar
        </CharString>
        <CharString name="X">
          49 346 454 rmoveto
          -140 217 rlineto
          50 -32 -29 17 -40 hhcurveto
          -46 -33 -30 -47 -11 hvcurveto
          27 27 -12 -46 30 hvcurveto
          159 -246 -180 -249 rlineto
          -27 -19 -17 -8 -27 hhcurveto
          -55 -2 36 -28 39 hhcurveto
          54 32 36 103 56 hvcurveto
          82 144 140 -216 rlineto
          -52 34 27 -15 40 hhcurveto
          46 32 31 45 12 hvcurveto
          -27 1 -27 13 -30 45 -158 245 rcurveline
          179 249 rlineto
          27 19 17 8 28 hhcurveto
          55 1 -36 30 -39 hhcurveto
          -54 -31 -38 -103 -57 hvcurveto
          endchar
        </CharString>
        <CharString name="Y">
          25 589 598 39 callsubr
        </CharString>
        <CharString name="Yacute">
          25 419 867 -76 callsubr
          260 -199 39 callsubr
        </CharString>
        <CharString name="Ydieresis">
          25 404 798 6 callsubr
          370 -200 39 callsubr
        </CharString>
        <CharString name="Z">
          44 161 100 -10 callgsubr
        </CharString>
        <CharString name="Zacute">
          44 421 867 -76 callsubr
          -170 -697 -10 callgsubr
        </CharString>
        <CharString name="Zcaron">
          44 489 952 -69 callgsubr
          -257 -746 -10 callgsubr
        </CharString>
        <CharString name="Zdotaccent">
          44 314 811 rmoveto
          43 40 40 43 182 callgsubr
          hvcurveto
          -153 -711 -10 callgsubr
        </CharString>
        <CharString name="a">
          -55 345 126 -83 callsubr
        </CharString>
        <CharString name="aacute">
          -55 378 44 callgsubr
          57 -459 -83 callsubr
        </CharString>
        <CharString name="abreve">
          -55 282 589 71 callgsubr
          63 -463 -83 callsubr
        </CharString>
        <CharString name="acircumflex">
          -55 283 667 -31 callsubr
          151 -460 -83 callsubr
        </CharString>
        <CharString name="acute">
          -343 176 44 callgsubr
          endchar
        </CharString>
        <CharString name="adieresis">
          -55 363 586 6 callsubr
          167 -460 -83 callsubr
        </CharString>
        <CharString name="ae">
          205 478 309 rmoveto
          97 12 43 48 49 hhcurveto
          41 24 -41 -46 -33 -15 -9 -23 -3 hvcurveto
          -359 -246 rmoveto
          -38 -27 16 41 49 41 43 119 7 hvcurveto
          -35 5 -31 10 -28 vhcurveto
          -41 -31 -40 -21 -39 hhcurveto
          417 175 rmoveto
          82 2 32 29 69 vvcurveto
          87 -74 89 -113 -61 -57 -25 -44 -44 vhcurveto
          45 -32 -51 24 -78 hhcurveto
          -100 -102 -50 -72 -42 28 -30 53 29 26 11 18 19 hvcurveto
          -10 11 -5 16 13 vvcurveto
          30 24 25 43 45 24 -26 -61 vhcurveto
          -82 vlineto
          -196 -3 -104 -68 -98 vvcurveto
          -83 68 -46 98 75 59 34 55 46 vhcurveto
          -58 42 70 -31 88 hhcurveto
          99 79 62 54 15 -6 15 -13 6 hvcurveto
          -34 -32 -44 -25 -62 hhcurveto
          -79 -55 44 118 -3 hvcurveto
          endchar
        </CharString>
        <CharString name="agrave">
          -55 273 586 -11 callsubr
          158 -534 -83 callsubr
        </CharString>
        <CharString name="amacron">
          -55 403 611 99 callsubr
          242 -485 -83 callsubr
        </CharString>
        <CharString name="ampersand">
          152 250 358 rmoveto
          88 18 69 36 -29 hvcurveto
          -85 -54 45 70 53 33 35 42 44 26 -27 -68 2 hvcurveto
          66 -20 52 36 50 vvcurveto
          56 -69 46 -88 -103 -107 -87 -127 -69 30 -58 59 -26 vhcurveto
          -62 -35 -48 -54 -80 vvcurveto
          -126 112 -87 165 164 121 115 143 43 -10 33 -17 33 vhcurveto
          4 hlineto
          112 51 44 67 61 -59 51 -84 -39 hvcurveto
          -65 12 -16 -45 -109 hhcurveto
          -73 -6 -45 -37 20 hvcurveto
          65 33 -38 -63 -86 -87 -55 -98 -106 -77 53 86 45 19 38 37 29 hvcurveto
          endchar
        </CharString>
        <CharString name="ampersand.alt">
          159 333 91 rmoveto
          -91 -60 49 70 48 21 38 64 40 hvcurveto
          19 -22 22 -23 24 -27 54 -59 44 -46 37 -36 rrcurveto
          -20 -40 -46 -12 -48 hhcurveto
          11 563 rmoveto
          38 32 -29 -53 -45 -23 -45 -59 -38 hvcurveto
          -43 56 -15 36 33 vvcurveto
          54 33 31 37 vhcurveto
          411 -528 rmoveto
          -13 -15 -19 -10 -22 hhcurveto
          -20 -23 8 34 -41 hvcurveto
          48 57 29 67 61 vvcurveto
          58 -33 34 -44 -24 -22 -11 -15 -17 vhcurveto
          24 -25 12 -30 -42 vvcurveto
          -37 -12 -34 -20 -30 vhcurveto
          -31 30 -38 39 -46 50 -25 27 -22 24 -18 22 rrcurveto
          97 47 75 53 82 vvcurveto
          76 -79 71 -125 -104 -100 -62 -98 -53 20 -41 62 -76 vhcurveto
          -123 -66 -48 -64 -79 vvcurveto
          -104 89 -84 162 84 78 29 44 64 vhcurveto
          -62 72 39 -11 50 hhcurveto
          54 30 40 42 18 -6 19 -12 15 hvcurveto
          endchar
        </CharString>
        <CharString name="aogonek">
          -55 345 126 rmoveto
          -33 -27 -32 -17 -36 hhcurveto
          -38 -27 16 41 49 41 43 119 7 hvcurveto
          181 -191 rmoveto
          -32 8 -20 22 42 vvcurveto
          242 vlineto
          121 -85 51 -113 -109 -98 -42 -78 -36 28 -30 53 29 26 10 18 19 vhcurveto
          -10 11 -5 14 16 vvcurveto
          35 28 22 39 40 29 -25 -53 vhcurveto
          -101 vlineto
          -196 -3 -104 -68 -98 vvcurveto
          -83 62 -46 86 69 52 31 40 34 vhcurveto
          5 -30 13 -20 21 -11 rrcurveto
          -42 -26 -27 -36 -40 203 callsubr
        </CharString>
        <CharString name="apostrophemod">
          -373 87 746 134 callgsubr
        </CharString>
        <CharString name="approxequal">
          103 523 284 rmoveto
          214 callsubr
          -33 -3 -23 -22 -37 hhcurveto
          231 vmoveto
          -85 -140 65 -87 hhcurveto
          -70 -52 -46 -61 -31 14 -21 22 -7 hvcurveto
          34 3 23 21 38 77 137 -63 97 hhcurveto
          70 52 45 61 28 -14 21 -22 10 hvcurveto
          -34 -3 -23 -22 -37 hhcurveto
          endchar
        </CharString>
        <CharString name="aring">
          -55 277 727 86 callgsubr
          -150 rmoveto
          59 51 30 62 62 -51 31 -59 -59 -51 -31 -62 -62 51 -30 59 hvcurveto
          63 -451 -83 callsubr
        </CharString>
        <CharString name="asciicircum">
          64 394 659 rmoveto
          41 -19 -17 19 -29 hhcurveto
          -28 -24 -19 -38 -22 hvcurveto
          -154 -275 rlineto
          -18 -31 -7 -26 -21 vvcurveto
          -50 42 -23 37 vhcurveto
          175 335 126 -262 rlineto
          -57 27 27 -27 33 hhcurveto
          16 19 7 15 18 hvcurveto
          endchar
        </CharString>
        <CharString name="asciitilde">
          103 586 461 rmoveto
          -33 -3 -23 -22 -37 214 callsubr
          endchar
        </CharString>
        <CharString name="asterisk">
          6 371 862 rmoveto
          43 -21 33 -45 -40 -21 -33 -41 -35 16 -45 15 -33 vhcurveto
          32 -34 -55 38 -38 hhcurveto
          -29 -35 -20 -44 -45 60 -26 59 -1 hvcurveto
          18 18 2 3 16 hvcurveto
          -48 -26 -62 -48 -47 vvcurveto
          -26 26 -37 36 60 29 88 62 10 vhcurveto
          -63 10 30 -86 58 hhcurveto
          32 33 30 30 48 -62 49 -49 26 hvcurveto
          -4 16 20 -3 17 hhcurveto
          58 1 61 26 46 vvcurveto
          43 -30 22 -32 -43 -55 -43 -31 -34 vhcurveto
          16 32 19 47 36 vvcurveto
          endchar
        </CharString>
        <CharString name="at">
          317 520 194 rmoveto
          -27 -26 -30 -15 -32 hhcurveto
          -36 -24 14 34 3 hvcurveto
          2 40 41 35 107 6 rrcurveto
          124 103 rmoveto
          101 6 -72 42 -103 hhcurveto
          -99 -96 -41 -60 -3 hvcurveto
          -35 -2 24 -25 48 hhcurveto
          27 24 9 14 18 hvcurveto
          -8 10 -4 14 1 10 rrcurveto
          26 1 23 20 39 hhcurveto
          43 19 -22 -50 -3 hvcurveto
          -4 -68 -179 -4 -98 -56 -5 -81 rlinecurve
          -69 -5 54 -38 79 hhcurveto
          63 51 25 35 33 hvcurveto
          -41 11 36 -20 50 hhcurveto
          120 115 103 178 173 -128 147 -215 -261 -189 -189 -251 -223 152 -106 173 142 114 57 38 -35 hvcurveto
          -27 -63 -68 -14 -73 hhcurveto
          -165 -117 86 189 222 143 159 233 5 hvcurveto
          187 4 114 -114 -4 -171 rrcurveto
          -139 -4 -68 -63 -53 hhcurveto
          -22 -10 13 27 2 hvcurveto
          endchar
        </CharString>
        <CharString name="atilde">
          -55 153 596 rmoveto
          50 callsubr
          119 callsubr
          192 -470 -83 callsubr
        </CharString>
        <CharString name="b">
          -12 210 359 rmoveto
          51 25 43 25 43 hhcurveto
          64 53 -57 -117 -120 -56 -76 -84 -54 -34 25 65 hvcurveto
          1 520 rmoveto
          67 -26 33 -56 -34 -26 -16 -22 -18 vhcurveto
          21 -11 10 -18 -30 vvcurveto
          -1 -523 rlineto
          -125 83 -40 128 155 120 109 176 163 -95 89 -114 -61 -51 -25 -47 -35 vhcurveto
          endchar
        </CharString>
        <CharString name="backslash">
          -3 121 1020 rmoveto
          -14 -20 -4 -14 -17 hvcurveto
          14 -10 12 -31 7 -21 212 -604 45 -140 91 -257 rrcurveto
          -24 8 20 -54 48 hhcurveto
          13 17 2 17 20 hvcurveto
          -10 9 -15 32 -8 23 -110 311 -118 352 -120 335 rrcurveto
          24 -8 -19 54 -48 hhcurveto
          endchar
        </CharString>
        <CharString name="bar">
          -268 234 851 rmoveto
          262 callgsubr
          80 callgsubr
          -10 10 -18 -30 vvcurveto
          -960 vlineto
          344 callgsubr
          22 18 vhcurveto
          -21 10 -9 19 30 vvcurveto
          endchar
        </CharString>
        <CharString name="braceleft">
          -97 389 976 rmoveto
          23 -16 -41 11 -26 hhcurveto
          -72 -80 -56 -139 hvcurveto
          -88 25 -106 -81 -116 -79 1 -34 -33 79 -1 -115 -82 -25 -107 -91 vvcurveto
          -137 80 -58 72 26 41 12 22 16 vhcurveto
          -64 13 -46 48 79 68 24 153 71 vvcurveto
          119 -92 37 -14 2 vhcurveto
          13 1 93 38 120 69 -24 151 66 vvcurveto
          80 46 48 64 12 vhcurveto
          endchar
        </CharString>
        <CharString name="braceright">
          -97 334 815 rmoveto
          139 -79 56 -72 -26 -41 -11 -23 -16 vhcurveto
          64 -12 45 -48 -80 -66 -23 -151 -69 vvcurveto
          -120 93 -38 13 -1 vhcurveto
          -14 -2 -92 -37 -119 -71 23 -153 -68 vvcurveto
          -79 -45 -48 -64 -13 vhcurveto
          -22 16 41 -12 26 hhcurveto
          72 79 58 137 hvcurveto
          91 -24 107 82 115 79 1 33 34 -79 -1 116 81 24 106 88 vvcurveto
          endchar
        </CharString>
        <CharString name="bracketleft">
          -179 183 -100 rmoveto
          986 192 vlineto
          3 4 2 10 8 vvcurveto
          65 -66 0 -27 vhcurveto
          -233 -1033 hlineto
          -127 87 0 36 399 callgsubr
          3 5 2 10 8 vvcurveto
          64 -66 0 -27 vhcurveto
          endchar
        </CharString>
        <CharString name="bracketright">
          -179 253 886 rmoveto
          -986 -193 vlineto
          -1 -5 -3 -9 -9 vvcurveto
          -64 66 0 27 vhcurveto
          233 1033 hlineto
          127 -88 0 -35 vhcurveto
          -199 hlineto
          -1 -5 -3 -10 -8 vvcurveto
          -64 66 0 27 vhcurveto
          endchar
        </CharString>
        <CharString name="breve">
          -237 255 720 rmoveto
          -58 -24 -27 -46 -44 -25 27 58 vhcurveto
          3 -11 -16 3 -16 hhcurveto
          -33 -28 -18 -29 -45 59 -45 114 115 59 45 45 29 -29 18 -32 -16 -16 -3 -3 -11 hvcurveto
          endchar
        </CharString>
        <CharString name="brokenbar">
          -268 235 231 rmoveto
          262 callgsubr
          -34 -25 179 callsubr
          -9 10 -19 -29 vvcurveto
          -244 vlineto
          -67 25 -33 57 34 24 16 22 18 vhcurveto
          -20 10 -9 19 30 vvcurveto
          792 vmoveto
          262 callgsubr
          -34 -25 -16 -22 -17 vhcurveto
          20 -10 10 -19 -29 vvcurveto
          -244 vlineto
          -67 25 -33 57 34 257 callgsubr
          -9 18 31 vvcurveto
          endchar
        </CharString>
        <CharString name="bullet">
          -120 382 433 rmoveto
          66 -47 52 -70 -82 -82 -78 -85 -66 48 -52 70 86 77 77 86 vhcurveto
          endchar
        </CharString>
        <CharString name="c">
          -97 471 417 rmoveto
          245 callsubr
          -155 96 -92 143 99 81 59 57 112 callsubr
          hvcurveto
          endchar
        </CharString>
        <CharString name="cacute">
          -97 471 417 rmoveto
          245 callsubr
          -155 96 -92 143 99 81 59 57 112 callsubr
          hvcurveto
          -119 238 -76 callsubr
          endchar
        </CharString>
        <CharString name="caron">
          -257 176 663 rmoveto
          -89 81 rlineto
          12 -13 -14 5 -13 hhcurveto
          -15 -14 -7 -14 -6 hvcurveto
          71 -106 rlineto
          -40 27 21 -25 45 hhcurveto
          44 21 25 40 27 hvcurveto
          71 106 rlineto
          14 -6 -13 7 -17 hhcurveto
          -12 -14 -5 -12 -13 hvcurveto
          endchar
        </CharString>
        <CharString name="ccaron">
          -97 420 740 -69 callgsubr
          100 -491 rmoveto
          49 callsubr
          245 callsubr
          -155 96 -92 143 99 81 59 57 16 331 callsubr
          hvcurveto
          endchar
        </CharString>
        <CharString name="ccedilla">
          -97 194 57 callgsubr
          12 54 rlineto
          98 1 80 58 57 vvcurveto
          112 callsubr
          245 callsubr
          -125 62 -83 98 -29 hvcurveto
          endchar
        </CharString>
        <CharString name="cedilla">
          -243 215 -64 rmoveto
          18 81 rlineto
          -83 hlineto
          -19 -88 rlineto
          -5 callsubr
          endchar
        </CharString>
        <CharString name="cent">
          -97 361 567 rmoveto
          68 -26 33 -57 -33 -25 -17 -22 -19 vhcurveto
          21 150 callsubr
          -56 vlineto
          -110 -37 -73 -111 -129 vvcurveto
          -122 60 -83 95 -30 vhcurveto
          -52 vlineto
          -67 26 -33 57 34 24 16 23 18 258 callgsubr
          47 vlineto
          77 15 57 49 48 vvcurveto
          112 callsubr
          54 -47 39 -63 12 hvcurveto
          endchar
        </CharString>
        <CharString name="circumflex">
          -257 268 696 98 callgsubr
        </CharString>
        <CharString name="colon">
          -241 269 463 181 callgsubr
          -371 vmoveto
          40 -28 30 -42 -50 -48 -47 -50 -40 29 -31 42 51 46 47 51 vhcurveto
          endchar
        </CharString>
        <CharString name="comma">
          -285 148 -45 rmoveto
          -52 -22 -46 -45 -34 vhcurveto
          -20 5 14 -8 15 hhcurveto
          63 87 97 117 79 -42 55 -57 -45 -32 -35 -37 -10 hvcurveto
          46 -23 23 -42 -51 vvcurveto
          endchar
        </CharString>
        <CharString name="commaaccent">
          -425 173 -137 rmoveto
          260 callsubr
          -22 -26 -10 vhcurveto
          -18 callsubr
          hvcurveto
          endchar
        </CharString>
        <CharString name="commaaccent.alt">
          -383 208 672 133 callsubr
        </CharString>
        <CharString name="copyright">
          261 603 507 rmoveto
          62 -68 40 -76 -137 -96 -123 -136 -133 81 -88 130 93 72 58 51 16 -8 13 -9 4 vhcurveto
          -35 -30 -40 -24 -55 hhcurveto
          -69 -54 51 102 99 43 76 61 36 18 -27 -30 -6 -2 -8 -1 -6 hvcurveto
          -10 14 16 -6 19 hhcurveto
          35 27 22 38 hvcurveto
          -476 -144 rmoveto
          182 117 148 190 192 115 -148 -182 -182 -117 -145 -190 -191 -116 145 182 vhcurveto
          670 hmoveto
          220 -155 156 -208 -207 -155 -156 -220 -220 155 -153 207 208 155 153 220 vhcurveto
          endchar
        </CharString>
        <CharString name="currency">
          78 354 222 rmoveto
          -69 -50 42 110 -8 hvcurveto
          111 -7 43 41 69 hhcurveto
          69 51 -41 -111 7 hvcurveto
          -110 10 -46 -42 -69 hhcurveto
          272 353 rmoveto
          -7 27 -20 16 -25 2 -25 6 -31 -11 -26 -27 -24 -25 rcurveline
          20 -36 -42 10 -46 hhcurveto
          -46 -43 -10 -20 -36 hvcurveto
          -25 25 -27 27 -29 11 -26 -6 rlinecurve
          -24 -2 -21 -16 -7 -27 86 -84 rcurveline
          -18 -32 -10 -39 -46 vvcurveto
          -47 11 -40 19 -32 vhcurveto
          -88 -86 7 -27 20 -16 25 -1 rlinecurve
          26 -7 29 11 27 27 28 28 rcurveline
          -19 35 42 -9 45 hhcurveto
          44 42 9 19 34 hvcurveto
          28 -28 27 -27 30 -11 25 7 rlinecurve
          25 1 20 16 7 27 -87 86 rcurveline
          18 32 11 39 48 vvcurveto
          46 -10 39 -18 32 vhcurveto
          endchar
        </CharString>
        <CharString name="d">
          -18 88 callgsubr
          endchar
        </CharString>
        <CharString name="dagger">
          49 215 callgsubr
          117 72 2 3 53 hvcurveto
          -4 -32 -2 -47 -88 vvcurveto
          -175 4 -240 -1 -93 vhcurveto
          -28 -4 -44 -10 -16 vhcurveto
          -4 14 12 -1 10 hhcurveto
          88 2 92 36 101 -1 163 -1 176 hvcurveto
          -1 80 -1 68 204 callgsubr
        </CharString>
        <CharString name="daggerdbl">
          42 215 callgsubr
          118 73 2 3 51 hvcurveto
          -4 -41 -1 -84 -120 vvcurveto
          -82 0 -37 5 -57 vhcurveto
          -34 1 -43 1 -50 1 rrcurveto
          290 callgsubr
          -13 3 -6 hvcurveto
          90 99 2 3 52 hvcurveto
          -3 -37 -1 -50 -61 vvcurveto
          -32 -3 -43 -10 -16 vhcurveto
          -5 13 13 -1 10 hhcurveto
          86 2 92 35 41 -3 38 -4 38 hvcurveto
          36 -2 44 -1 53 -1 rrcurveto
          35 84 0 84 8 -3 12 -2 6 hvcurveto
          -121 -1 -75 -2 -51 -3 rrcurveto
          4 32 1 74 73 vvcurveto
          -1 130 -1 63 204 callgsubr
        </CharString>
        <CharString name="danda">
          -68 361 536 rmoveto
          161 callgsubr
          12 vhcurveto
          -10 287 callsubr
          endchar
        </CharString>
        <CharString name="dcaron">
          126 88 callgsubr
          135 693 rmoveto
          376 callgsubr
          292 callsubr
          hvcurveto
          endchar
        </CharString>
        <CharString name="dcroat">
          -18 383 123 rmoveto
          -31 -19 -34 -18 -38 hhcurveto
          -71 -52 57 125 129 59 68 72 33 30 -12 -21 20 hvcurveto
          147 172 rmoveto
          40 27 19 29 10 -3 8 -4 4 hvcurveto
          -78 13 hlineto
          364 callsubr
          -18 vhcurveto
          21 -11 10 -18 -30 vvcurveto
          -16 -93 vlineto
          -41 -26 -19 -29 -10 4 -8 3 -4 hvcurveto
          153 -80 hlineto
          10 -27 -33 5 -31 hhcurveto
          -154 -101 -122 -161 -163 104 -91 119 48 50 21 35 30 hvcurveto
          -38 10 25 -18 42 hhcurveto
          34 25 113 callsubr
          505 vlineto
          endchar
        </CharString>
        <CharString name="degree">
          197 244 873 rmoveto
          -99 -73 -66 -98 -99 72 -67 100 99 72 68 99 97 -71 66 -100 hvcurveto
          -248 vmoveto
          -48 -31 36 49 48 30 35 49 48 31 -35 -49 -49 -31 -35 -48 hvcurveto
          endchar
        </CharString>
        <CharString name="dieresis">
          -256 340 670 25 callsubr
          endchar
        </CharString>
        <CharString name="divide">
          81 167 464 rmoveto
          290 callgsubr
          -12 3 -6 hvcurveto
          468 hlineto
          34 85 0 84 8 -2 12 -3 5 hvcurveto
          -205 -243 rmoveto
          320 callgsubr
          408 vmoveto
          320 callgsubr
          endchar
        </CharString>
        <CharString name="dollar">
          61 423 780 rmoveto
          68 -27 32 -56 -34 -25 -17 -22 -18 vhcurveto
          20 -10 11 -18 -30 vvcurveto
          -48 vlineto
          -113 -18 -91 -70 -106 -208 411 -5 -146 vvcurveto
          -65 -63 -43 -89 -91 -52 39 44 22 10 19 14 14 vhcurveto
          16 -17 -24 12 -31 hhcurveto
          -42 -42 -31 -53 -79 78 -59 111 -20 hvcurveto
          -48 vlineto
          -67 25 -33 56 35 25 16 23 17 vhcurveto
          -21 10 -8 18 30 vvcurveto
          45 vlineto
          132 15 106 82 116 212 -411 16 134 vvcurveto
          77 callgsubr
          69 -72 57 -115 16 hvcurveto
          endchar
        </CharString>
        <CharString name="dotaccent">
          -441 155 682 rmoveto
          182 callgsubr
          43 40 40 43 vhcurveto
          endchar
        </CharString>
        <CharString name="dotlessi">
          -317 212 427 126 callgsubr
        </CharString>
        <CharString name="dottedcircle">
          52 139 517 rmoveto
          -26 18 -19 26 26 18 19 26 25 -18 19 -26 -26 -18 -19 -25 vhcurveto
          -82 -110 rmoveto
          -25 20 -19 26 24 20 19 25 25 -20 19 -24 -26 -20 -19 -25 vhcurveto
          -13 -126 rmoveto
          -25 19 -18 25 26 18 18 403 callgsubr
          52 -116 rmoveto
          -26 18 -18 26 25 19 18 26 25 -19 19 -25 -26 -18 -19 -25 vhcurveto
          101 -75 rmoveto
          -26 19 -20 26 25 19 20 26 24 -19 20 -25 -26 -19 -20 -24 vhcurveto
          127 -16 rmoveto
          -26 18 -18 26 26 19 18 26 26 -19 18 -26 -26 -18 -18 -26 vhcurveto
          121 53 rmoveto
          -26 19 -18 25 25 20 18 26 25 -20 19 -25 -25 -19 -19 -25 vhcurveto
          73 98 rmoveto
          -25 19 -19 26 24 19 19 25 26 -19 19 -24 -26 -19 -19 -26 vhcurveto
          10 134 rmoveto
          -26 18 -18 26 25 19 18 26 26 -19 18 -25 -26 -18 -18 -26 vhcurveto
          -50 118 rmoveto
          -25 19 -19 25 26 18 19 403 callgsubr
          -95 68 rmoveto
          -24 19 -20 26 25 18 20 24 26 -18 19 -25 -26 -19 -19 -26 vhcurveto
          -126 15 rmoveto
          -26 18 -18 26 26 18 18 26 26 -18 18 -26 -26 -18 -18 -26 vhcurveto
          endchar
        </CharString>
        <CharString name="doubledanda">
          113 361 536 rmoveto
          161 callgsubr
          12 vhcurveto
          -10 287 callsubr
          243 hmoveto
          161 callgsubr
          13 vhcurveto
          -11 287 callsubr
          endchar
        </CharString>
        <CharString name="dvA">
          156 460 662 18 callsubr
        </CharString>
        <CharString name="dvAA">
          434 460 662 rmoveto
          -65 callgsubr
          198 hlineto
          13 -20 1 -41 -36 -156 -5 -91 -96 vvcurveto
          -42 3 -89 85 9 13 1 5 13 132 callgsubr
          4 -87 callgsubr
          endchar
        </CharString>
        <CharString name="dvAI">
          -31 460 145 callgsubr
          -470 -55 callgsubr
          28 234 callsubr
          -57 -2 -47 -43 -176 349 -29 -106 vvcurveto
          -27 -22 -16 -34 vhcurveto
          -2 16 -63 70 50 27 38 42 vhcurveto
          166 -347 14 158 49 2 47 46 -90 callsubr
          233 hlineto
          17 -24 21 -40 -58 vvcurveto
          -65 -43 -29 -47 -13 -13 2 4 -12 vhcurveto
          -58 3 48 -37 55 hhcurveto
          79 34 64 67 51 -18 65 -40 58 hvcurveto
          168 -85 callsubr
        </CharString>
        <CharString name="dvAU">
          434 937 142 callgsubr
          -406 hlineto
          -65 callgsubr
          198 hlineto
          13 -20 1 -41 -36 -156 -5 -91 -96 vvcurveto
          -42 3 -89 85 9 13 1 5 13 132 callgsubr
          4 -87 callgsubr
          endchar
        </CharString>
        <CharString name="dvAbbreviationsign">
          -214 204 165 rmoveto
          103 54 79 77 75 -50 72 -103 -103 -54 -80 -77 -75 50 -71 103 hvcurveto
          2 236 rmoveto
          47 23 -44 -43 -40 -22 -41 -47 -47 -24 44 43 41 23 40 47 hvcurveto
          endchar
        </CharString>
        <CharString name="dvAcandra">
          156 622 78 callgsubr
          -162 -91 18 callsubr
        </CharString>
        <CharString name="dvAnusvara">
          -608 -132 750 116 callgsubr
          endchar
        </CharString>
        <CharString name="dvAnusvara.amI">
          -608 101 791 116 callgsubr
          endchar
        </CharString>
        <CharString name="dvAvagraha">
          -89 108 561 rmoveto
          -134 247 -79 -121 vvcurveto
          -48 -36 -26 -55 -60 -64 36 72 -61 vhcurveto
          -16 -6 -7 -12 -14 vvcurveto
          -60 125 -111 120 94 65 54 86 vhcurveto
          158 -239 77 89 vvcurveto
          32 25 13 59 47 50 0 -1 44 vhcurveto
          2 6 3 10 10 vvcurveto
          66 -71 4 -85 -76 -111 -2 -99 vhcurveto
          endchar
        </CharString>
        <CharString name="dvB">
          -252 237 callgsubr
          -350 239 callsubr
          50 25 rmoveto
          -57 callgsubr
          105 88 70 72 31 -18 28 -33 14 vhcurveto
          -19 -43 -30 -32 -34 -21 rrcurveto
          endchar
        </CharString>
        <CharString name="dvBA">
          -27 279 217 rmoveto
          -7 -17 -19 -3 -20 hhcurveto
          -54 -48 37 55 48 callsubr
          338 107 callgsubr
          -125 148 65 callgsubr
          -103 109 -124 125 347 callsubr
          vhcurveto
          -7 -22 -4 -24 -24 vvcurveto
          -50 21 -51 63 184 callgsubr
          11 -44 callsubr
        </CharString>
        <CharString name="dvBH">
          -228 399 277 388 callsubr
          -42 5 -74 6 -78 2 rrcurveto
          159 -6 -83 128 -90 7 callsubr
          -37 -1 -29 -1 -23 vhcurveto
          -39 -2 -49 -11 346 callsubr
          251 callsubr
          vhcurveto
          endchar
        </CharString>
        <CharString name="dvBHA">
          41 308 153 callgsubr
          -37 0 -33 -1 -30 vhcurveto
          -53 246 callgsubr
          -90 7 callsubr
          -37 -1 -29 -1 -23 vhcurveto
          -39 -2 -49 -11 346 callsubr
          251 callsubr
          vhcurveto
          179 hlineto
          -2 -56 -1 -47 -49 vvcurveto
          -42 3 -89 85 9 13 1 5 13 -95 callsubr
        </CharString>
        <CharString name="dvBH_LA">
          494 307 -98 callsubr
          490 254 callgsubr
          -65 -52 -31 -55 -24 hvcurveto
          -40 4 -51 3 -51 1 rrcurveto
          159 -6 -83 128 -90 7 callsubr
          -37 -1 -29 -1 -23 vhcurveto
          -39 -2 -49 -11 346 callsubr
          251 callsubr
          vhcurveto
          122 hlineto
          9 hlineto
          -136 7 125 -133 58 hhcurveto
          -88 callgsubr
          21 -3 20 -6 18 vhcurveto
          35 16 34 19 34 332 callgsubr
          -6 15 hvcurveto
          -2 -84 -2 -63 -66 vvcurveto
          -42 3 -89 85 -100 callgsubr
          163 -105 callsubr
        </CharString>
        <CharString name="dvBH_NA">
          41 308 153 callgsubr
          -32 0 -30 -1 -27 vhcurveto
          -53 4 -65 3 -57 2 rrcurveto
          143 -7 -81 132 -91 7 callsubr
          vhcurveto
          -32 -1 -25 -21 vvcurveto
          -40 281 callsubr
          -47 64 -70 61 37 18 36 47 8 vhcurveto
          179 hlineto
          -1 -60 rlineto
          -90 -43 -208 -63 -70 vvcurveto
          -50 69 -43 49 35 28 21 36 15 -5 18 -9 21 vhcurveto
          142 75 rlineto
          -4 -21 -2 -26 -16 vvcurveto
          -52 30 -38 51 9 13 1 5 13 -95 callsubr
        </CharString>
        <CharString name="dvBH_R">
          -228 399 288 388 callsubr
          -43 5 -74 6 -77 2 rrcurveto
          144 -7 -81 132 -91 7 callsubr
          vhcurveto
          -32 -1 -25 -21 vvcurveto
          -40 281 callsubr
          -47 64 -70 61 37 18 35 46 7 vhcurveto
          187 -27 rmoveto
          -60 -54 -131 -93 -135 -32 rrcurveto
          -43 395 callsubr
          88 193 144 64 22 -14 16 -20 8 hvcurveto
          endchar
        </CharString>
        <CharString name="dvBH_RA">
          41 308 153 callgsubr
          -89 vlineto
          -53 4 -66 3 -57 2 rrcurveto
          143 -7 -81 132 -91 7 callsubr
          vhcurveto
          -32 -1 -25 -21 vvcurveto
          -40 281 callsubr
          -47 64 -70 61 37 18 36 47 8 vhcurveto
          180 -28 hlineto
          -63 -50 -152 -98 -111 -24 rrcurveto
          -44 3 35 -35 51 hhcurveto
          40 99 45 102 106 hvcurveto
          -4 -20 -3 -27 -19 vvcurveto
          -48 20 -50 63 9 13 1 5 13 -95 callsubr
        </CharString>
        <CharString name="dvBH_R_YA">
          361 758 -101 callgsubr
          -14 34 -18 27 vhcurveto
          -285 97 rmoveto
          137 callsubr
          vvcurveto
          -72 -94 -32 -41 -39 vhcurveto
          -40 4 -50 3 -51 1 rrcurveto
          144 -7 -81 132 -91 7 callsubr
          vhcurveto
          -32 -1 -25 -21 vvcurveto
          -40 281 callsubr
          -47 64 -70 61 37 18 35 46 7 vhcurveto
          123 hlineto
          7 7 0 1 6 hvcurveto
          8 -14 9 -14 11 -14 -65 -54 -121 -82 -124 -29 rrcurveto
          -43 395 callsubr
          83 174 127 68 22 hvcurveto
          -34 45 56 -25 58 hhcurveto
          57 43 18 25 33 hvcurveto
          -5 -29 -4 -31 -26 vvcurveto
          -54 17 -52 63 -100 callgsubr
          166 -85 callsubr
        </CharString>
        <CharString name="dvBH_VA">
          320 310 95 callsubr
          314 -20 callgsubr
          -64 -71 -38 -83 -11 vhcurveto
          -37 3 -45 3 -45 1 rrcurveto
          159 -6 -83 128 -90 7 callsubr
          -37 -1 -29 -1 -23 vhcurveto
          -39 -2 -49 -11 346 callsubr
          251 callsubr
          vhcurveto
          122 hlineto
          9 8 1 1 7 hvcurveto
          -79 33 84 -71 93 183 callgsubr
          -24 -4 -28 -27 vvcurveto
          -50 20 -51 63 184 callgsubr
          11 -95 callsubr
        </CharString>
        <CharString name="dvBH_YA">
          347 745 -101 callgsubr
          -14 34 -18 27 vhcurveto
          -285 97 rmoveto
          137 callsubr
          vvcurveto
          -77 -109 -32 -35 -43 vhcurveto
          -35 3 -42 2 -42 1 rrcurveto
          159 -6 -83 128 -90 7 callsubr
          -37 -1 -29 -1 -23 vhcurveto
          -39 -2 -49 -11 346 callsubr
          251 callsubr
          vhcurveto
          122 hlineto
          5 5 0 4 hhcurveto
          -67 41 92 -67 95 hhcurveto
          57 43 18 25 33 hvcurveto
          -5 -29 -4 -31 -26 vvcurveto
          -54 17 -52 63 -100 callgsubr
          166 -85 callsubr
        </CharString>
        <CharString name="dvB_BA">
          323 629 217 123 callgsubr
          -221 -150 22 callsubr
          688 107 callgsubr
          -125 148 65 callgsubr
          -17 3 -17 5 -17 vhcurveto
          -17 -24 -21 -19 -23 -14 -129 153 rcurveline
          -57 callgsubr
          76 67 36 48 31 vhcurveto
          -49 43 62 -35 67 hhcurveto
          347 callsubr
          hvcurveto
          -7 -22 -4 -24 -24 vvcurveto
          -50 21 -51 63 184 callgsubr
          11 -44 callsubr
        </CharString>
        <CharString name="dvB_BHA">
          377 281 215 rmoveto
          -4 -16 -16 -3 -18 223 callgsubr
          491 297 292 callgsubr
          -37 0 -33 -1 -30 vhcurveto
          -52 246 callgsubr
          -91 362 callsubr
          -338 103 callgsubr
          304 -3 hlineto
          94 callgsubr
          0 -29 -1 -23 vhcurveto
          -44 -2 -28 -11 -28 -38 -25 -34 -27 -32 -32 -22 -127 151 rcurveline
          -57 callgsubr
          88 69 50 57 38 vhcurveto
          -25 23 30 -18 30 hhcurveto
          251 callsubr
          hvcurveto
          178 hlineto
          -1 -56 -1 -47 -49 vvcurveto
          -42 3 -89 85 9 13 1 5 12 16 callgsubr
        </CharString>
        <CharString name="dvB_BH_RA">
          376 280 215 rmoveto
          -5 -16 219 callsubr
          491 269 callgsubr
          36 301 callsubr
          -89 vlineto
          -53 4 -66 3 -57 2 rrcurveto
          143 -7 -81 132 -91 hhcurveto
          -32 -24 -12 -19 -16 hvcurveto
          27 -21 -43 3 -28 hhcurveto
          -336 103 callgsubr
          304 70 callsubr
          vhcurveto
          -32 -1 -25 -21 vvcurveto
          -84 -5 8 -34 -45 -57 -18 -24 -21 -18 -22 -14 -129 153 rcurveline
          -57 callgsubr
          89 79 52 67 37 vhcurveto
          -17 20 26 -13 26 hhcurveto
          37 18 36 47 8 hvcurveto
          180 -28 hlineto
          -63 -50 -152 -98 -111 -24 rrcurveto
          -44 3 35 -35 51 hhcurveto
          40 99 45 102 106 hvcurveto
          -4 -20 -3 -27 -19 vvcurveto
          -48 20 -50 63 9 13 1 5 13 -95 callsubr
        </CharString>
        <CharString name="dvB_DA">
          221 281 215 22 callsubr
          603 261 callgsubr
          -78 -275 16 -190 vvcurveto
          -9 vlineto
          -14 -15 -15 -13 -17 -10 -129 153 rcurveline
          -57 callgsubr
          58 54 22 31 35 vhcurveto
          -64 50 88 -47 87 hhcurveto
          324 callsubr
          hvcurveto
          -63 callsubr
        </CharString>
        <CharString name="dvB_DHA">
          351 281 215 rmoveto
          -5 -15 -16 -2 -19 223 callgsubr
          553 297 rmoveto
          -2 334 callgsubr
          -79 vvcurveto
          -70 348 callsubr
          -59 -35 -70 -41 -69 hhcurveto
          -48 -41 27 44 379 callgsubr
          36 39 19 36 41 -41 26 -45 -34 -26 -9 -15 -22 hvcurveto
          -7 14 -3 15 16 vvcurveto
          57 37 47 64 vhcurveto
          13 -107 callgsubr
          -553 103 callgsubr
          306 hlineto
          13 25 1 2 23 hvcurveto
          -15 -23 -6 -25 -23 vvcurveto
          -47 23 -44 35 -32 vhcurveto
          -36 -45 -28 -57 -48 -34 -128 152 65 callgsubr
          -115 114 -110 122 75 61 39 47 36 vhcurveto
          -53 38 71 -44 83 hhcurveto
          62 47 22 34 35 hvcurveto
          -6 -27 -3 -28 -19 vvcurveto
          -49 18 -48 64 9 13 194 callgsubr
          166 -107 callgsubr
          endchar
        </CharString>
        <CharString name="dvB_DH_VA">
          670 279 217 rmoveto
          -6 -16 -18 -3 -20 hhcurveto
          -56 -48 34 57 154 callgsubr
          544 269 callgsubr
          277 hlineto
          -60 callsubr
          -49 29 -59 -63 -53 -34 -85 -35 vhcurveto
          -87 -36 -45 -94 -97 hhcurveto
          -44 -37 29 42 379 callgsubr
          37 38 19 36 398 callgsubr
          -31 -25 -8 -14 -22 hvcurveto
          -7 14 -3 16 17 vvcurveto
          53 38 47 63 vhcurveto
          13 -107 callgsubr
          -548 103 callgsubr
          295 hlineto
          20 23 1 3 24 hvcurveto
          -15 -23 -6 -25 -24 vvcurveto
          -46 22 -42 33 -32 vhcurveto
          -38 -42 -29 -55 -42 -35 -123 145 65 callgsubr
          -114 113 -110 117 78 61 47 48 30 vhcurveto
          -57 35 75 -49 85 hhcurveto
          75 67 53 68 30 hvcurveto
          -59 41 68 -43 73 183 callgsubr
          -24 -4 -28 -27 vvcurveto
          -50 20 -51 63 184 callgsubr
          11 -95 callsubr
        </CharString>
        <CharString name="dvB_JA">
          473 281 215 239 callsubr
          169 297 rmoveto
          0 -13 vlineto
          -370 103 callgsubr
          368 0 hlineto
          6 5 0 5 hhcurveto
          455 hlineto
          13 -21 1 -45 -37 vvcurveto
          -14 -324 vlineto
          -3 -5 -2 -11 -7 vvcurveto
          -59 49 -13 38 -2 vhcurveto
          23 -24 15 -30 -29 vvcurveto
          -36 -22 -29 -44 -70 -74 91 149 -51 41 callgsubr
          -18 18 hvcurveto
          173 hlineto
          -1 -90 -3 -67 -68 vvcurveto
          -42 3 -89 85 199 callsubr
        </CharString>
        <CharString name="dvB_JHA">
          490 894 109 callsubr
          -50 -1 -42 -38 vvcurveto
          -26 -24 -40 -19 -55 -63 -44 24 -53 -30 -28 -6 -25 138 callsubr
          27 124 callgsubr
          -493 -361 rmoveto
          -60 -50 36 59 27 11 23 19 16 hvcurveto
          138 -161 rlineto
          -351 458 rmoveto
          -63 callgsubr
          612 42 callgsubr
          -2 0 -69 hlineto
          -157 186 rlineto
          2 9 11 1 11 hhcurveto
          36 26 -12 407 callsubr
          9 4 18 13 vvcurveto
          49 -53 30 -66 -85 -80 -54 -95 -115 118 -116 120 vhcurveto
          118 hlineto
          15 -35 33 -27 43 -19 rrcurveto
          -106 35 62 -105 96 hhcurveto
          46 34 27 39 22 -11 21 -18 13 hvcurveto
          -16 -18 -23 -5 -17 hhcurveto
          -53 -41 42 48 -27 hvcurveto
          -6 27 29 -3 29 hhcurveto
          98 74 54 86 29 -8 25 -12 255 callgsubr
          -39 -3 -41 -40 vvcurveto
          -58 18 -56 68 -100 callgsubr
          163 -105 callsubr
        </CharString>
        <CharString name="dvB_J_YA">
          820 1218 23 callgsubr
          -793 -350 22 callsubr
          965 148 callgsubr
          -75 -100 -30 -31 -42 vhcurveto
          71 -64 -57 2 -100 hhcurveto
          -99 hlineto
          -3 -5 -2 -11 -7 vvcurveto
          -59 49 -13 38 -2 vhcurveto
          23 -24 15 -30 -29 vvcurveto
          -36 -22 -29 -44 -70 -74 91 149 -51 41 callgsubr
          -18 18 hvcurveto
          91 -1 23 -8 71 -88 rrcurveto
          -59 49 79 -51 83 190 callgsubr
          -75 callgsubr
          167 -105 callsubr
        </CharString>
        <CharString name="dvB_JxA">
          480 713 32 rmoveto
          -29 -18 -20 -27 -33 31 -31 33 29 18 21 25 34 -33 31 -31 hvcurveto
          -432 183 239 callsubr
          170 297 rmoveto
          0 -14 vlineto
          -370 103 callgsubr
          368 0 hlineto
          6 5 0 5 hhcurveto
          455 249 callgsubr
          -36 -22 -29 -43 -71 -73 91 149 -52 41 callgsubr
          -17 18 hvcurveto
          303 callgsubr
          -3 -67 -68 vvcurveto
          -42 3 -89 85 9 13 1 5 13 81 callsubr
        </CharString>
        <CharString name="dvB_LA">
          476 281 215 22 callsubr
          842 254 callgsubr
          -91 -65 -61 -102 -1 hvcurveto
          -17 -23 -20 -18 -22 -13 -129 153 rcurveline
          -57 callgsubr
          58 52 21 31 36 vhcurveto
          -91 41 78 -71 43 hhcurveto
          -88 callgsubr
          21 -3 20 -6 18 vhcurveto
          35 16 34 19 34 332 callgsubr
          -6 15 hvcurveto
          -2 -84 -2 -63 -66 vvcurveto
          -42 3 -89 85 -100 callgsubr
          163 -105 callsubr
        </CharString>
        <CharString name="dvB_L_YA">
          815 1213 -101 callgsubr
          -14 34 -18 27 vhcurveto
          -788 -350 22 callsubr
          960 148 callgsubr
          -55 -55 -32 -44 -29 vhcurveto
          23 -24 -37 17 -45 360 callgsubr
          -91 -65 -61 -102 -1 hvcurveto
          -17 -23 -20 -18 -22 -13 -129 153 rcurveline
          -57 callgsubr
          58 52 21 31 36 vhcurveto
          -91 41 78 -71 43 hhcurveto
          -88 callgsubr
          21 -3 19 -6 19 vhcurveto
          34 17 33 20 34 7 6 -1 6 hhcurveto
          -3 vlineto
          342 callsubr
          57 43 18 25 33 vhcurveto
          -5 -29 -4 -31 -26 vvcurveto
          -54 17 -52 63 -100 callgsubr
          166 -85 callsubr
        </CharString>
        <CharString name="dvB_NA">
          -28 278 327 callgsubr
          20 16 hvcurveto
          -215 350 callgsubr
          338 301 callsubr
          -60 -1 -52 -1 -47 vhcurveto
          -15 -28 -21 -23 -24 -17 -126 149 rcurveline
          -66 callgsubr
          -85 -81 -54 -95 -86 75 -97 96 -24 vhcurveto
          -65 -27 -37 -30 -31 vvcurveto
          -50 68 366 callgsubr
          21 -12 25 vhcurveto
          63 39 51 30 26 32 rrcurveto
          -10 -27 -5 -26 -31 vvcurveto
          -50 20 -51 64 184 callgsubr
          10 vhcurveto
          -10 16 -3 46 36 119 5 -99 callgsubr
        </CharString>
        <CharString name="dvB_R">
          -252 455 565 rmoveto
          2 5 4 -87 callgsubr
          -418 103 callgsubr
          246 -354 rmoveto
          -5 -16 -16 -2 -16 hhcurveto
          -63 -52 33 62 154 callgsubr
          50 25 276 callgsubr
          -85 -80 -54 -95 -94 91 -117 120 9 10 1 2 10 vhcurveto
          -55 -33 -60 -30 -56 -18 rrcurveto
          -45 15 34 -15 31 hhcurveto
          86 195 191 84 30 -15 22 -27 10 hvcurveto
          -20 -46 -31 -33 -36 -22 rrcurveto
          endchar
        </CharString>
        <CharString name="dvB_RA">
          -27 281 214 rmoveto
          -5 -17 -18 -3 -20 hhcurveto
          -56 -49 37 56 48 callsubr
          338 297 callsubr
          -128 152 65 callgsubr
          -94 89 -116 115 4 5 0 1 5 vhcurveto
          -50 -33 -56 -29 -50 -18 rrcurveto
          -45 14 35 -15 31 hhcurveto
          77 110 127 55 41 hvcurveto
          -7 -30 -4 -31 -31 vvcurveto
          -52 26 -40 54 184 callgsubr
          11 -44 callsubr
        </CharString>
        <CharString name="dvB_SA">
          484 887 565 rmoveto
          13 -20 0 157 callgsubr
          -44 -11 -49 14 callsubr
          -367 -350 rmoveto
          -5 -16 398 callsubr
          -62 -49 35 56 48 callsubr
          531 hlineto
          34 -26 20 335 callsubr
          -38 -20 -33 -31 -23 7 -21 12 -18 hvcurveto
          -19 -28 -23 -21 -26 -15 -130 154 rcurveline
          -57 callgsubr
          92 80 50 65 34 vhcurveto
          -100 28 54 -141 100 hhcurveto
          48 20 33 30 14 -3 15 -6 368 callgsubr
          -85 401 callgsubr
          37 31 hvcurveto
          -27 50 61 -14 54 hhcurveto
          21 18 1 3 15 hvcurveto
          -1 -44 -1 -40 -40 vvcurveto
          -42 3 -89 85 9 13 1 5 12 16 callgsubr
        </CharString>
        <CharString name="dvB_SHA">
          467 237 callgsubr
          -351 rmoveto
          -4 -16 398 callsubr
          -62 -49 35 56 154 callgsubr
          50 25 rmoveto
          -57 callgsubr
          94 82 48 64 35 vhcurveto
          4 -1 5 -2 4 -1 rrcurveto
          -97 34 64 73 callsubr
          -3 15 -7 110 callgsubr
          -73 358 callsubr
          98 -77 141 -116 247 callsubr
          -69 -61 -87 -1 vhcurveto
          37 -12 -29 56 -49 hhcurveto
          -34 -21 -26 -29 -18 5 -17 9 -16 hvcurveto
          -19 -26 -24 -21 -26 -14 rrcurveto
          488 428 rmoveto
          -3 -5 -1 -79 callsubr
          -27 12 -17 18 -16 vhcurveto
          28 -23 8 -9 -80 -155 118 callsubr
          36 -2 49 -35 -10 callsubr
        </CharString>
        <CharString name="dvB_TA">
          291 281 215 22 callsubr
          659 97 callgsubr
          -31 vlineto
          261 callsubr
          -90 -74 -43 -101 -5 hvcurveto
          -17 -26 -22 -19 -24 -15 -129 153 rcurveline
          -57 callgsubr
          59 53 22 32 35 vhcurveto
          -87 36 63 -73 36 hhcurveto
          16 11 10 10 5 hvcurveto
          310 callgsubr
          30 63 371 callgsubr
          -1 -86 -2 -65 -66 -39 callsubr
          162 -107 callgsubr
          endchar
        </CharString>
        <CharString name="dvB_VA">
          301 281 215 22 callsubr
          667 -20 callgsubr
          -69 -78 -45 -97 -16 3 -16 4 -16 vhcurveto
          -17 -27 -23 -21 -25 -15 -129 153 rcurveline
          -57 callgsubr
          79 69 40 50 30 vhcurveto
          -46 42 59 -33 63 183 callgsubr
          -24 -4 -28 -27 vvcurveto
          -50 20 -51 63 184 callgsubr
          11 -95 callsubr
        </CharString>
        <CharString name="dvB_YA">
          346 743 -101 callgsubr
          -14 34 -18 27 vhcurveto
          -318 -350 239 callsubr
          162 297 rmoveto
          0 -6 vlineto
          -370 103 callgsubr
          368 0 8 206 callsubr
          -13 3 -14 6 -14 vhcurveto
          -18 -29 -23 -21 -26 -16 74 callgsubr
          75 47 57 24 vhcurveto
          -45 47 67 -34 68 hhcurveto
          57 43 18 25 33 hvcurveto
          -5 -29 -4 -31 -26 vvcurveto
          -54 17 -52 63 -100 callgsubr
          166 -85 callsubr
        </CharString>
        <CharString name="dvC">
          -184 480 95 callgsubr
          -459 377 callsubr
          330 -197 rmoveto
          -7 callsubr
          -93 101 -107 120 103 82 69 65 27 -12 31 -39 17 vhcurveto
          322 callsubr
        </CharString>
        <CharString name="dvCA">
          40 -78 -41 callgsubr
          421 301 callsubr
          -56 -1 371 callsubr
          -78 -30 -64 -33 -54 hhcurveto
          -51 -42 30 47 -13 callsubr
          -93 101 -107 120 43 44 16 30 28 vhcurveto
          -4 -24 -3 -26 -25 vvcurveto
          -49 17 -48 63 184 callgsubr
          10 vhcurveto
          -10 16 -3 46 36 119 5 -99 callgsubr
        </CharString>
        <CharString name="dvCH">
          72 727 565 rmoveto
          -107 callsubr
          -684 hlineto
          208 callgsubr
          49 14 14 0 2 19 vhcurveto
          -16 -25 -6 -28 -27 vvcurveto
          -45 18 -43 28 -35 vhcurveto
          -25 -25 -16 -33 -40 vvcurveto
          -133 148 -97 140 166 120 107 163 95 -65 105 -103 359 callsubr
          vhcurveto
          9 -15 4 -19 -19 vvcurveto
          -129 -122 -92 -136 -81 -67 40 66 33 17 24 23 15 vhcurveto
          -7 18 19 -3 19 hhcurveto
          36 312 callsubr
          -47 -26 -25 -5 -9 -22 hvcurveto
          -7 17 -3 17 18 vvcurveto
          45 22 43 45 24 vhcurveto
          endchar
        </CharString>
        <CharString name="dvCHA">
          74 430 565 rmoveto
          10 284 callsubr
          -8 8 -16 368 callsubr
          11 343 callgsubr
          -22 callgsubr
          108 166 77 -36 77 -61 31 vhcurveto
          -3 312 callgsubr
          218 -105 callsubr
        </CharString>
        <CharString name="dvCH_RA">
          72 340 6 232 callsubr
          32 -12 hvcurveto
          75 72 66 43 26 hhcurveto
          44 114 -109 -7 6 hvcurveto
          18 163 callgsubr
          90 559 rmoveto
          10 284 callsubr
          -8 8 -16 368 callsubr
          11 343 callgsubr
          -22 callgsubr
          108 166 77 -36 77 -61 31 vhcurveto
          -3 312 callgsubr
          218 -105 callsubr
        </CharString>
        <CharString name="dvCH_R_YA">
          645 345 6 232 callsubr
          32 -12 hvcurveto
          75 72 67 43 26 hhcurveto
          43 114 -109 -7 6 hvcurveto
          18 163 callgsubr
          699 559 rmoveto
          14 -2 callsubr
          -76 -1 -64 -1 -58 vhcurveto
          -71 -38 -78 -30 181 callsubr
          -74 -74 -17 -24 -52 vhcurveto
          32 -28 -39 20 -45 hhcurveto
          359 callsubr
          hvcurveto
          9 -15 4 -19 -19 vvcurveto
          -129 -122 -92 -22 callgsubr
          107 163 23 -4 23 -7 22 vhcurveto
          20 61 71 15 71 hhcurveto
          27 268 callgsubr
          64 47 30 37 34 vhcurveto
          -4 -24 -2 -26 -16 vvcurveto
          -45 17 -41 57 9 14 1 5 12 -95 callsubr
        </CharString>
        <CharString name="dvCH_YA">
          645 1044 216 callgsubr
          -72 -70 -16 -22 -52 vhcurveto
          -13 16 -16 13 -18 9 -3 312 callgsubr
          -79 hmoveto
          10 -13 5 -23 1 -25 rrcurveto
          -46 -17 -24 -53 -47 vvcurveto
          -72 45 -61 36 8 8 5 5 2 vhcurveto
          -6 7 -14 18 41 313 callgsubr
          11 343 callgsubr
          -22 callgsubr
          108 166 22 -3 22 -5 21 vhcurveto
          19 59 71 15 70 hhcurveto
          27 268 callgsubr
          64 47 30 37 34 vhcurveto
          -4 -24 -2 -26 -16 vvcurveto
          -45 17 -41 57 9 14 1 5 12 -95 callsubr
        </CharString>
        <CharString name="dvC_CA">
          375 413 368 rmoveto
          19 21 3 5 20 hvcurveto
          -11 -17 -4 -19 -20 vvcurveto
          -11 1 -11 3 -11 vhcurveto
          -52 -41 -62 -26 -51 hhcurveto
          -50 -43 301 callgsubr
          -394 294 rmoveto
          -2 -5 -2 -71 callgsubr
          747 197 callsubr
          -577 hlineto
          -3 -5 -2 -10 -7 vvcurveto
          -58 50 -17 42 17 21 4 5 20 vhcurveto
          -11 -17 -4 -19 -20 vvcurveto
          -93 101 -107 120 70 60 32 41 32 vhcurveto
          -43 41 58 -30 64 hhcurveto
          43 44 16 31 28 hvcurveto
          -5 -24 -3 -26 -26 vvcurveto
          -49 18 -48 62 184 callgsubr
          11 -95 callsubr
        </CharString>
        <CharString name="dvC_CHA">
          469 826 133 callgsubr
          -42 25 -46 -29 -24 -6 -10 -20 hvcurveto
          -7 17 -4 18 19 vvcurveto
          45 21 43 45 24 vhcurveto
          -688 97 rmoveto
          -89 callgsubr
          395 hlineto
          19 19 1 2 20 hvcurveto
          -16 -25 -6 -28 -27 vvcurveto
          -47 19 -46 31 -35 vhcurveto
          -61 -61 -36 -90 -101 hhcurveto
          -50 -41 30 47 -13 callsubr
          -93 100 -107 120 56 44 25 32 30 vhcurveto
          -84 48 110 -56 106 hhcurveto
          366 callsubr
          78 -35 76 -62 31 hvcurveto
          -2 312 callgsubr
          217 -105 callsubr
        </CharString>
        <CharString name="dvC_CH_VA">
          453 811 272 callsubr
          -54 -16 -29 -57 -52 vvcurveto
          -88 45 -46 19 -90 vhcurveto
          -19 -39 -44 -11 -46 hhcurveto
          -81 -67 40 66 33 18 24 23 15 hvcurveto
          -5 16 17 -3 17 hhcurveto
          35 38 18 37 39 -43 24 -46 -26 -21 -6 -9 -19 hvcurveto
          -7 17 -4 19 19 vvcurveto
          45 21 43 46 24 vhcurveto
          344 -213 rmoveto
          -62 -28 -55 -44 -39 vhcurveto
          -22 42 -20 40 56 vvcurveto
          48 26 39 37 35 16 -35 -34 vhcurveto
          -123 -373 rmoveto
          -64 -28 -53 -45 -64 hhcurveto
          -46 -39 32 44 64 64 24 80 3 hvcurveto
          31 1 28 4 27 8 rrcurveto
          -22 0 -27 -22 vvcurveto
          -895 683 rmoveto
          -89 callgsubr
          362 hlineto
          29 24 1 2 23 hvcurveto
          -16 -25 -6 -28 -27 vvcurveto
          -48 20 -47 31 -35 vhcurveto
          -60 -56 -35 -89 -96 hhcurveto
          -49 -39 31 46 -13 callsubr
          -92 98 -106 117 50 43 23 32 28 vhcurveto
          19 -34 30 -29 38 -20 rrcurveto
          -32 -21 -22 -36 -50 vvcurveto
          -89 101 -115 113 39 40 13 27 28 vhcurveto
          -4 -18 -2 -19 -19 vvcurveto
          -55 19 -52 61 8 11 1 5 9 vhcurveto
          -8 15 -3 43 33 93 4 80 91 vvcurveto
          26 -3 23 -4 21 vhcurveto
          68 47 39 75 98 vvcurveto
          70 -35 80 -62 33 vhcurveto
          -2 27 -7 28 -20 16 rrcurveto
          217 -85 callsubr
        </CharString>
        <CharString name="dvC_MA">
          423 826 145 callsubr
          -699 97 rmoveto
          -89 callgsubr
          511 256 callsubr
          -18 -1 -16 vhcurveto
          -45 -3 -20 -12 -20 -34 rrcurveto
          -56 -34 -38 -64 -84 hhcurveto
          -51 -42 30 47 -13 callsubr
          -93 101 -107 120 72 63 44 51 27 vhcurveto
          -20 22 26 -13 25 209 callsubr
          188 hlineto
          -2 -56 -1 -47 -49 vvcurveto
          -42 3 -89 85 9 13 1 5 12 vhcurveto
          -10 16 -3 46 36 119 5 -99 callgsubr
        </CharString>
        <CharString name="dvC_NA">
          41 -78 -41 callgsubr
          421 301 callsubr
          -56 -1 371 callsubr
          -78 -30 -64 -33 -54 hhcurveto
          -51 -42 30 47 -13 callsubr
          -71 59 -78 79 -23 vhcurveto
          -80 -37 -53 -37 -36 vvcurveto
          -50 69 366 callgsubr
          20 -12 26 vhcurveto
          79 47 58 28 33 36 rrcurveto
          -6 -27 -3 -30 -29 vvcurveto
          -49 17 -48 63 184 callgsubr
          10 vhcurveto
          -10 -31 callgsubr
        </CharString>
        <CharString name="dvC_R">
          -184 480 95 callgsubr
          -459 377 callsubr
          330 -197 rmoveto
          -7 callsubr
          -75 66 -81 84 -18 vhcurveto
          -62 -30 -67 -25 -56 -11 rrcurveto
          -43 3 33 -33 48 hhcurveto
          88 268 152 106 24 -13 27 -37 16 hvcurveto
          322 callsubr
        </CharString>
        <CharString name="dvC_RA">
          41 -78 -41 callgsubr
          421 301 callsubr
          -56 -1 371 callsubr
          -78 -30 -64 -33 -54 hhcurveto
          -51 -42 30 47 -13 callsubr
          -75 66 -81 84 -18 vhcurveto
          -62 -30 -67 -25 -56 -11 370 callgsubr
          50 hhcurveto
          65 153 98 76 66 hvcurveto
          -5 -27 -3 -29 -28 vvcurveto
          -49 17 -48 63 184 callgsubr
          10 vhcurveto
          -10 -31 callgsubr
        </CharString>
        <CharString name="dvC_YA">
          417 815 23 callgsubr
          -749 97 rmoveto
          -89 callgsubr
          578 148 callgsubr
          -78 -100 -23 -42 -49 vhcurveto
          -48 -43 -9 -115 -116 hhcurveto
          -51 -40 32 45 -13 callsubr
          -93 99 -106 118 84 61 53 58 25 vhcurveto
          -49 48 70 -40 74 190 callgsubr
          -75 callgsubr
          167 -105 callsubr
        </CharString>
        <CharString name="dvCandrabindu">
          -608 -149 909 rmoveto
          35 24 26 33 44 -40 39 -42 -36 -24 -26 -34 -43 40 -39 43 hvcurveto
          -172 12 219 callgsubr
        </CharString>
        <CharString name="dvD">
          -128 244 -28 -48 callsubr
          283 593 rmoveto
          -107 callsubr
          -485 377 callsubr
          255 261 callgsubr
          -78 -275 16 -190 vvcurveto
          -115 134 -109 133 17 16 2 3 16 vhcurveto
          -53 24 46 -48 57 hhcurveto
          49 24 32 32 29 -15 24 -21 17 hvcurveto
          -21 -13 -18 -14 -24 hhcurveto
          -21 -18 10 13 -14 hvcurveto
          28 19 18 28 41 vvcurveto
          47 -36 48 -46 -39 -29 -30 -40 -15 3 -14 5 -13 vhcurveto
          -8 -18 -21 -3 -22 hhcurveto
          -59 361 callgsubr
          -15 25 -18 18 vhcurveto
          endchar
        </CharString>
        <CharString name="dvDA">
          -122 -57 -41 callgsubr
          255 261 callgsubr
          -78 -275 16 -190 vvcurveto
          -115 134 -109 133 324 callsubr
          vhcurveto
          -63 callsubr
        </CharString>
        <CharString name="dvDA_mvR">
          -134 -64 -98 callsubr
          239 375 callsubr
          -24 -24 1 -18 hhcurveto
          -93 -45 -47 -63 -35 16 -37 26 -32 hvcurveto
          -27 -22 -18 -31 -39 vvcurveto
          -107 118 -78 115 100 74 49 62 38 -29 31 -34 6 vhcurveto
          -65 -26 -67 -35 -71 hhcurveto
          -45 -43 25 42 25 14 15 18 10 hvcurveto
          -6 15 17 -4 16 hhcurveto
          36 39 19 39 40 -43 24 -47 -20 -20 -3 -6 -19 hvcurveto
          -5 10 -3 11 11 vvcurveto
          32 21 27 56 vhcurveto
          18 26 -1 17 hhcurveto
          79 30 41 40 31 -15 33 -28 26 86 callsubr
        </CharString>
        <CharString name="dvDD">
          -88 262 -32 -48 callsubr
          -319 694 -47 callsubr
        </CharString>
        <CharString name="dvDDA">
          -88 -57 662 -47 callsubr
        </CharString>
        <CharString name="dvDDH">
          -106 238 -18 -48 callsubr
          -307 680 rmoveto
          -89 callgsubr
          252 hlineto
          10 -9 7 -11 -10 -75 -276 9 -204 -61 callgsubr
        </CharString>
        <CharString name="dvDDHA">
          -106 -69 -41 callgsubr
          252 hlineto
          10 -9 7 -11 -10 -75 -276 9 -204 -61 callgsubr
        </CharString>
        <CharString name="dvDDH_DDHA">
          -93 -73 callgsubr
          252 hlineto
          9 -8 7 -10 -10 -62 -276 8 -165 vvcurveto
          -85 68 -79 83 -41 vhcurveto
          -76 -24 -75 -50 -87 vvcurveto
          -123 146 -108 127 112 68 55 71 87 -79 67 -78 -50 -53 -29 -56 -41 30 -27 31 6 9 1 3 7 vhcurveto
          -2 15 0 13 4 12 rrcurveto
          22 6 17 15 23 hhcurveto
          23 20 -16 -28 -42 -49 -43 -79 -76 -70 47 72 hvcurveto
          170 360 -56 188 vvcurveto
          79 -80 65 -75 -50 -53 -29 -55 -42 30 -27 30 7 9 1 4 7 vhcurveto
          -3 10 -1 11 2 10 rrcurveto
          28 5 20 17 25 hhcurveto
          23 20 -16 -27 -43 -51 -45 -80 -75 -69 48 71 hvcurveto
          132 271 -28 121 vvcurveto
          26 -16 20 -16 13 vhcurveto
          203 -85 callsubr
        </CharString>
        <CharString name="dvDDH_R">
          -106 429 -215 -1 callsubr
          -324 832 rmoveto
          -89 callgsubr
          252 hlineto
          10 -9 7 -11 -10 -75 -276 9 -204 -61 callgsubr
        </CharString>
        <CharString name="dvDDH_RA">
          -106 247 -8 228 callsubr
          43 114 -109 -7 6 hvcurveto
          18 163 callgsubr
          -316 670 rmoveto
          -89 callgsubr
          252 hlineto
          10 -9 7 -11 -10 -75 -276 9 -204 -61 callgsubr
        </CharString>
        <CharString name="dvDDH_YA">
          487 887 320 callsubr
          -77 -26 -56 hhcurveto
          -28 -32 406 callgsubr
          -65 89 -103 -120 -95 -111 -59 -38 vhcurveto
          6 -18 -18 4 -19 hhcurveto
          -57 -46 -37 -55 -48 36 -28 35 7 9 1 3 6 hvcurveto
          -1 13 0 13 2 12 rrcurveto
          32 6 20 16 22 hhcurveto
          21 18 -16 -28 -49 -49 -51 -78 -76 -71 49 75 hvcurveto
          166 277 -28 126 vvcurveto
          33 -18 24 -18 16 vhcurveto
          -427 97 rmoveto
          -89 callgsubr
          252 hlineto
          10 -9 7 -11 -10 -75 -276 9 -204 vvcurveto
          -136 154 -106 120 103 77 55 87 34 -12 31 -18 26 vhcurveto
          72 49 84 72 86 hhcurveto
          26 12 253 callsubr
          16 -45 60 9 13 1 5 12 16 callgsubr
        </CharString>
        <CharString name="dvDDHxA">
          -106 258 -32 -68 callgsubr
          -327 694 rmoveto
          -89 callgsubr
          252 hlineto
          10 -9 7 -11 -10 -75 -276 9 -204 -61 callgsubr
        </CharString>
        <CharString name="dvDD_DDA">
          -78 -69 callsubr
          294 hlineto
          14 -10 8 -12 -13 vvcurveto
          -19 -16 -10 -30 vhcurveto
          -42 -31 1 -32 hhcurveto
          -86 -50 -38 -60 -86 89 -73 91 hvcurveto
          50 51 8 33 hhcurveto
          27 12 -12 -16 -35 377 callgsubr
          -7 -21 vvcurveto
          -26 32 -37 56 -26 vhcurveto
          -28 -16 -16 -24 -31 vvcurveto
          -82 89 -68 90 vhcurveto
          50 51 7 33 hhcurveto
          27 12 -11 -17 -34 377 callgsubr
          -8 -21 vvcurveto
          -54 141 -91 163 89 78 43 79 56 -58 89 -106 vhcurveto
          -43 -50 -7 -40 hhcurveto
          -31 -24 11 26 34 62 6 38 hvcurveto
          7 42 -1 36 hhcurveto
          89 78 42 79 57 -58 89 -106 hvcurveto
          -43 -50 -8 -40 hhcurveto
          -31 -24 12 25 34 62 7 293 callgsubr
          2 5 4 -87 callgsubr
          endchar
        </CharString>
        <CharString name="dvDD_DDHA">
          -70 -58 662 227 callgsubr
          -37 -61 -86 90 -72 90 hvcurveto
          50 51 7 33 hhcurveto
          27 12 -11 -17 -35 -66 -20 -76 -98 -84 32 52 -51 hvcurveto
          -7 -4 -14 -7 -21 vvcurveto
          -34 55 -49 80 -30 vhcurveto
          -65 -25 -47 -42 -71 vvcurveto
          -125 154 -100 116 112 69 56 70 87 -79 67 -78 -51 -52 -29 -56 -42 30 -26 30 7 9 1 3 7 vhcurveto
          -3 13 0 11 2 11 rrcurveto
          26 6 19 16 23 hhcurveto
          23 21 -16 -28 -42 -50 -43 -78 -77 -70 47 72 92 117 29 112 18 hvcurveto
          68 10 62 37 67 vvcurveto
          57 -58 88 -107 vhcurveto
          -43 -50 -7 -40 hhcurveto
          -31 -24 11 25 35 62 6 293 callgsubr
          13 callsubr
          -66 6 -39 vhcurveto
          endchar
        </CharString>
        <CharString name="dvDD_R">
          -88 446 -232 -1 callsubr
          -329 849 -47 callsubr
        </CharString>
        <CharString name="dvDD_RA">
          -88 266 201 callsubr
          -323 684 -47 callsubr
        </CharString>
        <CharString name="dvDD_VA">
          -74 346 8 rmoveto
          -21 0 -18 -1 -18 vhcurveto
          -41 -31 -48 -21 -43 hhcurveto
          -44 -38 23 46 41 38 39 94 26 24 2 3 22 hvcurveto
          1 -10 0 -12 -13 vvcurveto
          -404 654 227 callgsubr
          -41 -67 -94 90 -75 90 hvcurveto
          47 49 6 30 hhcurveto
          31 13 -13 -19 -41 -64 -25 -75 210 callgsubr
          -9 -3 -14 -7 -21 vvcurveto
          -31 41 -47 64 -32 vhcurveto
          -40 -18 -31 -35 -51 vvcurveto
          -79 88 -100 105 40 32 13 21 24 vhcurveto
          -4 -13 -2 -14 -14 vvcurveto
          -47 23 -40 51 9 10 1 4 9 vhcurveto
          -9 15 -3 41 32 61 4 46 58 vvcurveto
          28 -1 40 -22 22 vhcurveto
          54 21 29 37 51 vvcurveto
          84 -75 78 -94 vhcurveto
          -41 -48 -7 -39 hhcurveto
          -31 -24 11 26 38 62 332 callsubr
          31 -1 30 hhcurveto
          81 27 41 40 27 -14 30 -24 23 hvcurveto
          179 -85 callsubr
        </CharString>
        <CharString name="dvDD_YA">
          496 901 320 callsubr
          -76 -26 -57 hhcurveto
          -27 -33 406 callgsubr
          -62 89 -98 -123 -98 -124 -60 -33 vhcurveto
          8 -20 -22 5 -23 -41 -47 -7 -37 hhcurveto
          -31 -25 13 28 43 61 332 callsubr
          17 365 callgsubr
          -11 30 -24 25 hvcurveto
          -453 -77 callgsubr
          280 88 callsubr
          -30 vhcurveto
          1 -42 -20 0 372 callgsubr
          -42 -70 -97 90 -78 91 hvcurveto
          45 48 7 30 hhcurveto
          32 275 callsubr
          164 333 callgsubr
          34 -11 32 -19 28 vhcurveto
          79 48 85 82 89 hhcurveto
          22 9 253 callsubr
          17 -45 59 9 13 1 5 12 16 callgsubr
        </CharString>
        <CharString name="dvDDxA">
          -88 277 -65 -68 callgsubr
          -334 727 -47 callsubr
        </CharString>
        <CharString name="dvDH">
          -209 250 565 rmoveto
          -3 callsubr
          -84 98 -100 127 114 103 76 75 26 -16 30 -45 7 vhcurveto
          -77 -33 -80 -56 -87 35 callgsubr
          -27 -7 -14 -25 213 callgsubr
          39 47 62 vhcurveto
          endchar
        </CharString>
        <CharString name="dvDHA">
          11 366 -41 callsubr
          -221 hlineto
          -3 -5 -1 136 callsubr
          15 1 1 18 vhcurveto
          -15 -23 -5 -25 -23 49 callgsubr
          -28 -34 vvcurveto
          -84 98 -100 127 61 47 21 34 35 vhcurveto
          -6 -26 -3 -28 -19 vvcurveto
          -49 19 -48 63 -21 callsubr
        </CharString>
        <CharString name="dvDH_MA">
          385 788 226 callgsubr
          -265 97 rmoveto
          -89 callgsubr
          77 hlineto
          162 callsubr
          -83 -5 6 -31 -39 -63 rrcurveto
          -65 -40 -56 -23 -44 hhcurveto
          -50 -42 27 43 29 14 20 18 14 hvcurveto
          -4 15 16 -2 15 41 callsubr
          -83 99 -98 128 77 69 45 58 33 vhcurveto
          -19 21 26 -14 26 209 callsubr
          187 hlineto
          -1 -56 -1 -47 -49 vvcurveto
          -42 3 -89 85 9 13 1 5 12 16 callgsubr
        </CharString>
        <CharString name="dvDH_NA">
          11 366 662 109 callgsubr
          27 -23 8 -9 -79 vvcurveto
          -69 348 callsubr
          -59 -32 -69 -42 -74 77 callsubr
          -221 hlineto
          -3 -5 -1 136 callsubr
          15 1 1 18 vhcurveto
          -15 -23 -5 -25 -23 49 callgsubr
          -28 -34 vvcurveto
          -64 54 -67 77 -25 vhcurveto
          -74 -26 -52 -35 -36 vvcurveto
          -51 68 -44 49 35 28 20 36 16 -5 19 -10 23 vhcurveto
          96 49 64 19 38 43 rrcurveto
          -6 -28 -3 -31 -20 vvcurveto
          -49 19 -48 63 -21 callsubr
        </CharString>
        <CharString name="dvDH_N_YA">
          31 callsubr
          -61 51 -68 75 -32 vhcurveto
          -106 -24 -48 -35 -36 vvcurveto
          -50 69 -45 49 34 29 21 36 17 -7 20 -11 26 vhcurveto
          151 31 87 65 33 79 rrcurveto
          -51 46 74 -43 77 -6 callsubr
          62 9 14 1 5 12 194 callsubr
          13 callsubr
          -66 6 -39 vhcurveto
          endchar
        </CharString>
        <CharString name="dvDH_R">
          -209 250 565 rmoveto
          -3 callsubr
          -78 82 -86 106 -3 vhcurveto
          -66 -25 -74 -23 -56 -9 rrcurveto
          -43 1 30 -34 45 hhcurveto
          108 262 164 109 23 -15 29 -42 6 hvcurveto
          -77 -33 -80 -56 -87 66 callgsubr
          endchar
        </CharString>
        <CharString name="dvDH_RA">
          11 366 -41 callsubr
          -221 hlineto
          -3 -5 -1 136 callsubr
          15 1 1 18 vhcurveto
          -15 -23 -5 -25 -23 49 callgsubr
          -28 -34 vvcurveto
          -73 73 -81 97 -12 vhcurveto
          -61 -26 -67 -23 -50 -9 rrcurveto
          -45 1 34 -35 52 hhcurveto
          58 149 82 107 84 hvcurveto
          -7 -30 -4 -35 -22 vvcurveto
          -49 19 -48 63 -21 callsubr
        </CharString>
        <CharString name="dvDH_VA">
          339 328 662 rmoveto
          -2 -5 -2 -71 callgsubr
          314 215 callsubr
          46 -43 31 -54 vhcurveto
          -213 53 -299 -184 hhcurveto
          -44 -37 29 42 29 14 20 18 14 hvcurveto
          -4 15 16 -2 15 41 callsubr
          -84 96 -99 124 78 66 52 69 35 vhcurveto
          -58 41 68 -44 73 hhcurveto
          44 42 16 30 29 hvcurveto
          -7 -25 -4 -28 -27 vvcurveto
          -50 20 -51 64 7 17 1 5 10 16 callgsubr
        </CharString>
        <CharString name="dvDH_YA">
          31 callsubr
          -83 95 -98 123 84 73 58 67 31 vhcurveto
          -51 46 74 -43 77 -6 callsubr
          62 9 14 1 5 12 194 callsubr
          13 callsubr
          -66 6 -39 vhcurveto
          endchar
        </CharString>
        <CharString name="dvD_BA">
          -38 311 391 callsubr
          20 hvcurveto
          -51 -21 -39 -34 -24 vhcurveto
          -91 106 rlineto
          1 9 9 0 10 hhcurveto
          20 -129 rmoveto
          -6 -17 -18 -3 -19 hhcurveto
          -48 -45 21 43 178 callsubr
          -101 126 -74 83 106 69 67 80 7 30 callgsubr
        </CharString>
        <CharString name="dvD_BHA">
          143 -60 -41 callgsubr
          485 hlineto
          9 -7 6 -8 -10 -67 -300 38 -173 vvcurveto
          -78 82 -79 98 -32 vhcurveto
          -34 -12 -35 -14 -38 -15 rrcurveto
          88 -52 -79 70 -82 hhcurveto
          -52 -44 -34 -52 -54 47 -54 50 17 16 6 12 9 hvcurveto
          -26 16 -16 30 27 vvcurveto
          19 12 16 20 32 37 -70 -59 26 vhcurveto
          -26 -14 -29 -21 -31 vvcurveto
          -53 70 -29 47 38 31 18 38 15 -3 16 -5 17 vhcurveto
          220 110 rlineto
          -60 28 45 -59 69 hhcurveto
          48 299 callgsubr
          -19 hvcurveto
          28 19 19 30 40 vvcurveto
          44 -31 43 -42 -39 -30 -29 -40 -14 3 -13 6 -13 vhcurveto
          -8 -22 -25 -3 -26 hhcurveto
          -57 -73 22 65 hvcurveto
          122 299 -47 122 vvcurveto
          26 -14 21 -17 15 vhcurveto
          208 -105 callsubr
        </CharString>
        <CharString name="dvD_B_RA">
          -38 311 129 rmoveto
          24 23 3 5 22 hvcurveto
          1 -53 -22 -41 -34 -25 -95 110 rcurveline
          1 9 9 0 10 hhcurveto
          24 -133 rmoveto
          -6 -17 -19 -3 -19 hhcurveto
          -49 -47 23 45 178 callsubr
          -87 86 -57 80 vhcurveto
          7 hlineto
          -44 -21 -48 -17 -43 -13 rrcurveto
          -47 4 38 -14 31 hhcurveto
          72 184 100 131 21 hvcurveto
          -25 24 30 -17 37 hhcurveto
          48 28 305 callgsubr
          -21 162 callgsubr
          -19 hvcurveto
          29 20 18 29 40 vvcurveto
          44 -30 43 -43 82 callgsubr
          207 -105 callsubr
        </CharString>
        <CharString name="dvD_DA">
          -121 -64 -98 callsubr
          251 375 callsubr
          -28 -28 1 -22 hhcurveto
          -93 -45 -47 -63 -34 16 -36 26 -30 hvcurveto
          -27 -22 -18 -33 -39 vvcurveto
          -88 108 -103 137 30 32 5 12 27 vhcurveto
          4 -11 2 -12 -10 vvcurveto
          -37 -28 -24 -39 -5 vhcurveto
          -40 7 34 -25 33 hhcurveto
          53 28 37 47 40 -19 38 -28 33 hvcurveto
          18 19 12 25 31 vvcurveto
          44 -34 43 -42 -33 -26 -26 -32 -19 6 -17 11 -15 vhcurveto
          -16 -25 -29 -8 -36 hhcurveto
          -57 -54 28 51 25 15 18 19 12 hvcurveto
          -6 15 15 -3 16 hhcurveto
          36 38 20 39 39 -43 24 -46 -20 -21 -3 -7 -19 hvcurveto
          -4 9 -3 10 9 vvcurveto
          31 21 26 58 vhcurveto
          22 30 -1 21 hhcurveto
          77 30 42 41 31 -15 33 -28 26 hvcurveto
          176 -85 callsubr
        </CharString>
        <CharString name="dvD_DHA">
          111 461 129 172 callgsubr
          -53 39 -54 58 -38 vhcurveto
          -19 -56 -25 -41 -53 hhcurveto
          -31 -20 18 29 hvcurveto
          37 40 35 46 vvcurveto
          47 -34 28 -40 -5 -7 -1 -1 -4 vhcurveto
          3 -8 1 -9 -8 -41 -42 -32 -53 vvcurveto
          -85 85 -74 82 14 14 2 5 12 vhcurveto
          -84 8 110 -60 82 callsubr
        </CharString>
        <CharString name="dvD_GA">
          -53 -53 662 254 callsubr
          9 -8 5 -9 -10 -71 -319 37 -190 -96 117 -59 -84 vvcurveto
          -19 -4 -13 -8 -15 vhcurveto
          22 -13 -25 12 -20 hhcurveto
          -27 -22 -18 -34 -61 58 -44 53 55 44 40 73 40 -14 37 -22 32 hvcurveto
          -14 39 39 -8 33 hhcurveto
          22 21 2 5 20 hvcurveto
          -62 27 45 -63 71 hhcurveto
          49 380 callgsubr
          -20 12 hvcurveto
          -13 -8 -18 -12 -25 hhcurveto
          -32 -28 21 24 -19 hvcurveto
          29 20 19 29 40 vvcurveto
          44 -30 42 -43 -38 -31 -28 -41 -13 3 -13 5 -12 vhcurveto
          -9 -24 -29 -4 -29 hhcurveto
          -60 -78 23 67 hvcurveto
          137 319 -49 132 vvcurveto
          27 -14 22 -16 15 vhcurveto
          189 -85 callsubr
        </CharString>
        <CharString name="dvD_GHA">
          111 284 186 rmoveto
          -19 -54 -25 -40 -52 hhcurveto
          -32 -22 18 30 32 27 27 49 48 26 -26 -22 35 hvcurveto
          177 -57 172 callgsubr
          -11 2 -12 4 -11 vhcurveto
          9 -22 -25 5 -18 hhcurveto
          -80 -37 -47 -48 -87 85 -75 83 14 13 2 5 12 hvcurveto
          -83 8 110 -61 82 callsubr
        </CharString>
        <CharString name="dvD_G_RA">
          -53 -53 662 126 callsubr
          -82 93 -50 -80 vvcurveto
          -23 -4 -15 -10 -13 vhcurveto
          22 -13 -24 12 -21 hhcurveto
          -26 -23 -18 -34 -61 59 -44 52 55 44 40 73 37 -9 32 -14 28 hvcurveto
          32 -12 33 -8 30 -4 rrcurveto
          5 -19 1 -30 -28 -33 -1 -30 -28 vvcurveto
          -52 -41 -118 -80 -90 -21 rrcurveto
          -33 4 25 -27 37 hhcurveto
          34 85 40 77 84 hvcurveto
          -4 -16 -3 -23 -17 vvcurveto
          -37 13 -40 51 7 10 1 4 9 vhcurveto
          -9 13 -2 37 29 71 3 75 71 vvcurveto
          27 0 37 -20 23 vhcurveto
          10 2 10 2 10 3 rrcurveto
          -62 28 45 -62 70 hhcurveto
          49 380 callgsubr
          -21 12 hvcurveto
          -13 -7 -19 -13 -24 hhcurveto
          -34 -28 21 25 -19 hvcurveto
          28 20 17 30 37 vvcurveto
          44 -31 43 -42 82 callgsubr
          189 -85 callsubr
        </CharString>
        <CharString name="dvD_MA">
          115 525 565 rmoveto
          12 -19 0 -39 -34 vvcurveto
          -120 -2 -88 -1 -76 vhcurveto
          -44 2 -48 2 -41 1 rrcurveto
          81 -27 -69 60 -78 -32 -23 -11 -26 hhcurveto
          -26 -20 11 27 41 62 4 37 hvcurveto
          30 31 -1 31 hhcurveto
          77 30 40 40 27 -13 29 -24 23 hvcurveto
          -427 -77 callgsubr
          252 hlineto
          15 -11 8 -13 -13 vvcurveto
          -21 -16 -11 -30 vhcurveto
          -42 -31 1 372 callgsubr
          -38 -63 -88 81 -72 89 hvcurveto
          32 25 14 30 hhcurveto
          26 7 -21 -35 2 hvcurveto
          -40 -2 -40 -13 -44 vvcurveto
          -50 66 -62 47 33 24 25 52 5 vhcurveto
          122 -35 hlineto
          -40 2 -85 81 9 12 1 5 12 vhcurveto
          -10 16 -3 43 35 139 5 144 140 vvcurveto
          33 -2 46 -31 23 322 callgsubr
        </CharString>
        <CharString name="dvD_NA">
          -118 -57 -41 callgsubr
          255 261 callgsubr
          -73 -275 14 -179 vvcurveto
          -102 101 -93 121 -9 vhcurveto
          -91 -40 -67 -42 -40 364 callgsubr
          36 17 -6 21 -12 25 vhcurveto
          47 30 41 28 32 29 rrcurveto
          18 -19 10 -24 -21 vvcurveto
          -27 -16 -25 -33 -7 vhcurveto
          -31 13 30 -15 30 hhcurveto
          45 29 35 43 55 -43 48 -45 29 hvcurveto
          17 24 10 24 27 vvcurveto
          42 -26 43 -46 -37 -29 -29 -39 -18 6 -17 8 -15 vhcurveto
          -8 -21 -25 -3 -24 hhcurveto
          -60 -63 33 67 hvcurveto
          141 276 -31 127 343 callsubr
          147 -105 callsubr
        </CharString>
        <CharString name="dvD_R">
          -115 268 -89 -48 callsubr
          -325 751 rmoveto
          -89 callgsubr
          255 261 callgsubr
          -73 -275 14 -179 -3 callgsubr
        </CharString>
        <CharString name="dvD_RA">
          -115 -57 -41 callgsubr
          255 261 callgsubr
          -73 -275 14 -179 -3 callgsubr
        </CharString>
        <CharString name="dvD_VA">
          -38 311 283 callgsubr
          -311 533 242 callsubr
          56 -38 vhcurveto
          -44 -17 -32 -33 -49 vvcurveto
          -99 123 -73 81 106 68 63 75 8 30 callgsubr
        </CharString>
        <CharString name="dvD_YA">
          16 419 147 callsubr
          -61 -1 -54 -1 -49 vhcurveto
          -83 -35 -71 -78 -98 hhcurveto
          -45 -36 22 37 22 14 16 19 11 hvcurveto
          -8 18 19 -6 21 hhcurveto
          39 37 22 37 42 -46 24 -47 -24 -24 -3 -7 -21 hvcurveto
          -3 7 -2 7 7 65 148 -29 93 vvcurveto
          24 -13 22 -14 17 vhcurveto
          -331 -77 callgsubr
          164 hlineto
          5 -5 5 -7 -7 -42 -151 22 -111 vvcurveto
          -36 19 -30 20 -23 vhcurveto
          -28 -21 -17 -30 -37 vvcurveto
          -79 101 -94 131 65 49 25 40 37 vhcurveto
          -2 -16 -1 -16 -16 vvcurveto
          -54 21 -48 61 9 13 1 5 13 vhcurveto
          -10 16 -4 46 36 119 5 136 -96 callsubr
          164 -20 callsubr
        </CharString>
        <CharString name="dvE">
          -31 -73 callgsubr
          28 234 callsubr
          -57 -2 -47 -43 -176 349 -29 -106 vvcurveto
          -27 -22 -16 -34 vhcurveto
          -2 16 -63 70 50 27 38 42 vhcurveto
          166 -347 14 158 49 2 47 46 -90 callsubr
          233 hlineto
          17 -24 21 -40 -58 vvcurveto
          -65 -43 -29 -47 -13 -13 2 4 -12 vhcurveto
          -58 3 48 -37 55 hhcurveto
          79 34 64 67 51 -18 65 -40 58 hvcurveto
          168 -85 callsubr
        </CharString>
        <CharString name="dvEcandra">
          -31 310 78 callgsubr
          -376 -91 -104 callgsubr
          28 234 callsubr
          -57 -2 -47 -43 -176 349 -29 -106 vvcurveto
          -27 -22 -16 -34 vhcurveto
          -2 16 -63 70 50 27 38 42 vhcurveto
          166 -347 14 158 49 2 47 46 -90 callsubr
          233 hlineto
          17 -24 21 -40 -58 vvcurveto
          -65 -43 -29 -47 -13 -13 2 4 -12 vhcurveto
          -58 3 48 -37 55 hhcurveto
          79 34 64 67 51 -18 65 -40 58 hvcurveto
          168 -85 callsubr
        </CharString>
        <CharString name="dvEight">
          -125 392 249 rmoveto
          -92 -47 -71 -31 -52 hhcurveto
          -58 -39 35 55 59 51 66 37 43 hvcurveto
          95 115 70 57 61 vvcurveto
          32 -20 26 -35 10 vhcurveto
          0 -111 -134 -112 -124 vhcurveto
          -47 -54 -23 -58 -55 vvcurveto
          -122 109 -98 129 124 55 74 58 32 -19 31 -36 14 vhcurveto
          endchar
        </CharString>
        <CharString name="dvEyelash">
          -319 -60 -41 callgsubr
          301 -107 callgsubr
          126 -236 rmoveto
          -35 -38 -69 -26 -70 hhcurveto
          -60 -58 17 29 -37 hvcurveto
          -10 -6 -7 -12 -13 vvcurveto
          -50 108 -61 110 103 60 43 53 21 -9 24 -23 16 vhcurveto
          endchar
        </CharString>
        <CharString name="dvEyelash_HA">
          43 -66 -41 callgsubr
          445 100 callgsubr
          -28 hhcurveto
          -101 -39 -52 -61 hvcurveto
          -9 vlineto
          -7 -26 -28 -4 -29 hhcurveto
          -62 -59 15 29 -40 hvcurveto
          -11 -6 -7 -12 -14 vvcurveto
          -48 110 -59 111 28 28 3 7 27 vhcurveto
          4 -5 5 -5 4 -6 rrcurveto
          -29 -28 -18 -40 -48 vvcurveto
          -134 133 -106 144 43 24 18 25 6 -2 10 -3 7 vhcurveto
          -3 -16 -16 -2 -16 hhcurveto
          -96 -96 314 callgsubr
          209 callgsubr
          hvcurveto
          -44 5 37 -21 37 hhcurveto
          51 38 40 53 76 -84 94 -117 -32 -31 -7 -12 -26 hvcurveto
          -9 14 -6 15 16 vvcurveto
          30 20 29 53 vhcurveto
          29 27 -1 30 hhcurveto
          68 259 callsubr
          -28 27 hvcurveto
          177 -20 callsubr
        </CharString>
        <CharString name="dvEyelash_YA">
          199 596 565 340 callsubr
          -48 -1 -45 vhcurveto
          -57 -37 -78 -25 -26 callsubr
          27 107 vvcurveto
          39 -13 34 -19 27 vhcurveto
          -512 97 rmoveto
          -89 callgsubr
          341 393 callgsubr
          -76 -114 -63 -115 -62 -60 15 29 -40 vhcurveto
          -10 -6 -7 -12 -14 vvcurveto
          -48 108 -58 110 20 20 2 3 19 vhcurveto
          -66 15 104 -85 107 -6 callsubr
          62 9 14 1 5 12 194 callsubr
          13 callsubr
          -65 6 -39 vhcurveto
          endchar
        </CharString>
        <CharString name="dvFive">
          -60 540 60 rmoveto
          -3 -10 -12 -1 -10 hhcurveto
          -74 -32 57 67 -19 hvcurveto
          36 21 26 34 46 vvcurveto
          62 -40 38 -41 -37 -35 -29 -52 -17 3 -19 6 -16 vhcurveto
          -8 -19 -27 -5 -27 hhcurveto
          -62 -37 44 54 118 123 117 103 32 hvcurveto
          15 -15 47 -63 -89 -156 -141 -141 -127 117 -98 132 15 15 1 3 14 vhcurveto
          -94 26 45 -112 86 hhcurveto
          49 19 33 30 15 -3 17 -7 12 hvcurveto
          endchar
        </CharString>
        <CharString name="dvFour">
          -94 241 112 rmoveto
          -45 -35 33 48 43 42 41 52 42 hvcurveto
          40 -37 28 -41 -47 vvcurveto
          -47 -38 -35 -44 vhcurveto
          133 529 rmoveto
          3 -9 1 -8 -8 vvcurveto
          -72 -80 -54 -80 -60 vhcurveto
          -49 39 -39 35 35 vvcurveto
          27 23 13 13 3 vhcurveto
          43 -34 30 -40 -38 -38 -27 -54 -71 76 -55 76 -58 vhcurveto
          -56 -47 -45 -52 -67 vvcurveto
          -84 87 -101 122 81 73 59 84 69 -57 58 -64 52 vhcurveto
          79 60 81 64 76 vvcurveto
          44 -30 37 -49 vhcurveto
          endchar
        </CharString>
        <CharString name="dvG">
          -262 14 callgsubr
          213 -85 callsubr
        </CharString>
        <CharString name="dvGA">
          -13 14 callgsubr
          207 216 callsubr
          13 vhcurveto
          -11 -31 callgsubr
        </CharString>
        <CharString name="dvGH">
          -214 429 565 rmoveto
          -107 callsubr
          -396 hlineto
          60 callsubr
          -85 100 -101 125 118 99 82 72 26 -17 31 -45 7 vhcurveto
          -80 -34 -80 -57 -83 104 callgsubr
          endchar
        </CharString>
        <CharString name="dvGHA">
          16 419 36 callgsubr
          -69 -1 -57 -1 -50 vhcurveto
          -59 -33 -69 -43 -71 hhcurveto
          -49 -41 27 46 -29 callgsubr
          -85 100 -101 125 59 48 20 34 36 vhcurveto
          -6 -29 -2 -29 -16 vvcurveto
          -58 29 -37 53 9 13 1 5 12 16 callgsubr
        </CharString>
        <CharString name="dvGH_MA">
          386 789 145 callsubr
          -87 hmoveto
          15 -22 0 232 callgsubr
          -87 -5 9 -34 -39 -62 rrcurveto
          -63 -40 -42 -24 -55 hhcurveto
          -49 -41 27 46 -29 callgsubr
          -85 99 -101 126 80 66 54 54 30 vhcurveto
          -20 22 27 -15 26 209 callsubr
          188 hlineto
          -2 -56 -1 -47 -49 vvcurveto
          -42 3 -89 85 9 13 1 5 12 vhcurveto
          -10 16 -3 46 36 119 5 -99 callgsubr
        </CharString>
        <CharString name="dvGH_NA">
          16 419 36 callgsubr
          -69 -1 -58 -1 -50 vhcurveto
          -59 -31 -71 -42 -71 hhcurveto
          -49 -41 27 46 -29 callgsubr
          -64 55 -68 79 -25 vhcurveto
          -76 -27 -53 -35 -36 vvcurveto
          -51 69 -44 49 34 29 20 36 16 -5 20 -10 23 vhcurveto
          95 48 64 19 37 42 rrcurveto
          -5 -31 -2 -33 -16 vvcurveto
          -58 29 -37 53 9 13 1 5 12 16 callgsubr
        </CharString>
        <CharString name="dvGH_R">
          -214 429 565 rmoveto
          -107 callsubr
          -396 hlineto
          60 callsubr
          -78 80 -83 107 -5 vhcurveto
          -66 -26 -73 -25 -56 -9 rrcurveto
          -44 3 35 -35 48 hhcurveto
          66 160 86 91 83 hvcurveto
          33 35 21 35 29 vvcurveto
          24 -17 30 -44 7 vhcurveto
          -79 -33 -81 -58 -83 104 callgsubr
          endchar
        </CharString>
        <CharString name="dvGH_RA">
          16 419 36 callgsubr
          -69 -1 -57 -1 -50 vhcurveto
          -59 -33 -69 -43 -71 hhcurveto
          -49 -41 27 46 -29 callgsubr
          -78 80 -83 107 -5 vhcurveto
          -66 -26 -73 -25 -56 -9 rrcurveto
          -45 3 36 -35 51 hhcurveto
          57 146 82 98 83 hvcurveto
          -6 -31 -2 -32 -17 vvcurveto
          -58 29 -37 53 9 13 1 5 12 16 callgsubr
        </CharString>
        <CharString name="dvGH_YA">
          378 776 -26 callgsubr
          -14 34 -18 27 vhcurveto
          -71 hmoveto
          116 callsubr
          -52 -48 -31 -43 -29 vhcurveto
          -56 -37 -21 -61 -31 -49 rrcurveto
          -41 -26 -32 -31 -64 hhcurveto
          -48 -40 27 45 -29 callgsubr
          -84 99 -101 125 84 66 61 65 28 vhcurveto
          -51 47 73 -42 76 106 callgsubr
          -11 45 callgsubr
          4 -87 callgsubr
          endchar
        </CharString>
        <CharString name="dvG_BA">
          305 611 217 123 callgsubr
          -550 297 84 callsubr
          526 107 callgsubr
          -125 148 65 callgsubr
          -103 109 -124 125 347 callsubr
          vhcurveto
          -7 -22 -4 -24 -24 vvcurveto
          -50 21 -51 63 184 callgsubr
          11 -44 callsubr
        </CharString>
        <CharString name="dvG_BHA">
          377 643 153 callgsubr
          -37 0 -33 -1 -30 vhcurveto
          -53 246 callgsubr
          -90 hhcurveto
          -25 -21 -8 -12 -15 hvcurveto
          17 -23 -34 2 -24 hhcurveto
          -362 -9 callsubr
          160 180 callsubr
          179 hlineto
          -2 -56 -1 -47 -49 vvcurveto
          -42 3 -89 85 9 13 1 5 13 -95 callsubr
        </CharString>
        <CharString name="dvG_BH_YA">
          695 1093 -101 callgsubr
          -14 34 -18 27 vhcurveto
          -285 97 rmoveto
          137 callsubr
          vvcurveto
          -78 -110 -31 -34 -44 vhcurveto
          -38 3 -44 3 -46 1 rrcurveto
          159 -6 -83 128 -90 hhcurveto
          -26 -21 -8 -14 -16 hvcurveto
          19 -23 -35 2 -25 hhcurveto
          -362 -9 callsubr
          164 180 callsubr
          122 hlineto
          8 8 0 1 6 hvcurveto
          -67 41 92 -68 96 hhcurveto
          57 43 18 25 33 hvcurveto
          -5 -29 -4 -31 -26 vvcurveto
          -54 17 -52 63 -100 callgsubr
          166 -85 callsubr
        </CharString>
        <CharString name="dvG_DA">
          222 -54 662 84 callsubr
          448 261 callgsubr
          -78 -275 16 -190 vvcurveto
          -115 134 -109 133 324 callsubr
          vhcurveto
          -63 callsubr
        </CharString>
        <CharString name="dvG_DHA">
          345 700 -41 callsubr
          -551 -9 callsubr
          213 hlineto
          1 3 rlineto
          3 hlineto
          47 callsubr
          -84 98 -100 127 61 47 21 34 35 vhcurveto
          -6 -26 -3 -28 -19 vvcurveto
          -49 19 -48 63 -21 callsubr
        </CharString>
        <CharString name="dvG_DH_VA">
          673 662 -41 callgsubr
          314 hlineto
          12 -23 callgsubr
          -54 407 callgsubr
          -63 -30 -54 -43 -64 hhcurveto
          -49 -43 33 51 -35 callgsubr
          46 -43 31 -55 vhcurveto
          -212 53 -299 -184 hhcurveto
          -44 -37 29 42 108 callgsubr
          38 19 36 41 -43 26 -46 242 callgsubr
          -551 -9 callsubr
          143 hlineto
          26 25 1 2 23 hvcurveto
          47 callsubr
          -84 96 -99 124 78 66 52 69 35 vhcurveto
          -58 41 68 -44 73 hhcurveto
          44 42 16 30 29 hvcurveto
          -7 -25 -4 -28 -27 vvcurveto
          -50 20 -51 64 7 17 1 5 10 16 callgsubr
        </CharString>
        <CharString name="dvG_DH_YA">
          720 1117 87 callsubr
          38 19 36 41 -43 26 -46 242 callgsubr
          -557 -9 callsubr
          159 hlineto
          21 22 1 2 21 hvcurveto
          47 callsubr
          -83 95 -98 123 84 73 58 67 31 vhcurveto
          -51 46 74 -43 77 -6 callsubr
          62 -100 callgsubr
          166 -85 callsubr
        </CharString>
        <CharString name="dvG_GA">
          319 14 callgsubr
          244 -80 callsubr
          207 216 callsubr
          13 vhcurveto
          -11 -31 callgsubr
        </CharString>
        <CharString name="dvG_GHA">
          351 754 36 callgsubr
          -69 -1 -57 -1 -50 vhcurveto
          -59 -33 -69 -43 -71 104 callgsubr
          -597 19 callsubr
          213 hlineto
          1 3 rlineto
          4 hlineto
          -11 -23 -5 -23 -22 49 callgsubr
          -29 -34 vvcurveto
          -85 100 -101 125 59 48 20 34 36 vhcurveto
          -6 -29 -2 -29 -16 vvcurveto
          -58 29 -37 53 9 13 1 5 12 16 callgsubr
        </CharString>
        <CharString name="dvG_JA">
          464 312 662 rmoveto
          0 vlineto
          -6 -5 0 -5 hhcurveto
          -362 -9 callsubr
          213 0 hlineto
          6 6 0 5 hhcurveto
          456 97 callgsubr
          -14 -324 vlineto
          -87 callsubr
          -41 50 -17 18 vhcurveto
          303 callgsubr
          -2 -67 -68 -39 callsubr
          164 -107 callgsubr
          endchar
        </CharString>
        <CharString name="dvG_LA">
          459 14 callgsubr
          681 hlineto
          13 -20 1 -41 -36 vvcurveto
          -48 vlineto
          17 -25 -29 9 -32 hhcurveto
          -46 -41 -20 -32 -31 hvcurveto
          37 -42 -52 -96 callgsubr
          20 -6 18 vhcurveto
          35 16 34 19 34 332 callgsubr
          -6 15 hvcurveto
          -2 -84 -2 -63 -66 vvcurveto
          -42 3 -89 85 -100 callgsubr
          163 -105 callsubr
        </CharString>
        <CharString name="dvG_MA">
          321 723 565 44 callsubr
          -585 19 callsubr
          249 -51 callgsubr
          187 hlineto
          -2 -56 -1 -47 -49 vvcurveto
          -42 3 -89 85 9 13 1 5 13 -95 callsubr
        </CharString>
        <CharString name="dvG_NA">
          -13 -66 662 83 callsubr
          197 301 callsubr
          -79 -2 -65 -1 -56 vhcurveto
          -91 -46 -207 -78 -71 386 callsubr
          21 -11 24 vhcurveto
          146 93 rlineto
          -6 -27 -4 -40 -25 vvcurveto
          -53 19 -52 65 9 13 1 5 13 vhcurveto
          -11 -31 callgsubr
        </CharString>
        <CharString name="dvG_NNA">
          485 639 69 callsubr
          -536 19 callsubr
          201 98 callsubr
        </CharString>
        <CharString name="dvG_N_YA">
          315 712 -101 callgsubr
          -14 34 -18 27 vhcurveto
          -634 97 83 callsubr
          305 hlineto
          28 callsubr
          -92 -154 -27 -59 vvcurveto
          -25 12 -30 21 -28 vhcurveto
          -107 -49 -182 -73 -66 386 callsubr
          20 -11 24 vhcurveto
          141 89 13 9 10 8 7 9 rlinecurve
          -40 46 62 -29 63 hhcurveto
          57 43 18 25 33 hvcurveto
          -5 -29 -4 -31 -26 vvcurveto
          -54 17 -52 63 -100 callgsubr
          166 -85 callsubr
        </CharString>
        <CharString name="dvG_R">
          130 callgsubr
          222 -263 244 callgsubr
        </CharString>
        <CharString name="dvG_RA">
          -13 -66 662 83 callsubr
          197 301 callsubr
          -68 -1 -57 -1 -50 vhcurveto
          -65 -52 -145 -97 -109 -23 rrcurveto
          -44 4 33 -34 47 hhcurveto
          40 100 45 97 105 hvcurveto
          -6 -26 -3 -36 -24 vvcurveto
          -53 19 -52 65 9 13 1 5 13 vhcurveto
          -11 -31 callgsubr
        </CharString>
        <CharString name="dvG_R_YA">
          322 720 -101 callgsubr
          -14 34 -18 27 vhcurveto
          -642 97 83 callsubr
          313 hlineto
          28 callsubr
          -92 -154 -27 -59 vvcurveto
          -20 8 -22 13 -23 vhcurveto
          -68 -54 -117 -78 -118 -28 rrcurveto
          -43 4 32 -33 44 hhcurveto
          74 151 106 72 45 hvcurveto
          -44 47 67 -34 68 hhcurveto
          57 43 18 25 33 hvcurveto
          -5 -29 -4 -31 -26 vvcurveto
          -54 17 -52 63 -100 callgsubr
          166 -85 callsubr
        </CharString>
        <CharString name="dvG_SA">
          472 875 565 -12 callsubr
          -702 19 callsubr
          376 hlineto
          34 -26 19 -46 -47 -58 callgsubr
          129 callsubr
          hvcurveto
          -53 callsubr
          -4 -78 callgsubr
          55 47 235 callgsubr
          -27 50 61 -14 54 hhcurveto
          21 18 1 3 15 hvcurveto
          -1 -44 -1 -40 -40 vvcurveto
          -42 3 -89 85 9 13 1 5 13 132 callgsubr
          4 -87 callgsubr
          endchar
        </CharString>
        <CharString name="dvG_VA">
          275 14 callgsubr
          496 -20 callgsubr
          -69 -78 -45 -97 274 callgsubr
          180 callgsubr
          vhcurveto
          -7 -24 -4 -28 -27 vvcurveto
          -50 20 -51 63 184 callgsubr
          11 -95 callsubr
        </CharString>
        <CharString name="dvG_YA">
          313 710 -101 callgsubr
          -14 34 -18 27 vhcurveto
          -632 19 callsubr
          313 hlineto
          28 callsubr
          -92 -154 -27 -59 vvcurveto
          342 callsubr
          57 43 18 25 33 vhcurveto
          -5 -29 -4 -31 -26 vvcurveto
          -54 17 -52 63 -100 callgsubr
          166 -85 callsubr
        </CharString>
        <CharString name="dvGx">
          -262 138 115 -68 callgsubr
          -204 547 84 callsubr
          213 -85 callsubr
        </CharString>
        <CharString name="dvGxA">
          -13 138 115 -68 callgsubr
          -204 547 84 callsubr
          207 216 callsubr
          13 vhcurveto
          -11 -31 callgsubr
        </CharString>
</ttFont>
